<svg width="667" height="743" viewBox="0 0 667 743" fill="none" xmlns="http://www.w3.org/2000/svg">
<path d="M568.959 305.674C593.731 310.131 611.076 324.932 628.422 340.051C640.835 350.926 654.043 360.9 666.455 370.926C646.033 388.592 625.558 406.947 604.446 424.454C593.572 433.472 580.204 437.663 565.034 439.148C566.466 440.316 567.102 440.952 567.792 441.377C586.305 453.737 599.247 470.183 605.772 491.721C611.766 511.509 618.45 531.031 625.027 551.137C621.208 551.403 616.646 551.456 612.19 552.145C596.277 554.532 580.47 557.397 564.503 559.678C544.664 562.49 525.515 560.739 506.631 548.644C507.957 553.578 509.655 556.92 509.655 560.262C509.655 572.357 510.238 584.612 508.382 596.495C505.889 612.516 501.274 628.219 497.508 644.346C491.46 641.482 484.511 637.344 477.032 634.956C463.347 630.659 449.131 627.901 435.498 623.551C424.73 620.102 414.386 615.169 403.777 610.872C405.846 625.036 405.581 640.261 398.473 654.267C393.062 664.877 387.174 675.434 379.907 684.823C364.789 704.505 348.717 723.391 333.015 742.595C327.923 735.539 322.3 727.051 315.988 719.147C307.607 708.643 298.695 698.617 290.102 688.272C271.271 665.619 259.283 640.421 261.882 607.954C241.354 625.673 215.892 625.301 193.614 633.842C185.233 637.025 177.117 640.898 167.834 644.93C165.235 613.524 148.632 583.657 159.453 551.509C150.011 554.533 140.622 559.413 130.968 560.156C118.767 561.111 106.302 559.095 93.9954 557.609C76.3846 555.487 58.8268 552.676 42.0116 550.288C48.9604 528.432 55.6971 505.302 63.7599 482.65C68.9583 468.061 79.1959 456.761 91.9797 447.902C94.3137 446.257 96.6478 444.613 100.043 442.225C75.0585 437.557 57.6597 422.544 40.5262 406.735C28.5381 395.647 15.4891 385.727 2.91748 375.276C1.64441 374.215 0.530448 373.048 0 372.571C21.1649 355.276 41.5341 337.399 63.2825 321.377C73.4141 313.897 86.0917 309.972 97.6025 304.454C96.8068 303.871 94.5259 302.332 92.3511 300.688C74.475 287.213 63.5477 269.282 57.3945 247.956C52.5675 231.351 47.0508 214.906 41.9055 198.407C41.6402 197.505 41.6933 196.497 41.6402 196.126C58.3493 194.588 74.9524 194.057 91.1841 191.246C107.628 188.381 123.701 187.903 139.773 192.041C146.775 193.845 153.459 196.922 160.62 199.574C159.612 195.755 158.339 191.564 157.437 187.267C154.413 172.784 156.588 158.673 159.93 144.508C163.325 129.814 166.03 115.013 168.948 100.689C180.512 104.615 192.5 109.071 204.753 112.784C212.869 115.278 221.568 116.021 229.631 118.779C241.248 122.758 252.493 127.904 263.049 132.148C256.366 101.909 268.46 75.5433 288.352 51.936C303.257 34.2703 319.171 17.4535 334.978 0C339.009 5.35806 343.306 11.7771 348.239 17.6126C360.864 32.5197 374.815 46.4188 386.379 62.0686C402.186 83.5008 408.551 107.904 403.512 133.58C414.598 128.912 426.109 123.501 438.044 119.31C446.266 116.392 455.231 115.649 463.612 113.05C475.441 109.389 487.058 104.933 499.682 100.477C502.229 133.05 518.938 164.561 506.949 199.574C512.625 197.187 517.558 194.906 522.651 193.049C538.034 187.479 553.682 188.116 569.648 190.238C587.949 192.678 606.356 194.216 624.338 196.126C617.548 218.885 611.182 242.863 603.173 266.311C598.133 281.112 588.267 293.102 574.741 301.643C573.149 302.651 571.664 303.818 569.118 305.674H568.959ZM333.917 21.0608C322.088 34.1642 309.994 46.8432 298.642 60.2118C287.662 73.103 278.698 87.3735 274.719 104.19C270.316 122.599 270.847 140.53 281.138 157.134C282.57 159.468 285.593 160.848 287.874 162.651C288.352 162.121 288.882 161.591 289.36 161.06C288.617 159.044 287.874 157.081 287.132 155.065C279.016 133.474 279.44 111.936 291.587 92.3601C304.159 72.095 318.852 53.1562 332.644 33.6337C332.856 33.3154 333.546 33.3685 334.501 33.1563C335.721 34.6948 337.153 36.2862 338.373 38.0369C347.391 50.7689 356.249 63.66 365.426 76.286C373.542 87.4795 380.437 99.2036 383.037 112.89C385.689 126.949 384.999 140.795 378.899 154.482C378.316 153.739 377.997 153.527 377.997 153.368C378.422 151.034 378.899 148.646 379.43 146.312C383.249 129.283 382.878 112.307 373.542 97.3999C361.341 77.8245 347.55 59.31 333.705 39.257C320.55 57.7715 307.607 74.8537 295.937 92.7846C283.737 111.564 282.252 131.989 289.943 153.103C293.868 163.819 295.725 165.092 307.501 164.508C303.523 135.437 306.228 133.527 310.524 123.766C317.898 106.843 326.332 90.3443 333.705 74.9067C337.1 82.705 340.336 92.4132 345.269 101.166C356.567 121.166 367.335 141.06 359.007 165.463C366.858 164.561 373.648 164.031 380.331 162.864C382.347 162.492 384.999 160.848 385.795 159.097C388.819 152.466 392.479 145.782 393.593 138.779C398.155 110.503 389.031 85.6228 371.738 63.8192C359.962 48.9652 346.648 35.3844 333.864 21.1139L333.917 21.0608ZM414.651 365.993C413.697 318.407 378.263 285.197 329.514 286.152C287.662 287.001 252.069 323.075 252.918 363.87C253.926 411.828 289.572 446.629 336.676 445.674C380.278 444.772 415.5 408.751 414.651 365.993ZM333.97 698.67C339.593 690.553 345.481 681.906 351.528 673.365C357.734 664.611 364.471 656.176 370.412 647.264C380.225 632.622 383.408 616.442 380.278 599.042C377.308 582.543 372.799 577.609 359.538 576.973C363.41 601.694 361.978 608.697 350.361 628.431C345.693 636.389 341.397 644.611 337.418 652.993C335.615 656.76 335.084 661.11 334.448 663.497C328.825 652.569 323.149 640.951 316.943 629.598C311.161 618.988 305.804 608.325 305.75 595.964C305.75 589.333 306.652 582.702 307.183 575.912C290.633 579.148 290.049 579.997 286.707 595.912C282.092 618.14 288.67 637.344 301.772 654.956C312.54 669.439 323.149 683.975 333.917 698.616L333.97 698.67ZM104.976 240.158C116.221 241.802 127.785 244.349 139.455 244.985C160.195 246.099 176.586 254.057 187.832 271.829C187.991 272.094 188.68 272.041 190.802 272.571C188.999 263.447 189.529 253.738 185.339 246.895C174.305 228.964 157.278 217.505 135.901 217.346C116.858 217.24 97.7617 220.688 78.6656 222.651C78.3473 222.651 78.1351 223.341 77.7637 223.871C82.5378 236.073 87.2057 248.38 92.1388 260.529C100.202 280.317 114.471 293.261 135.264 298.937C146.563 302.067 147.571 301.908 155.262 292.094C129.111 282.969 120.995 256.868 104.923 240.158H104.976ZM159.028 454.321C153.194 451.562 148.738 447.53 144.759 447.955C129.429 449.599 115.479 455.17 105.029 467.424C90.4946 484.453 86.4101 505.992 78.1882 526.469C86.9936 527.795 94.9502 528.697 102.748 530.236C132.824 536.23 159.93 532.941 181.307 507.795C187.779 500.156 189.741 492.464 187.726 482.384C185.763 484.506 184.172 486.257 182.58 487.955C174.04 496.92 163.696 502.809 151.443 504.294C136.325 506.151 120.889 505.832 105.877 514.055C125.769 484.453 124.815 471.721 159.028 454.321ZM589.063 526.151C583.705 512.676 578.772 499.997 573.627 487.371C565.882 468.326 552.144 456.231 532.517 449.652C523.075 446.469 516.285 447.424 509.761 455.753C537.609 465.355 544.983 493.419 561.851 511.827C551.878 509.652 541.853 507.159 531.774 505.302C526.788 504.347 521.537 504.825 516.497 504.029C500.955 501.588 488.331 494.108 478.305 481.376C478.305 487.955 477.351 495.169 480.321 499.944C488.331 512.729 499.417 522.702 513.845 528.273C539.095 538.034 563.654 530.289 589.01 526.151H589.063ZM478.093 268.221C489.975 254.057 503.183 247.107 519.362 246.046C533.419 245.144 547.688 245.197 560.631 238.248C560.79 238.142 561.32 238.672 561.851 239.044C545.99 257.664 537.609 283.181 509.071 293.049C515.224 296.232 519.733 300.635 523.659 300.157C540.368 298.088 556.228 291.988 564.875 276.815C574.529 259.839 581.637 241.431 590.177 222.916C576.863 220.954 565.458 218.938 553.947 217.558C526.364 214.269 502.335 220.688 483.663 242.969C477.51 250.29 478.305 257.929 478.04 268.115L478.093 268.221ZM145.025 341.589C142.956 338.088 141.046 335.754 140.197 333.101C138.182 327.001 134.097 325.303 128.05 325.197C117.335 325.038 106.726 326.205 97.8147 332.147C78.8246 344.879 60.4712 358.459 41.7463 371.722C58.2963 384.348 74.5281 397.186 91.2372 409.334C102.801 417.769 116.168 421.377 130.543 420.369C132.612 420.21 135.636 419.838 136.431 418.459C140.091 412.358 143.062 405.939 146.404 399.414C125.451 399.043 118.98 396.815 102.642 386.629C93.0937 380.687 82.9622 375.648 74.369 370.926C80.31 367.796 88.5848 364.189 95.9581 359.308C110.651 349.6 125.133 339.68 144.972 341.483L145.025 341.589ZM521.059 398.565C523.34 403.021 525.038 405.886 526.417 408.91C531.881 421.005 533.154 421.801 546.574 419.997C549.704 419.573 552.78 418.883 555.804 417.982C583.546 409.653 599.99 385.144 624.391 371.457C608.583 359.361 594.049 347.902 579.143 337.027C566.254 327.584 551.56 323.765 535.594 325.834C533.26 326.152 530.395 327.478 529.122 329.282C526.629 332.73 525.038 336.868 522.916 341.059C528.061 341.43 532.888 341.536 537.609 342.12C559.676 344.932 573.468 363.711 594.951 370.661C568.588 378.565 551.242 403.658 521.059 398.512V398.565ZM479.419 606.415C481.011 597.238 482.92 588.432 484.034 579.519C486.527 559.784 483.769 541.323 471.781 524.559C466.423 517.079 460.27 515.063 453.321 516.549C456.345 527.795 460.217 538.777 462.18 550.076C464.461 563.339 465.097 576.867 466.37 589.28C450.722 572.304 421.972 571.933 407.703 549.334C403.618 554.904 400.542 559.891 396.722 564.188C393.805 567.53 394.388 569.917 396.722 573.1C404.52 583.604 414.174 591.773 426.958 594.957C444.144 599.254 461.543 602.596 479.419 606.468V606.415ZM187.62 606.681C204.753 602.702 221.356 599.094 237.853 594.957C251.698 591.455 262.466 583.339 270.051 571.243C271.112 569.493 271.802 566.257 270.9 564.771C267.77 559.678 263.898 555.063 260.822 551.031C254.032 556.442 248.144 562.437 241.089 566.469C227.191 574.479 212.71 581.376 199.555 588.219C200.456 583.922 202.154 577.821 203.056 571.615C205.761 552.782 202.154 532.676 215.309 515.169C209.368 515.594 202.684 515.7 199.236 519.042C190.166 527.848 185.127 539.254 182.58 551.827C178.708 570.766 185.71 588.431 187.673 606.734L187.62 606.681ZM201.464 155.49C207.087 158.62 214.407 163.553 222.364 166.949C236.58 172.943 250.902 178.407 260.238 192.094C263.58 187.267 266.179 182.864 269.362 178.938C271.855 175.914 271.59 173.792 269.627 170.609C261.988 158.301 251.167 150.291 237.27 147.161C220.932 143.447 204.329 140.901 187.673 137.771C186.187 146.312 184.755 154.959 183.164 163.553C179.451 183.712 182.633 202.333 194.887 219.15C200.457 226.789 205.655 228.54 213.452 225.887C210.482 215.065 206.557 204.561 204.806 193.686C202.684 180.37 202.366 166.789 201.411 155.49H201.464ZM451.358 226.206C461.596 228.381 467.961 226.046 473.743 217.664C491.354 191.882 483.716 165.092 479.26 138.142C462.286 141.485 445.789 144.402 429.451 148.063C415.606 151.193 404.414 158.832 396.987 171.14C395.874 172.996 395.343 176.444 396.351 178.195C399.215 183.235 402.982 187.691 405.316 190.98C415.076 184.72 424.253 178.142 434.013 172.625C445.311 166.206 457.14 160.742 467.219 155.649C466.158 160.901 463.612 168.646 463.294 176.498C462.604 193.792 463.028 211.139 451.412 226.258L451.358 226.206ZM333.228 719.677C344.579 706.203 356.355 692.887 367.389 678.935C374.019 670.553 380.65 661.853 385.371 652.357C396.245 630.5 397.412 607.901 387.068 585.302C385.105 581.058 382.718 577.662 377.149 580.898C377.732 582.437 378.369 584.028 379.005 585.567C387.493 606.044 387.333 626.681 375.876 645.407C362.721 666.946 347.497 687.158 333.281 707.741C326.332 697.025 319.383 685.938 312.01 675.115C305.591 665.619 298.112 656.813 292.065 647.105C281.138 629.598 279.175 610.606 284.957 590.819C286.018 587.211 287.026 583.604 288.086 579.997C287.45 579.519 286.813 579.042 286.177 578.564C284.214 580.209 281.403 581.429 280.501 583.551C277.796 589.758 274.666 596.124 273.764 602.702C270.21 628.803 278.167 651.932 294.293 672.251C307.024 688.272 320.285 703.921 333.228 719.624V719.677ZM255.623 321.802C230.692 324.295 202.525 331.828 158.286 370.183C183.164 398.724 237.323 421.324 262.943 419.679C259.814 413.95 257.002 407.955 253.342 402.544C252.175 400.793 248.78 400.104 246.34 399.785C237.535 398.671 227.668 400.104 219.977 396.602C205.496 389.971 192.234 380.581 178.496 372.252C177.594 371.722 177.064 370.555 175.95 369.175C181.519 365.197 186.506 361.324 191.757 357.876C207.777 347.425 223.955 337.186 244.537 339.892C245.916 340.051 248.197 338.619 248.886 337.292C251.38 332.359 253.342 327.107 255.57 321.802H255.623ZM134.787 323.446C135.158 315.595 133.938 314.587 123.86 314.056C99.1939 312.836 78.9307 322.863 60.6833 338.406C47.6873 349.494 34.4792 360.316 21.4302 371.244C20.9528 371.616 20.7936 372.411 20.8997 372.199C36.0175 385.515 50.6048 398.884 65.7756 411.509C84.7126 427.371 106.249 435.541 131.445 431.138C136.166 430.342 137.015 428.167 134.84 423.605C118.555 425.515 103.013 422.385 89.6457 412.995C71.08 399.998 53.151 386.098 35.0096 372.518C34.7444 372.305 34.8505 371.669 34.8505 371.563C53.3631 358.247 71.3983 344.56 90.1762 331.987C103.384 323.128 118.449 320.422 134.84 323.499L134.787 323.446ZM645.715 370.82C639.721 366.098 633.196 361.006 626.725 355.913C613.676 345.727 601.157 334.746 587.471 325.515C572.778 315.648 555.91 312.995 538.352 315.595C534.904 316.125 530.66 316.178 532.57 322.491C549.12 320.475 565.087 322.491 578.878 332.147C596.648 344.507 613.835 357.717 631.605 370.82C630.597 371.775 629.642 372.836 628.581 373.685C614.843 384.242 601.051 394.746 587.419 405.356C576.916 413.525 565.829 420.634 552.356 422.491C545.46 423.446 538.405 423.499 531.297 423.976C530.448 432.729 537.291 431.881 542.012 432.04C564.132 432.676 583.917 425.621 600.733 411.456C616.116 398.459 630.703 384.507 645.768 370.873L645.715 370.82ZM494.113 370.502C478.995 379.626 465.999 388.22 452.26 395.488C442.341 400.74 431.414 403.764 419.744 400.687C418.312 400.316 415.553 401.165 414.864 402.279C411.416 407.955 408.392 413.897 404.944 420.263C446.478 416.284 479.897 397.716 508.806 369.229C481.965 341.696 448.07 328.168 410.249 320.688C413.75 328.38 416.72 334.958 419.585 341.165C450.245 335.436 470.295 354.268 494.113 370.555V370.502ZM71.6105 530.766C76.7028 517.238 81.636 504.294 86.4101 491.297C95.5868 466.363 113.039 451.085 139.084 445.621C140.622 445.302 142.054 444.666 143.592 444.135C140.834 437.822 136.644 437.345 130.862 438.777C112.455 443.286 98.5042 453.79 86.9935 468.538C70.4435 489.758 68.9053 516.495 58.9859 539.466C76.809 541.8 93.8893 544.612 111.023 546.204C141.152 549.015 167.091 540.898 185.286 515.063C186.771 512.941 187.513 510.289 188.627 507.901C185.922 508.538 184.649 509.917 183.376 511.35C168.417 528.485 149.852 538.299 126.83 536.761C108.636 535.594 90.6007 532.888 71.5576 530.766H71.6105ZM523.765 304.454C526.894 309.123 528.433 313.526 534.851 311.192C558.191 302.757 578.136 289.494 588.161 266.258C596.118 247.85 601.051 228.115 607.363 208.858C593.943 207.32 581.265 206.524 568.853 204.296C535.116 198.301 505.836 205.357 482.761 231.988C480.798 234.216 479.631 237.187 478.146 239.786C479.101 240.529 480.003 241.272 480.958 242.014C481.965 240.317 482.708 238.46 483.928 236.975C496.5 222.439 512.519 213.314 531.668 213.367C552.939 213.473 574.157 216.126 596.171 217.771C589.434 234.322 583.44 249.441 577.181 264.455C569.808 282.12 556.865 294.003 538.723 300.051C534.108 301.59 529.44 302.757 523.818 304.401L523.765 304.454ZM58.9859 209.123C62.7521 221.06 66.2001 233.261 70.3906 245.144C73.5733 254.057 76.8089 263.181 81.583 271.245C93.0937 290.82 109.75 304.136 132.559 308.433C135.848 309.07 139.667 307.213 143.221 306.523L142.956 303.924C140.463 303.234 137.97 302.491 135.423 301.855C120.836 298.141 107.31 291.775 98.8756 279.203C91.6085 268.433 86.6753 256.02 81.1587 244.136C77.3395 235.914 74.3688 227.266 71.08 218.991C82.4316 217.346 93.0406 216.073 103.597 214.216C135.954 208.646 164.969 213.102 186.718 240.741C186.93 241.006 187.513 241.059 188.787 241.537C188.044 238.991 187.938 236.656 186.771 235.118C170.592 213.261 148.632 201.166 121.632 201.856C100.838 202.386 80.0977 206.577 59.0389 209.176L58.9859 209.123ZM607.576 539.413C602.165 523.074 597.391 506.204 591.078 489.971C581.424 465.355 564.291 447.849 538.882 439.042C532.835 436.92 528.061 437.186 524.985 443.499C525.303 443.817 525.621 444.294 525.993 444.401C527.372 444.878 528.751 445.249 530.183 445.621C545.089 449.758 559.888 455.753 567.633 469.387C578.719 488.856 587.206 509.758 596.701 529.758C582.538 532.092 570.073 534.48 557.554 536.071C537.079 538.617 516.869 537.981 499.364 525.143C492.203 519.891 485.997 513.312 479.313 507.318C479.313 510.13 480.003 512.835 481.541 514.957C500.372 541.005 526.629 549.227 557.342 545.938C573.786 544.188 590.177 541.694 607.629 539.413H607.576ZM362.402 449.812C365.744 477.292 347.709 494.055 333.334 514.108C319.913 493.366 299.438 477.61 305.379 450.183C297.794 446.416 290.367 442.65 282.358 438.671C288.246 476.23 311.002 503.18 333.387 529.758C358.742 504.029 378.369 474.904 385.424 438.618C377.732 442.332 370.094 446.045 362.402 449.758V449.812ZM215.999 487.424C229.207 485.461 240.028 484.029 250.796 482.225C254.35 481.642 257.851 480.315 261.246 478.989C276.151 473.154 280.395 462.65 277.69 447.212C275.197 433.048 269.362 426.841 254.403 425.568C237.004 424.082 227.509 427.106 222.735 444.188C218.969 457.557 218.333 471.827 215.999 487.424ZM377.573 481.536C404.042 503.339 435.816 503.71 467.908 506.098C469.075 477.716 467.166 450.82 454.859 425.515C449.873 415.223 448.335 414.905 438.309 421.589C456.981 442.119 452.048 468.061 455.602 493.472C429.928 487.477 401.337 493.047 384.893 464.984C382.294 470.872 380.066 475.912 377.573 481.482V481.536ZM197.963 505.143C205.124 504.771 211.437 504.506 217.749 504.029C238.012 502.49 258.063 500.156 276.735 491.297C291.428 484.347 291.481 484.453 284.585 469.865C284.426 469.493 283.79 469.334 283.312 469.016C265.065 493.047 236.898 487.212 211.331 493.896C212.445 479.997 213.346 467.424 214.513 454.851C215.733 441.96 220.242 430.501 230.268 421.483C217.059 415.435 216.847 415.647 211.012 427.424C198.918 451.881 199.024 478.246 197.963 505.143ZM217.325 254.269C217.643 259.68 217.537 263.075 218.014 266.417C219.977 278.884 221.462 291.51 224.433 303.765C226.342 311.563 232.442 317.133 241.036 316.709C252.281 316.178 263.792 314.746 270.104 303.446C273.128 298.035 274.719 291.828 277.371 286.152C281.032 278.195 278.061 272.412 271.696 267.903C268.566 265.675 265.065 263.341 261.405 262.545C247.136 259.521 232.761 257.134 217.272 254.269H217.325ZM384.363 270.396C390.145 266.258 395.078 260.37 401.072 258.884C418.63 254.534 436.612 251.935 455.655 248.434C451.836 274.11 457.353 300.157 438.203 320.529C446.761 323.888 452.826 321.607 456.398 313.685C456.822 312.783 457.14 311.881 457.512 310.979C467.431 287.797 467.378 263.022 469.022 238.513C438.999 236.497 395.98 241.378 378.104 256.975C380.331 261.696 382.559 266.47 384.416 270.396H384.363ZM450.563 487.636C448.706 472.464 447.751 459.201 445.258 446.151C443.561 437.239 439.477 426.682 430.406 425.143C420.327 423.393 409.4 426.841 398.844 428.22C397.889 428.326 396.935 429.653 396.245 430.661C382.135 450.767 388.978 473.313 412.371 480.528C423.881 484.082 436.188 485.037 450.563 487.636ZM333.758 88.6467C328.825 97.9835 324.528 106.418 319.913 114.694C311.904 129.018 307.713 143.925 312.063 160.264C312.965 163.66 314.503 167.426 316.943 169.707C322.141 174.641 328.188 178.779 333.917 183.235C337.79 179.893 341.343 175.596 345.958 173.155C354.074 168.911 356.992 161.962 356.726 153.951C356.461 144.88 355.984 135.225 352.801 126.896C347.815 113.845 340.442 101.697 333.811 88.5936L333.758 88.6467ZM282.888 269.919C285.169 264.879 286.92 260.953 288.988 256.444C260.556 239.044 229.419 237.452 197.857 236.55C198.6 247.001 199.555 256.444 199.926 265.887C200.616 282.651 204.01 298.725 210.588 314.163C215.468 325.568 216.37 325.887 227.456 320.104C210.217 299.202 215.945 273.473 210.641 248.115C236.102 255.065 263.102 248.115 282.888 269.972V269.919ZM384.522 292.412C377.361 258.46 354.605 234.8 334.129 209.972C312.222 234.534 289.731 258.407 282.676 292.412C289.519 289.229 295.937 286.47 302.09 283.181C303.576 282.386 304.955 279.945 305.061 278.195C306.175 256.444 321.611 242.757 333.069 225.675C338.691 232.094 343.571 237.452 348.239 243.075C356.992 253.738 365.267 264.667 363.463 279.839C363.304 281.006 364.63 283.022 365.797 283.606C371.791 286.63 377.997 289.335 384.575 292.359L384.522 292.412ZM450.934 255.595C437.196 257.293 425.791 258.354 414.545 260.158C403.671 261.908 393.911 266.736 390.728 277.982C387.811 288.38 392.373 297.505 398.685 306.205C404.52 314.216 413.06 314.109 420.964 316.815C428.708 319.467 433.695 316.497 437.832 310.714C440.06 307.584 442.712 304.189 443.402 300.582C446.213 286.152 448.335 271.563 450.934 255.595ZM332.909 649.545C339.116 638.67 344.791 628.484 350.626 618.405C357.31 606.84 358.742 594.532 355.559 581.694C354.764 578.511 353.332 575.01 351.051 572.835C345.693 567.689 339.646 563.233 333.917 558.564C330.204 561.853 326.703 566.522 322.035 568.591C312.752 572.676 310.365 580.209 310.684 588.644C310.949 597.026 311.532 605.938 314.556 613.524C319.489 625.885 326.544 637.344 332.909 649.545ZM117.441 503.657C127.785 502.49 137.598 501.111 147.465 500.262C162.264 498.989 173.881 491.986 182.792 480.634C186.346 476.071 188.415 470.342 191.545 464.4C184.119 463.233 178.284 463.286 173.244 461.27C164.704 457.875 157.596 460.209 150.382 464.241C134.522 473.207 126.406 488.591 117.441 503.657ZM483.451 132.254C487.27 163.447 498.515 195.755 473.902 225.038C490.877 214.853 497.985 202.757 497.773 183.553C497.507 162.174 493.37 140.848 490.983 120.265C476.926 123.766 464.248 127.002 451.518 130.132C442.341 132.413 432.899 134.057 423.934 137.081C410.408 141.644 399.481 150.185 391.153 161.803C387.28 167.214 387.546 168.593 392.585 172.36C400.86 157.559 413.272 147.638 429.663 143.607C447.327 139.309 465.256 136.02 483.504 132.254H483.451ZM274.03 172.147C278.963 169.654 279.918 167.426 276.947 163.235C268.407 151.087 257.851 141.378 243.741 136.816C232.708 133.262 221.038 131.617 209.686 128.806C198.971 126.1 188.309 122.97 178.125 120.105C175.738 133.209 173.563 146.418 170.857 159.522C167.462 176.02 168.683 191.988 175.525 207.479C178.496 214.216 188.415 224.03 194.568 224.879C168.576 195.543 179.557 162.97 183.641 131.564C193.348 133.739 202.472 136.339 211.755 137.718C236.792 141.378 260.556 146.949 274.03 172.201V172.147ZM163.856 387.478C157.808 381.377 157.755 381.218 150.966 383.181C140.144 386.258 131.339 382.544 123.488 375.435C120.465 372.73 120.041 370.077 122.905 366.629C129.96 358.088 142.054 354.003 151.92 358.565C157.649 361.218 160.301 359.096 163.431 355.064C155.209 348.168 146.351 344.985 135.689 346.258C116.327 348.486 102.748 361.536 86.6223 370.608C95.2686 376.125 103.013 381.218 110.864 386.045C128.05 396.655 145.555 398.141 163.856 387.478ZM549.067 503.021C539.678 488.008 532.252 472.623 516.657 464.188C512.095 461.695 506.578 459.201 501.645 459.52C493.635 460.05 485.785 462.862 477.191 464.878C483.026 481.748 493.529 494.002 511.087 498.034C523.075 500.793 535.594 501.323 548.961 503.021H549.067ZM505.995 381.96C513.686 394.48 524.348 396.019 535.647 394.162C553.258 391.244 566.413 379.732 582.22 369.971C568.853 362.385 557.289 354.481 544.611 348.963C531.191 343.128 517.664 344.878 505.889 354.427C508.753 360.847 513.421 359.998 518.46 358.725C529.334 355.86 538.935 357.982 545.831 367.372C546.892 368.857 546.839 372.624 545.672 374.056C538.14 383.393 526.205 386.098 514.588 382.12C512.042 381.218 508.912 382.014 506.048 382.014L505.995 381.96ZM176.639 625.779C184.013 623.126 190.06 620.474 196.372 618.723C209.792 615.063 223.425 612.357 236.739 608.484C253.979 603.498 267.983 593.843 277.053 577.875C279.175 574.161 279.228 571.721 274.295 570.447C263.739 588.909 247.242 598.087 227.138 602.225C216.158 604.453 205.337 607.423 194.515 610.235C191.121 611.137 187.779 612.463 184.437 613.63C176.003 584.983 176.109 560.103 184.649 530.554C173.934 536.708 171.229 547.106 169.425 558.14C165.659 581.323 175.897 602.808 176.639 625.832V625.779ZM476.767 279.68C484.936 281.961 492.044 283.075 498.356 285.94C505.464 289.176 511.405 287.956 517.664 284.454C532.676 275.966 540.58 261.484 550.181 247.479C535.169 249.335 520.9 249.76 507.321 253.155C493.317 256.709 483.398 266.683 476.767 279.68ZM392.532 570.766C386.962 573.418 387.227 576.124 389.879 579.943C398.526 592.357 409.241 602.331 423.881 606.415C445.842 612.569 468.068 617.768 489.763 623.285C491.301 614.638 493.211 605.089 494.643 595.434C496.022 585.832 497.826 576.124 497.826 566.416C497.826 548.962 490.559 534.851 478.624 527.477C496.553 555.594 487.323 584.24 483.132 612.728C473.584 610.288 464.567 607.264 455.337 605.673C430.3 601.323 406.111 595.858 392.585 570.66L392.532 570.766ZM294.452 492.888C289.519 495.541 284.533 498.087 279.705 500.846C278.538 501.482 277.424 502.703 276.947 503.923C272.597 514.957 277.902 535.328 287.026 543.233C294.293 549.493 302.196 549.758 308.721 543.869C315.245 537.981 318.481 524.294 314.291 518.511C307.978 509.864 301.189 501.588 294.452 492.888ZM188.787 281.059C173.616 250.662 145.82 248.646 117.123 248.38C120.942 253.792 124.231 259.627 128.74 264.349C135.742 271.669 143.115 278.778 151.072 284.985C158.233 290.555 165.871 288.751 173.51 283.128C169.531 280.741 165.924 278.725 162.529 276.444C159.4 274.375 156.429 272.041 153.406 269.813C165.606 273.42 174.199 285.834 188.787 281.112V281.059ZM374.762 491.562C368.502 499.732 362.72 507.636 356.514 515.116C349.3 523.816 351.899 539.731 361.925 545.089C367.707 548.166 373.966 548.379 379.111 543.922C389.455 534.904 390.41 522.543 390.781 509.811C391.047 500.315 384.204 497.716 378.104 493.843C377.096 493.206 376.088 492.517 374.709 491.562H374.762ZM205.92 576.336C206.716 576.654 207.511 576.973 208.307 577.291C215.097 574.108 222.046 571.243 228.57 567.583C236.209 563.339 244.059 559.201 250.69 553.684C259.389 546.469 259.23 541.8 252.281 531.986C246.34 540.368 238.649 545.726 227.987 546.257C222.523 534.267 225.6 523.87 233.344 514.002C222.046 512.252 217.059 519.625 215.15 527.212C211.118 543.339 208.891 559.943 205.973 576.389L205.92 576.336ZM253.66 210.397C258.859 196.604 258.169 191.67 246.499 184.455C234.458 176.975 221.25 171.458 207.777 164.667C208.572 176.869 208.519 187.903 210.164 198.619C211.224 205.622 214.089 212.678 217.378 219.044C222.099 228.062 224.91 228.752 235.625 226.63C228.252 218.885 224.645 209.813 226.608 199.256C226.926 197.665 230.002 195.277 231.594 195.436C241.089 196.391 248.515 201.113 253.607 210.45L253.66 210.397ZM373.86 246.948C378.157 244.826 382.241 243.181 385.901 240.847C387.758 239.68 389.879 237.505 390.198 235.595C391.789 224.455 390.569 213.633 383.992 204.137C374.497 190.344 359.591 191.617 352.907 207.054C351.369 210.662 350.149 216.391 351.899 219.044C358.371 228.646 366.169 237.399 373.913 246.948H373.86ZM292.914 246.895C300.658 237.664 308.031 228.964 315.245 220.105C316.359 218.726 317.261 216.71 317.314 214.906C317.526 207.373 313.707 201.909 307.448 198.142C301.56 194.588 295.142 194.004 289.519 198.142C278.167 206.259 276.47 218.248 276.364 231.245C276.311 241.855 284.957 242.28 290.845 246.152C291.428 246.524 292.171 246.683 292.86 246.948L292.914 246.895ZM421.653 381.324C420.699 385.727 419.797 389.547 418.789 394.215C446.107 399.255 463.93 382.438 485.626 369.388C474.698 363.022 465.734 356.709 455.867 352.359C448.282 349.016 439.689 346.841 431.414 346.364C421.441 345.833 419.85 349.335 423.987 359.308C436.983 355.595 447.327 359.998 456.026 369.812C444.728 383.977 437.779 386.364 421.706 381.377L421.653 381.324ZM460.005 165.675C450.085 170.185 440.431 174.163 431.201 178.938C425.632 181.803 420.221 185.357 415.659 189.654C407.809 197.028 407.915 199.999 413.909 209.707C418.789 202.227 425.207 196.975 434.225 195.33C438.522 194.535 440.325 195.755 441.121 200.264C443.03 210.874 439.848 219.839 432.952 227.956C441.174 229.548 446.638 226.577 449.82 219.946C452.526 214.269 455.708 208.487 456.663 202.439C458.52 190.45 458.997 178.248 460.058 165.728L460.005 165.675ZM434.331 515.381C442.288 524.93 443.349 535.487 439.742 547.477C428.974 544.877 419.585 541.111 413.75 530.978C408.976 545.567 409.029 548.485 421.335 557.026C433.005 565.089 446.054 571.243 459.58 578.882C458.785 566.681 458.997 556.124 457.087 545.991C455.549 537.769 451.783 529.917 448.547 522.119C446.266 516.655 442.023 513.737 434.278 515.381H434.331ZM244.59 356.974C246.234 346.576 244.802 345.038 234.034 345.78C214.513 347.16 200.032 358.884 183.641 370.13C192.5 375.701 200.191 380.846 208.095 385.462C217.431 390.926 227.297 394.905 238.49 394.427C249.098 393.95 250.372 391.881 245.863 382.014C231.753 384.136 220.879 377.504 209.527 369.759C220.72 361.802 230.002 352.571 244.537 357.027L244.59 356.974ZM322.141 529.97C321.08 532.835 320.179 535.541 319.118 538.246C312.275 555.965 292.33 559.466 281.032 544.188C276.47 538.034 274.083 529.864 272.12 522.278C270.741 516.867 271.855 510.819 271.855 504.984C264.163 505.196 261.882 508.697 261.882 515.328C261.829 528.273 265.755 539.891 273.022 550.288C285.01 567.424 296.202 570.978 317.208 561.27C332.061 554.426 333.599 542.649 322.088 530.076L322.141 529.97ZM323.202 209.442C330.575 199.468 331.159 194.8 326.279 188.169C315.617 173.739 291.641 171.829 279.175 184.508C267.823 196.073 263.049 210.344 262.254 226.206C261.935 232.518 264.588 235.861 271.802 235.542C271.802 232.359 271.324 229.176 271.908 226.152C273.128 219.256 273.817 211.988 276.629 205.728C282.517 192.466 294.24 187.532 306.44 191.352C315.246 194.11 319.542 200.901 323.202 209.442ZM344.738 530.501C339.328 536.177 335.668 543.127 338.426 549.28C344.42 562.437 370.73 572.357 384.151 561.111C399.481 548.326 404.838 531.668 404.202 512.358C403.989 506.204 400.595 504.665 395.131 504.718C395.131 508.22 395.131 511.35 395.131 514.48C395.131 524.931 393.062 534.904 386.803 543.498C376.406 557.768 357.204 556.23 349.035 540.527C347.444 537.503 346.33 534.267 344.685 530.448L344.738 530.501ZM395.82 236.497C402.451 236.232 404.785 232.89 403.936 227.001C402.928 220.052 403.141 212.625 400.648 206.259C389.296 176.869 371.473 168.063 346.966 182.651C335.031 189.76 334.448 199.15 344.738 208.911C345.905 206.736 346.966 204.561 348.186 202.492C358.371 184.826 376.777 184.137 387.864 201.272C390.94 206.046 393.115 211.723 394.335 217.293C395.661 223.394 395.396 229.813 395.82 236.497ZM333.493 506.522C339.858 496.814 345.746 489.546 349.672 481.323C353.173 474.055 354.711 465.78 356.461 457.822C356.833 456.231 354.18 453.95 352.96 451.987C351.263 453.631 349.194 455.011 347.974 456.973C343.359 464.135 339.01 471.509 334.554 478.777C333.334 478.724 332.061 478.618 330.841 478.565C327.021 470.501 323.255 462.384 318.799 452.942C313.071 451.085 310.843 452.04 310.79 460.05C310.79 465.249 311.585 471.032 313.972 475.488C319.383 485.514 326.013 494.851 333.493 506.522ZM472.099 443.764C471.462 449.705 473.903 452.623 479.472 451.509C487.217 449.971 495.227 448.645 502.441 445.674C512.254 441.642 518.831 434.321 518.513 422.703C518.142 410.024 513.315 399.52 502.759 392.146C501.221 391.085 497.985 390.873 496.394 391.775C492.734 393.95 489.657 397.027 485.519 400.369C498.144 404.401 507.851 411.085 505.358 424.348C502.016 442.172 486.209 442.332 472.046 443.711L472.099 443.764ZM181.413 398.883C176.268 396.602 172.502 393.313 169.637 394.003C160.355 396.178 153.883 402.703 150.753 411.722C147.783 420.422 146.245 429.653 153.459 437.186C162.158 446.257 172.82 451.615 185.763 452.04C191.916 452.252 195.046 450.13 194.409 443.446C181.095 442.172 166.455 442.119 162.689 425.196C159.824 412.146 168.417 405.037 181.413 398.937V398.883ZM207.83 413.26C200.085 409.971 193.189 405.727 185.816 404.348C179.345 403.127 170.274 410.979 168.63 417.133C167.091 422.862 167.675 428.326 172.555 432.517C177.435 436.761 191.651 439.626 196.213 437.133C197.168 436.602 198.016 435.541 198.494 434.48C201.517 427.849 204.382 421.111 207.83 413.26ZM459.421 414.374C462.392 421.483 465.097 428.22 468.174 434.798C468.863 436.231 470.985 438.141 472.205 437.981C479.048 437.026 486.527 436.92 492.468 433.843C503.13 428.379 502.175 414.905 491.46 409.493C479.684 403.552 469.447 407.796 459.421 414.321V414.374ZM333.175 255.595C334.076 255.701 334.925 255.808 335.827 255.914C339.328 261.961 342.511 268.327 346.542 274.004C348.292 276.497 351.846 277.664 354.605 279.468C355.4 276.55 357.416 273.367 356.886 270.662C353.915 255.861 343.306 245.834 333.546 234.163C323.52 248.487 311.214 260.688 311.904 281.378C315.988 278.937 319.277 278.035 320.815 275.86C325.324 269.388 329.143 262.386 333.228 255.595H333.175ZM177.912 341.908C176.215 340.953 174.995 340.21 173.722 339.52C166.72 335.754 162.264 329.971 162.476 322.014C162.689 313.42 168.736 308.592 176.056 305.409C178.92 304.189 182.156 303.712 185.233 303.128C188.681 302.492 192.234 302.067 195.47 301.59C196.213 294.852 193.348 293.155 187.779 293.208C176.215 293.367 166.296 297.399 157.967 305.144C144.812 317.399 146.881 334.958 162.264 344.507C167.993 348.061 173.138 348.645 177.912 341.855V341.908ZM470.667 302.226C484.565 303.022 499.47 302.226 505.04 317.929C509.336 330.078 500.69 337.239 488.914 343.605C493.741 345.462 497.136 348.168 499.788 347.531C511.723 344.613 525.356 326.205 514.376 310.661C506.154 298.99 494.378 294.269 480.639 293.102C473.956 292.518 470.402 294.693 470.72 302.279L470.667 302.226ZM460.058 326.788C466.635 330.237 472.629 333.473 478.73 336.444C484.299 339.149 492.787 336.019 497.189 329.865C501.008 324.56 500.213 319.149 496.659 314.269C492.627 308.805 476.396 304.826 470.189 307.584C468.81 308.221 467.431 309.6 466.794 310.979C464.461 316.019 462.392 321.218 460.058 326.788ZM206.716 327.107C204.806 322.544 202.95 318.141 201.146 313.685C200.669 312.571 200.456 311.192 199.661 310.396C198.6 309.282 197.008 307.797 195.735 307.903C189.954 308.168 183.959 308.009 178.549 309.706C170.115 312.306 166.455 320.21 169.372 326.735C172.555 333.791 184.384 338.778 190.908 335.542C196.107 332.995 201.146 330.131 206.716 327.16V327.107ZM416.455 230.237C424.677 229.76 431.308 226.524 435.233 218.991C438.734 212.2 440.272 205.198 436.241 198.036C419.001 201.537 412.53 212.2 416.508 230.29L416.455 230.237ZM415.818 511.562C411.893 528.644 421.229 541.906 436.983 541.641C442.288 526.098 432.846 512.676 415.818 511.562ZM230.586 198.46C224.91 211.67 237.27 230.609 250.584 229.123C253.289 209.229 248.144 201.272 230.586 198.46ZM230.162 542.066C246.234 539.838 253.289 528.909 250.106 511.933C234.405 511.456 224.433 526.204 230.162 542.066ZM215.044 369.441C225.441 375.223 233.822 381.218 245.279 377.823C245.279 374.746 245.385 372.093 245.279 369.441C244.855 359.626 239.232 355.966 230.162 360.157C225.388 362.385 221.091 365.727 215.044 369.494V369.441ZM450.563 369.971C445.046 362.332 435.922 359.467 427.754 362.067C422.29 363.817 422.29 368.008 422.873 371.934C423.298 374.693 425.154 378.3 427.382 379.467C435.233 383.446 443.296 379.839 450.51 369.971H450.563ZM514.853 377.611C525.038 383.128 535.01 380.634 542.967 370.661C537.503 361.059 527.637 358.512 515.861 363.87C517.718 366.364 519.521 368.804 521.59 371.563C519.15 373.738 517.028 375.648 514.853 377.611ZM153.193 362.703C142.531 358.671 133.408 360.21 127.573 367C126.406 368.327 125.769 371.669 126.618 372.942C131.392 380.051 144.919 382.385 154.573 376.603C150.7 374.321 147.306 372.358 143.327 370.024C147.518 366.947 149.958 365.144 153.193 362.756V362.703ZM333.97 473.896C338.214 467.371 342.192 461.164 347.019 453.79H325.377C324.157 462.013 326.968 468.061 334.023 473.896H333.97ZM344.738 277.611C341.025 271.351 338.161 266.417 334.236 259.786C330.151 266.311 327.074 271.245 323.096 277.611H344.738Z" fill="white"/>
<path d="M332.963 434.48C292.436 435.594 264.641 400.846 264.641 365.409C264.641 326.258 294.929 297.081 334.66 297.505C372.587 297.876 404.52 328.539 402.982 368.91C401.603 406.205 372.004 434.852 332.963 434.533V434.48ZM297.157 365.356C297.104 386.841 313.018 402.915 334.395 403.021C355.082 403.128 371.526 386.682 371.526 365.886C371.526 345.25 355.082 329.017 334.13 329.017C313.389 329.017 297.21 344.932 297.157 365.356ZM303.151 395.276C296.415 399.361 292.224 403.605 293.179 410.555C293.391 411.987 297.104 414.48 297.688 414.109C301.878 411.403 306.334 408.592 309.145 404.719C309.941 403.605 305.432 398.724 303.151 395.276ZM303.735 336.019C305.91 332.412 310.153 328.274 309.305 326.205C307.66 322.173 303.311 319.096 299.65 316.179C299.173 315.807 294.823 318.301 294.505 319.998C293.02 326.948 297.316 331.298 303.735 336.072V336.019ZM358.212 314.693C354.764 311.457 352.642 309.441 350.573 307.425C346.966 311.351 343.359 315.224 339.752 319.149C342.988 321.059 346.648 325.038 349.247 324.401C352.324 323.659 354.499 318.99 358.212 314.693ZM375.929 380.953C369.776 392.358 371.845 397.929 380.544 399.149C385.901 399.945 389.455 395.913 386.591 391.351C384.151 387.425 379.907 384.666 375.982 380.9L375.929 380.953ZM309.782 414.48C312.646 418.3 314.662 420.899 316.625 423.499C319.754 419.573 322.937 415.7 326.067 411.775C323.096 409.918 320.073 406.629 317.102 406.682C314.874 406.682 312.752 411.085 309.782 414.48ZM355.454 404.029C350.361 406.735 345.269 407.796 343.996 410.661C342.829 413.154 345.216 418.035 347.232 421.112C349.831 425.143 354.287 424.507 355.294 419.891C356.249 415.435 355.507 410.608 355.507 404.029H355.454ZM357.469 403.764C361.182 407 363.994 409.865 367.23 412.093C368.556 412.995 371.685 413.366 372.428 412.571C373.595 411.244 374.231 408.539 373.701 406.841C372.481 402.862 370.465 399.096 368.343 394.321C364.524 397.663 361.66 400.104 357.522 403.711L357.469 403.764ZM272.438 354.428C278.273 357.664 283.472 360.581 290.421 364.454C289.254 358.141 295.831 353.685 289.201 350.343C283.737 347.584 278.061 347.531 272.438 354.428ZM300.128 337.664C298.961 336.868 298.006 335.754 296.945 335.595C291.959 334.958 286.92 334.534 281.88 334.056C284.427 337.982 286.76 342.067 289.572 345.781C290.368 346.788 292.542 346.788 294.134 347.266C295.99 344.242 297.635 341.59 300.128 337.611V337.664ZM314.768 326.629C319.542 324.242 327.817 325.25 324.104 316.444C322.778 313.314 318.747 309.494 315.776 309.335C311.532 309.123 310.79 318.619 314.768 326.629ZM366.434 335.436C368.556 330.343 370.571 326.311 371.791 322.067C372.216 320.635 371.049 317.929 369.776 317.133C368.609 316.444 365.903 316.974 364.63 317.982C361.289 320.582 358.318 323.659 354.976 326.789C358.848 329.653 361.766 331.828 366.487 335.383L366.434 335.436ZM292.171 378.671C290.58 373.632 290.368 368.433 288.352 367.637C285.063 366.311 280.554 367.425 276.682 368.221C275.356 368.486 273.658 371.032 273.711 372.465C273.765 373.897 275.568 376.178 276.947 376.55C281.244 377.611 285.7 377.876 292.118 378.725L292.171 378.671ZM376.194 368.645C377.732 372.889 378.157 378.3 380.385 379.202C383.726 380.581 388.447 379.043 392.426 378.141C393.222 377.929 394.282 374.268 393.593 373.207C390.092 367.796 384.575 367.69 376.194 368.645ZM297.847 393.526L298.961 390.979C296.256 387.955 293.816 382.915 290.686 382.438C287.715 382.014 283.525 385.78 280.819 388.645C278.379 391.244 279.334 394.533 283.525 394.587C288.299 394.64 293.073 393.897 297.847 393.473V393.526ZM387.44 336.391C386.803 335.542 386.22 334.693 385.583 333.791C379.96 334.852 374.338 335.913 367.866 337.133C370.89 342.014 373.011 345.462 376.141 350.608C380.491 345.144 383.939 340.794 387.44 336.391ZM376.194 351.722C377.202 357.027 377.838 360.21 378.422 363.34C385.742 364.189 390.834 362.491 393.699 354.215C387.917 353.42 382.666 352.677 376.141 351.722H376.194ZM327.711 314.746C333.599 312.147 338.797 309.813 343.943 307.478C343.678 307.001 343.359 306.523 343.094 306.046H321.134C323.786 309.547 325.642 311.988 327.711 314.746ZM323.361 423.817C323.414 424.56 323.468 425.356 323.521 426.098H345.534C343.519 422.279 342.033 419.361 340.336 416.125C337.418 419.149 335.137 422.65 331.902 424.348C329.727 425.515 326.226 424.082 323.308 423.817H323.361ZM329.992 423.074C333.917 417.982 336.57 414.533 339.646 410.555C329.568 409.228 328.878 410.077 329.992 423.074ZM376.406 321.112C374.921 325.727 373.913 328.751 372.746 332.412C376.778 331.775 380.119 331.298 384.469 330.661C381.658 327.372 379.536 324.879 376.406 321.165V321.112ZM394.017 350.449C392.214 346.258 391.047 343.499 389.667 340.157C387.227 343.234 385.371 345.621 383.09 348.539C386.644 349.176 389.561 349.653 394.017 350.449ZM288.882 407.743C290.58 403.923 291.747 401.218 293.285 397.77C289.466 398.3 286.495 398.724 282.57 399.255C284.851 402.332 286.495 404.56 288.882 407.743Z" fill="white"/>
<path d="M367.548 366.523C367.548 384.135 352.536 399.043 334.819 399.149C316.2 399.255 300.871 383.764 300.977 365.091C301.083 347.796 316.466 332.836 334.236 332.783C352.536 332.73 367.601 347.955 367.548 366.523ZM335.35 341.324C320.974 341.165 309.252 351.775 309.092 365.197C308.933 378.618 320.603 390.82 333.864 391.085C347.868 391.403 359.432 379.892 359.485 365.674C359.538 352.465 348.664 341.483 335.35 341.324Z" fill="white"/>
<path d="M334.607 345.515C346.012 345.621 355.719 355.117 355.825 366.205C355.931 377.133 345.852 386.682 334.342 386.523C322.937 386.417 313.177 376.762 313.23 365.674C313.283 354.322 322.778 345.356 334.607 345.462V345.515ZM349.619 366.205C349.619 357.876 342.564 350.714 334.289 350.714C326.332 350.714 319.224 357.717 319.118 365.568C319.012 373.632 326.332 380.899 334.607 380.953C342.67 381.059 349.619 374.268 349.619 366.152V366.205Z" fill="white"/>
</svg>
