<svg width="1092" height="1085" viewBox="0 0 1092 1085" fill="none" xmlns="http://www.w3.org/2000/svg">
<path d="M1091.82 1043.97C1087.37 1044.4 1082.96 1045.09 1078.51 1045.25C1068.32 1045.62 1059.73 1042.43 1052.3 1034.95C1041.69 1024.18 1039.84 1024.18 1027.69 1032.94C1018.89 1039.3 1009.44 1042.7 998.463 1042.38C986.316 1042.01 976.874 1037.24 970.296 1027C959.422 1010.13 944.676 1000.15 923.829 1001.27C922.874 1001.27 921.919 1001.59 918.684 1002.22C937.196 1008.48 953.216 1015.06 959.051 1034.26C957.512 1034.79 956.611 1035.43 956.239 1035.17C944.835 1028.59 933.642 1030.71 921.76 1034.42C912.902 1037.24 903.248 1038.4 893.859 1038.77C878.582 1039.41 871.951 1035.86 860.122 1023.44C859.592 1023.76 859.061 1024.08 858.478 1024.4C862.88 1031.4 867.283 1038.46 871.368 1044.98C846.808 1043.55 817.474 1026.89 806.547 998.508C801.561 985.564 802.356 964.45 811.957 958.562C814.769 966.042 819.649 972.302 817.686 981.586C815.617 991.506 819.012 1001.16 824.847 1009.76C823.839 1000.79 822.832 991.983 821.877 983.23C822.991 982.912 824.158 982.54 825.272 982.222C826.598 985.14 828.56 987.952 829.197 991.029C832.008 1004.56 837.896 1016.23 848.081 1025.78C842.246 1015.38 836.729 1004.93 835.456 993.044C836.146 992.673 836.888 992.302 837.578 991.93C840.973 997.819 844.368 1003.71 847.763 1009.65C848.187 1009.44 848.664 1009.28 849.089 1009.07C848.081 1005.19 847.073 1001.27 846.065 997.394C855.083 1008.8 863.305 1020.31 877.468 1025.46C868.397 1017.66 859.857 1009.54 856.462 997.235C871.421 1013.31 888.501 1024.61 911.204 1024.72C893.752 1021.48 878.953 1013.73 868.238 998.667C885.69 1013.15 907.014 1012.51 927.913 1014.11C910.302 1007.42 888.607 1010.76 873.436 992.514C882.878 995.219 890.464 997.341 898.049 999.516C898.208 998.986 898.367 998.509 898.527 997.978C893.646 995.379 888.713 992.779 883.833 990.18C883.992 989.49 884.098 988.853 884.258 988.164C898.739 985.723 913.167 986.466 928.073 988.164C923.139 986.784 918.206 985.14 913.167 984.026C908.128 982.859 902.982 982.116 897.89 981.214C897.784 980.524 897.678 979.835 897.572 979.145C900.065 978.508 902.664 977.129 905.104 977.395C927.383 979.411 947.01 986.732 962.286 1004.29C970.349 1013.52 979.95 1021.43 989.764 1028.85C978.253 1016.55 967.06 1003.92 955.125 991.983C945.577 982.434 933.324 977.395 920.381 973.999C917.039 973.151 913.75 972.143 909.772 969.225C912.53 968.217 915.236 966.413 918.047 966.254C933.271 965.511 945.312 972.885 956.08 982.647C966.212 991.877 975.548 1001.96 985.997 1010.71C991.355 1015.22 998.145 1018.35 1004.78 1020.84C1008.54 1022.28 1013.26 1021.11 1017.72 1019.94C996.182 1022.38 985.626 1006.41 973.32 993.893C963.029 983.442 953.958 971.506 940.061 965.617C933.536 962.859 926.428 960.949 919.426 960.206C912.743 959.463 908.658 956.387 904.362 950.339C916.615 948.854 926.8 952.302 936.666 956.864C953.428 964.61 966.954 976.652 979.844 989.596C984.565 994.318 989.658 998.667 994.962 1002.65C975.866 982.912 959.104 960.047 932.263 949.809C923.192 946.36 913.008 945.777 903.354 943.708C900.383 943.071 897.519 942.01 894.601 941.161C894.707 940.1 894.814 939.092 894.92 938.031C898.633 937.713 902.346 936.864 906.006 937.13C926.587 938.721 944.092 947.846 960.536 959.57C962.34 960.896 964.196 962.169 966.053 963.389C966.371 963.602 966.901 963.442 969.235 963.548C947.116 945.246 925.261 930.551 896.405 931.506C892.267 931.665 887.652 932.886 886.751 925.671C914.652 918.615 938.363 928.588 962.021 941.798C959.422 939.888 956.929 937.872 954.277 936.068C934.013 922.275 912.053 915.114 887.228 918.827C885.318 919.092 883.25 918.032 881.446 916.281C904.733 908.27 927.012 912.037 948.919 921.427C931.998 910.657 913.538 905.777 893.487 906.785C890.252 906.944 886.91 906.997 883.886 907.952C877.096 910.127 873.649 907.156 871.368 900.949C881.34 890.658 894.177 886.36 907.597 882.965C895.98 881.957 885.478 885.565 875.452 890.923C873.489 891.984 871.739 893.628 869.67 894.265C868.132 894.742 866.275 894.106 864.525 893.947C865.161 892.514 865.374 890.445 866.487 889.703C873.595 885.14 880.863 880.897 888.077 876.6C889.244 875.91 890.623 875.432 891.843 874.849C891.472 874.053 891.1 873.204 890.729 872.408C881.446 876.758 872.004 880.737 862.986 885.618C858.743 887.952 855.825 888.589 852.696 883.443C858.212 874.159 866.541 867.952 876.513 863.496C867.124 863.761 860.069 868.801 853.173 874.371C851.635 875.644 850.521 877.66 848.824 878.35C847.285 878.987 845.004 878.722 843.519 877.926C842.83 877.554 842.67 874.477 843.413 873.523C848.399 867.475 853.651 861.639 859.114 855.485C851.105 857.66 845.27 863.072 839.7 868.854C837.525 871.135 835.403 875.008 832.114 871.4C831 870.233 831.902 865.777 833.334 863.974C837.101 859.093 841.609 854.849 846.437 849.703C837.843 852.09 832.061 857.236 827.287 863.496C823.84 867.952 820.338 868.536 814.238 864.027C820.232 857.661 825.961 851.56 831.054 846.149C825.431 846.891 819.437 850.552 811.586 859.517C808.297 863.284 805.168 864.557 799.439 860.578C805.168 855.114 810.525 849.968 815.883 844.822C815.564 844.398 815.299 843.974 814.981 843.549C808.828 847.899 802.038 851.56 796.787 856.812C791.96 861.533 787.238 862.223 780.29 860.897C783.101 849.491 790.74 841.905 798.59 834.478C798.166 834 797.688 833.576 797.264 833.098C792.119 837.767 786.549 842.011 782.04 847.21C777.531 852.408 774.136 858.509 769.044 863.496C767.347 851.772 774.402 843.974 780.661 835.751C771.166 841.268 765.278 849.385 761.777 859.57C760.716 862.7 757.958 865.194 754.775 867.316C750.585 855.167 755.518 845.724 761.883 836.706C761.193 836.281 760.504 835.91 759.814 835.486C756.207 841.586 752.706 847.74 748.993 853.788C745.492 859.57 750.16 868.377 740.506 874.318C739.021 865.459 737.801 858.138 736.581 850.817C736.316 850.711 736.05 850.658 735.785 850.552C735.096 856.599 734.353 862.647 733.769 867.634C719.5 862.86 705.178 858.032 691.333 853.364C716.53 825.141 799.28 808.218 827.977 825.459C820.232 829.544 811.904 833.947 803.576 838.35C803.895 839.093 804.213 839.783 804.531 840.525C805.115 840.631 805.857 841.056 806.335 840.844C830.629 829.597 854.446 833.205 877.786 843.708C900.808 854 920.169 869.597 938.31 886.785C939.159 887.581 939.636 888.748 940.962 890.711C925.792 888.058 912.424 890.392 898.102 897.554C901.126 898.085 902.611 898.615 903.99 898.509C954.383 895.167 990.506 934.318 1001.43 972.355C1002.81 977.129 1004.78 981.692 1006.58 986.307C1009.5 993.84 1015.54 997.235 1023.08 998.721C1027.48 999.569 1031.83 1000.58 1036.28 1001.16C1051.45 1003.23 1061.27 1012.35 1066.57 1025.83C1071.24 1037.66 1079.57 1042.06 1091.4 1041.96V1043.44L1091.82 1043.97Z" fill="white"/>
<path d="M438.999 1084.34C437.195 1068.43 424.253 1064.08 410.991 1066.73C405.899 1067.74 400.754 1068.85 395.608 1069.12C386.909 1069.54 379.589 1066.63 375.133 1058.24C374.549 1058.51 374.019 1058.77 373.436 1059.09C374.178 1062.33 374.921 1065.56 375.716 1068.85C362.72 1073.79 344.155 1060.79 338.373 1046.15C336.463 1041.32 332.167 1035.75 340.707 1031.45C341.45 1033.58 342.086 1035.27 342.776 1037.24C343.996 1034.37 345.004 1031.93 346.064 1029.44C346.595 1029.44 347.125 1029.44 347.656 1029.49V1044.45C348.08 1044.61 348.505 1044.77 348.929 1044.87C349.884 1043.28 350.892 1041.69 352.854 1038.46C354.499 1044.34 355.719 1048.91 357.522 1055.33C358.053 1051.4 358.371 1049.38 358.636 1047.42C359.379 1047.21 360.121 1047 360.864 1046.73C362.349 1050.5 363.834 1054.26 365.797 1059.36C366.062 1055.75 366.274 1053.31 366.434 1050.98C377.414 1049.17 377.573 1049.22 386.803 1058.3C385.954 1056.23 385.052 1054.95 384.999 1053.63C384.946 1051.98 385.583 1050.29 385.901 1048.59C387.333 1049.49 388.925 1050.18 390.145 1051.35C391.365 1052.51 392.107 1054.21 393.221 1055.54C393.805 1056.28 394.707 1056.81 396.298 1058.08C395.82 1056.55 395.608 1055.96 395.449 1055.43C394.6 1052.62 393.805 1049.76 392.956 1046.94C395.449 1048.27 397.942 1049.44 400.382 1050.87C401.655 1051.61 402.663 1052.73 404.467 1053.2L399.746 1045.67C400.223 1045.03 400.701 1044.34 401.178 1043.71C405.262 1046.15 409.347 1048.59 414.704 1051.77C412.53 1048.85 411.097 1046.94 409.718 1045.03C409.877 1044.72 410.09 1044.4 410.249 1044.08C413.378 1045.78 416.455 1047.47 419.585 1049.17C420.221 1048.59 420.805 1048 421.441 1047.42C418.152 1045.83 414.917 1044.29 411.628 1042.7C412.424 1041.8 413.219 1040.95 414.015 1040.05L420.911 1043.02C421.123 1042.75 421.335 1042.43 421.6 1042.17C417.091 1038.67 412.583 1035.17 408.074 1031.72C408.445 1031.13 408.817 1030.6 409.188 1030.02C411.416 1030.6 413.644 1031.19 415.871 1031.77L416.243 1030.98C411.15 1028.06 406.058 1025.19 399.958 1021.69C403.247 1019.46 405.156 1018.14 407.119 1016.86C407.013 1016.55 406.907 1016.23 406.801 1015.91C403.406 1016.81 400.064 1017.77 396.669 1018.67C396.351 1018.24 395.98 1017.82 395.661 1017.39C397.412 1015.75 399.162 1014.11 400.913 1012.46L400.488 1011.56C397.465 1013.2 394.494 1014.85 390.781 1016.86V1009.91C388.447 1012.67 386.591 1014.85 384.363 1017.45C382.825 1016.07 381.445 1014.9 378.634 1012.41C379.642 1016.07 379.536 1019.15 380.968 1020.15C385.477 1023.34 387.28 1026.68 383.143 1031.13C379.589 1035.01 371.526 1034.21 367.654 1030.02C360.546 1022.28 365.214 1007.69 376.353 1002.91C392.797 995.857 414.651 1005.14 421.759 1022.59C419.001 1022.75 416.402 1022.86 412.264 1023.07C433.748 1038.93 442.076 1059.57 440.643 1084.5H439.158L438.999 1084.34Z" fill="white"/>
<path d="M269.309 237.93C275.727 244.402 282.57 250.397 288.405 257.346C308.35 281.113 328.719 304.667 347.338 329.441C354.923 339.521 359.432 352.253 363.622 364.401C369.192 380.475 369.617 396.974 362.349 413.154C372.905 404.772 375.08 392.783 376.672 378.725C389.827 407.902 400.011 435.913 395.237 466.735C392.373 485.302 385.848 502.385 367.813 512.252C376.618 514.745 380.491 512.358 396.935 494.533C397.73 538.353 355.825 579.679 329.833 573.79C332.167 572.358 333.811 571.084 335.668 570.288C348.982 564.559 355.188 553.737 356.567 539.997C357.045 535.01 358.636 533.207 363.676 532.888C368.397 532.57 373.011 530.819 377.679 529.705C377.52 529.069 377.414 528.432 377.255 527.796C376.247 527.849 375.186 527.902 374.178 528.061C360.387 529.971 359.485 529.016 354.18 516.496C350.839 508.591 346.065 501.324 341.45 492.889C352.218 492.358 363.198 492.305 371.314 483.658C359.22 489.44 347.073 490.024 334.236 484.507C337.047 478.406 340.495 474.692 347.656 474.533C357.469 474.321 365.744 469.759 372.693 462.703C364.418 465.568 356.674 470.767 347.444 468.486C346.913 467.743 346.383 467 345.799 466.204C348.505 463.658 350.786 460.21 353.968 458.831C362.456 455.064 369.829 450.183 375.929 442.067C367.601 446.311 360.175 450.13 352.43 454.109C349.778 447.053 352.165 444.082 356.461 441.324C365.161 435.753 372.428 428.698 376.778 418.937C368.927 425.356 361.182 431.669 352.536 438.777C348.08 426.258 342.829 417.027 348.823 404.56C355.507 390.714 352.801 375.436 347.656 360.953C349.035 376.868 350.52 392.783 341.185 408.38C336.994 402.704 333.228 398.194 333.811 390.926C335.668 368.804 332.061 347.372 323.627 326.736C327.446 346.736 332.008 366.63 327.817 387.903C322.035 384.401 319.012 380.316 319.065 373.579C319.33 350.025 313.018 327.903 302.568 306.736C302.727 307.903 302.78 309.123 303.045 310.29C303.364 311.51 303.841 312.624 304.265 313.791C310.949 333.049 314.238 352.836 313.018 373.208C312.753 377.558 310.631 381.802 307.819 386.099C298.059 369.494 294.346 351.563 291.535 333.314C290.686 350.449 293.338 367.054 299.067 383.234C301.755 390.838 299.721 397.522 292.967 403.287C281.774 389.706 280.077 373.207 278.167 356.762C276.205 373.207 277.743 388.964 285.647 403.818C286.761 405.887 286.92 409.759 285.7 411.51C281.297 418.088 276.098 424.083 270.529 431.138C259.92 425.356 251.804 416.762 245.81 405.886C248.621 416.125 253.607 425.409 262.095 431.51C270.264 437.345 268.672 443.446 266.073 451.297C253.979 445.886 247.295 435.594 239.338 426.523C244.272 438.512 251.91 448.592 262.36 456.337C267.558 460.21 269.362 464.878 269.309 471.881C252.441 467.796 241.832 456.974 232.496 444.136C237.004 457.292 246.765 466.364 258.329 474.958C253.183 477.769 249.258 480.687 244.908 482.013C242.415 482.756 238.118 481.854 236.368 480.051C230.851 474.162 226.183 467.478 219.871 461.642C224.592 470.448 229.366 479.255 234.671 489.069C230.533 492.941 225.441 498.246 219.659 502.65C218.174 503.764 213.4 502.809 211.914 501.217C205.125 493.844 198.971 485.886 193.083 478.777C196.319 490.289 202.419 501.377 212.975 509.387C208.519 518.459 207.087 518.883 200.828 512.146C196.372 507.318 192.765 501.801 188.787 496.549C188.256 496.867 187.673 497.239 187.142 497.557C191.28 504.4 194.463 512.146 199.82 517.928C205.178 523.764 203.268 527 197.645 532.464C192.341 525.461 187.355 518.883 182.368 512.252C181.891 512.411 181.467 512.623 180.989 512.782C184.49 519.414 187.408 526.469 191.598 532.623C196.69 540.156 197.115 540.103 191.492 548.644C182.368 544.666 178.39 536.602 174.571 528.167C175.048 537.716 178.708 545.886 186.081 551.986C189.423 554.798 190.378 557.344 189.635 561.535C188.309 569.334 187.673 577.238 186.559 586.893C179.981 583.339 174.093 580.156 168.205 576.973C167.887 577.344 167.516 577.663 167.197 578.034C171.918 582.013 176.162 586.999 181.573 589.705C188.15 592.941 188.84 597.556 188.256 604.824C182.262 601.482 176.958 598.511 171.706 595.54C171.335 596.018 170.964 596.495 170.592 596.973C175.579 601.058 180.193 605.726 185.657 609.068C191.439 612.623 192.288 617.609 193.402 624.877C188.362 622.278 184.702 620.368 179.716 617.821C184.437 628.697 198.653 629.28 200.616 642.437C195.47 639.837 191.28 637.662 187.089 635.54C186.824 635.912 186.506 636.283 186.241 636.601C191.916 641.004 197.539 645.354 204.7 650.925C197.539 653.206 191.704 655.54 185.657 656.707C183.907 657.026 181.042 654.267 179.451 652.304C163.696 632.941 155.581 610.501 153.936 585.779C153.194 574.48 153.83 563.074 154.891 551.456C162.158 556.124 167.038 563.339 176.215 562.437C172.502 555.328 168.099 548.909 165.553 541.801C160.567 528.008 161.787 513.79 165.712 499.891C171.176 480.634 181.573 464.189 196.425 447.796C196.425 461.96 200.085 472.889 210.747 480.581C199.449 457.716 206.875 436.868 217.431 416.549C225.494 401.059 235.944 387.319 248.887 373.261C250.902 387.584 255.464 398.937 268.672 407.372C256.843 384.295 261.617 363.393 269.468 342.386C279.281 316.02 284.055 289.017 275.939 261.219C273.765 253.739 270.423 246.524 267.611 239.203C268.142 238.779 268.672 238.407 269.203 237.983L269.309 237.93Z" fill="white"/>
<path d="M674.889 740.526C688.416 732.038 703.375 732.622 718.545 734.107C705.815 729.226 692.235 727.158 679.982 732.569C667.516 738.139 657.172 735.911 644.389 729.386C650.011 721.906 655.475 714.585 660.355 708.006C654.785 709.121 648.261 714.319 641.312 725.195C638.235 730.022 634.841 731.614 627.732 729.173C632.666 720.791 637.387 712.834 641.259 706.15C635.318 708.484 629.271 715.805 623.966 727.105C622.269 730.712 618.98 733.524 615.32 738.139C611.236 726.733 615.798 719.306 619.086 711.561C613.57 714.85 607.841 724.399 607.947 732.569C608 739.783 605.242 744.346 598.08 747.847C591.98 736.017 593.413 724.293 598.24 712.41C597.55 712.198 596.861 712.038 596.171 711.826C594.261 716.442 591.768 720.951 590.601 725.778C589.487 730.5 589.646 735.486 589.328 739.571C578.454 734.744 567.633 730.181 557.024 725.142C555.539 724.399 554.318 721.64 554.159 719.784C553.788 714.638 554 709.492 553.151 703.816C551.825 708.802 550.658 713.789 549.067 718.67C548.324 720.951 546.892 724.664 545.513 724.77C527.213 726.309 514.906 735.38 509.071 753.364C508.329 752.993 507.586 752.622 506.79 752.25C508.063 746.15 508.117 739.465 510.716 734.054C524.985 704.718 549.81 690.128 581.265 685.354C582.857 685.089 584.554 685.354 588.32 685.354C577.977 693.471 568.588 700.261 569.065 713.789C597.285 679.519 632.719 682.118 669.532 692.463C680.247 695.487 690.538 699.996 700.987 704.664C688.893 707.052 677.329 709.757 669.903 718.086C680.088 717.131 691.227 714.691 702.207 715.38C723.372 716.707 741.832 726.68 758.966 738.351C789.148 758.829 815.352 784.027 841.344 809.438C842.882 810.977 843.996 812.94 845.694 815.274C835.297 811.56 825.855 807.475 816.042 804.876C789.572 797.926 764.376 804.398 739.18 812.462C727.722 816.123 715.681 818.987 703.693 819.889C694.887 820.579 685.817 817.502 676.587 816.069C683.96 826.361 694.622 831.666 709.952 832.833C702.632 838.828 697.274 844.292 690.909 848.165C676.958 856.706 663.06 865.618 648.208 872.25C633.037 879.04 616.805 879.146 601.263 871.189C609.538 881.692 620.253 886.414 633.621 885.3C612.297 909.703 556.175 936.811 519.68 904.928C518.938 914.849 525.197 920.101 532.782 926.626C527.637 927.156 524.136 927.475 520.635 927.846C489.816 931.029 461.278 924.822 435.498 907.156C423.298 898.774 422.343 891.719 432.315 878.668C437.726 885.883 443.03 892.939 448.388 900.048C448.759 899.836 449.184 899.623 449.555 899.411C446.213 893.735 442.871 888.005 438.84 881.162C452.366 883.761 454.382 897.024 464.726 904.08C461.967 898.244 460.005 894.159 457.671 889.226C465.044 889.597 470.189 891.348 473.849 897.448C476.661 902.17 480.851 906.096 485.732 909.332C483.185 904.716 480.692 900.048 477.828 894.743C484.405 892.992 488.437 893.416 491.885 899.623C495.067 905.406 500.213 910.074 505.676 914.212C502.282 908.377 498.94 902.594 495.014 895.804C505.995 894.372 515.224 892.886 524.507 892.143C526.311 891.984 528.645 894.425 530.236 896.122C536.389 902.753 543.71 906.785 552.886 907.422C545.407 902.966 537.132 899.411 533.472 890.34C539.466 886.042 544.028 885.247 550.128 890.605C555.645 895.432 563.23 898.032 570.709 900.048C563.867 895.008 557.077 889.915 549.863 884.557C555.379 878.085 559.039 877.767 564.609 882.329C570.975 887.581 578.719 891.189 585.827 895.486C586.145 894.955 586.464 894.424 586.782 893.894C580.947 889.385 574.953 885.088 569.33 880.313C566.943 878.244 563.23 875.645 567.261 871.772C570.922 868.218 573.68 869.915 576.597 873.151C583.493 880.95 592.193 885.777 601.635 888.165C594.845 882.276 587.737 876.334 580.894 870.074C577.393 866.891 577.34 863.549 581.212 859.995C585.721 855.804 589.646 850.977 593.306 847.051C601.794 851.984 609.909 856.653 617.972 861.321C618.344 860.685 618.662 860.101 619.033 859.464C591.927 840.26 597.444 841.746 607.416 823.709C614.949 835.061 624.126 844.186 636.909 849.067C625.346 839.412 613.888 829.809 610.599 813.47C616.805 812.515 620.943 814.213 625.133 818.722C632.613 826.786 640.994 834 648.95 841.587C649.534 841.003 650.117 840.42 650.754 839.836C643.805 832.25 636.909 824.664 629.112 816.176C638.182 813.311 644.336 811.719 649.958 819.359C655.21 826.52 662.371 831.931 668.206 833.576C664.758 829.491 659.666 823.496 654.679 817.396C653.3 815.698 652.398 813.576 651.178 811.507C658.127 805.937 664.705 800.42 671.601 795.274C672.715 794.425 675.473 794.584 676.852 795.38C691.864 804.399 708.255 805.778 725.282 804.08C709.262 801.534 692.606 800.95 679.663 789.279C684.968 779.942 687.832 778.881 696.956 782.383C713.347 788.59 730.374 791.03 747.826 790.818C730.162 787.157 712.18 784.717 696.32 775.539C696.214 774.743 696.054 773.895 695.948 773.099C700.086 771.773 704.223 769.544 708.467 769.226C729.366 767.741 749.63 771.401 769.362 778.192C771.855 779.04 774.349 779.836 777.001 780.102C755.305 769.545 732.655 762.595 708.255 763.072C701.942 763.179 698.017 760.685 694.834 754.107C716.105 750.977 735.944 753.948 756.154 758.351C753.396 757.343 750.638 756.335 747.879 755.433C744.803 754.425 741.779 752.993 738.596 752.675C723.054 751.03 707.459 749.916 691.97 748.059C685.976 747.317 680.141 745.035 674.253 743.444L674.783 740.632L674.889 740.526Z" fill="white"/>
<path d="M38.9881 0C42.7012 9.17766 50.2336 13.2097 58.4555 16.764C73.2551 23.13 80.4161 35.4375 81.424 50.769C82.4849 67.2675 91.1842 75.5966 106.355 79.8406C136.166 88.1695 160.249 104.774 173.775 133.209C178.973 144.137 180.459 156.922 183.111 168.965C183.96 172.837 183.27 177.081 183.27 182.652C190.378 172.944 191.757 166.153 192.288 141.167C207.618 156.445 220.72 172.519 231.116 190.715C240.346 206.842 247.879 223.924 247.348 242.81C246.977 254.747 243.741 266.577 241.885 277.664C249.576 272.359 252.281 262.28 255.729 252.306C272.757 288.062 256.843 364.932 228.199 391.032C223.69 377.186 219.075 362.863 214.301 348.168C218.969 347.69 224.645 347.054 230.374 346.417C230.374 346.099 230.321 345.781 230.268 345.462C223.372 344.295 216.529 343.075 209.633 341.908C209.368 340.9 209.103 339.945 208.891 338.937C211.437 337.664 213.824 335.595 216.476 335.33C226.926 334.11 236.05 330.449 243.582 322.651C234.405 326.311 225.653 331.563 215.097 328.805C214.248 323.712 216.105 321.325 221.038 320.264C231.382 317.929 239.179 311.669 245.226 302.969C236.739 307.213 229.843 315.277 219.288 314.057C218.757 313.314 218.28 312.518 217.749 311.775C223.107 308.062 228.783 304.773 233.716 300.582C238.755 296.285 243.105 291.139 247.136 285.622C238.596 291.404 231.594 299.468 220.614 301.59C219.022 294.746 219.818 289.76 224.91 284.932C229.843 280.211 233.344 274.004 237.429 268.487C236.898 268.009 236.368 267.479 235.837 267.001C231.594 272.465 227.35 277.876 222.735 283.871C217.219 276.868 218.545 273.792 222.364 270.025C227.509 264.985 231.753 259.044 236.368 253.527C235.891 253.155 235.413 252.731 234.936 252.359C229.313 257.293 223.743 262.174 217.908 267.319C213.665 261.908 213.24 258.354 218.492 254.588C224.91 249.972 230.162 244.137 232.23 235.861C226.82 240.635 221.887 245.357 216.476 249.495C215.15 250.503 212.339 249.548 210.217 249.495C210.747 247.373 210.588 244.508 211.967 243.341C219.712 236.657 225.122 228.646 227.828 219.734C221.356 226.471 214.407 233.686 207.724 240.635C201.199 236.922 202.207 234.11 205.39 230.874C212.551 223.765 217.59 215.49 219.341 206.1C212.975 213.898 206.398 221.962 199.979 229.813C193.508 225.993 194.409 222.864 196.531 218.726C201.358 209.336 205.602 199.627 208.572 189.336C202.631 199.203 196.637 209.017 190.696 218.885C189.423 218.301 188.15 217.718 186.877 217.134C187.673 214.641 188.097 211.882 189.423 209.707C196.319 198.407 200.085 186.312 199.926 174.8C195.789 183.819 191.333 194.376 186.081 204.508C184.861 206.789 180.671 209.389 178.443 208.964C174.093 208.116 173.192 204.19 173.881 199.522C176.746 180.689 175.207 162.28 167.516 144.668C166.561 142.493 165.447 140.371 163.643 138.408C170.327 158.938 173.298 179.416 167.144 200.211L164.068 200.476C163.803 197.983 163.06 195.437 163.378 193.049C166.826 168.434 159.135 146.896 145.502 126.949C144.919 126.047 143.911 125.411 142.638 124.933C154.095 147.108 163.59 169.442 156.695 194.853C155.74 195.171 154.785 195.543 153.777 195.861C152.716 193.262 150.594 190.609 150.701 188.063C152.08 156.975 136.591 133.527 116.964 111.83C116.858 111.724 116.54 111.83 115.532 112.042C132.294 134.217 147.04 156.975 144.441 186.153C143.699 186.63 142.956 187.108 142.213 187.585C140.887 185.622 138.341 183.607 138.447 181.644C139.667 150.928 123.011 129.018 102.96 108.806C96.7009 102.493 90.0172 96.6573 82.4848 91.6176C89.8581 99.416 97.4435 107.002 104.552 115.066C117.919 130.132 129.005 146.524 131.764 167.214C132.135 170.079 131.764 172.996 131.764 175.861C131.021 176.286 130.331 176.657 129.589 177.081C127.202 173.262 122.905 169.548 122.746 165.623C121.738 144.509 110.386 129.389 95.8522 115.808C88.0546 108.488 80.204 101.167 72.9899 93.3152C63.6009 83.1296 62.8582 79.6813 63.4948 63.448C59.8877 68.8591 58.7208 77.082 63.3888 83.7663C71.0272 94.6946 79.7265 104.933 88.7972 114.695C97.9739 124.562 108.052 133.686 112.614 146.737C114.471 152.042 115.479 157.824 115.85 163.448C116.062 166.471 114.206 169.601 111.5 172.466C108.848 164.349 106.408 156.18 103.438 148.169C99.1409 136.763 91.9268 127.533 82.591 119.628C72.8307 111.299 63.7601 102.122 53.9468 93.4214C57.3947 97.8246 60.5773 102.493 64.3435 106.631C68.3219 111.087 72.5124 115.384 77.1273 119.151C95.1095 133.899 102.483 153.739 104.87 175.967C105.188 178.832 104.074 181.856 103.65 184.774C102.96 184.774 102.324 184.774 101.634 184.774C99.4592 174.959 97.2844 165.092 95.1095 155.278C94.473 155.384 93.8365 155.543 93.1999 155.649C95.2156 169.76 97.1252 183.872 92.1921 198.567C89.2746 192.784 86.3572 187.055 83.4397 181.272C83.0153 181.432 82.591 181.537 82.1666 181.697C84.5006 190.131 86.8346 198.513 89.6459 208.593C70.3907 192.784 75.536 169.495 67.1019 151.405C70.9742 173.103 67.7384 196.657 84.6597 214.8C68.7993 203.819 60.9486 188.381 57.6068 170.185C57.6068 193.155 68.6402 210.715 85.3493 225.675C71.982 221.75 62.9113 213.261 56.2277 200.689C57.3947 211.723 60.2591 215.012 85.1902 236.02C81.424 235.171 77.6048 234.322 73.8386 233.42C73.6264 233.845 73.4673 234.216 73.2551 234.641C78.9839 237.983 84.7128 241.272 90.3886 244.614C90.0172 245.516 89.699 246.365 89.3277 247.267C83.1745 245.357 76.8091 244.03 70.9741 241.431C64.9801 238.778 59.5695 234.906 52.9919 231.033C65.7227 246.524 83.3336 251.192 100.414 257.028C90.2825 262.704 81.3709 258.513 72.2472 256.285C81.0527 263.765 91.4495 265.781 102.43 264.19C110.917 262.97 116.911 267.426 124.549 271.086C112.084 279.786 99.6183 281.112 86.7815 276.55C57.2885 265.993 42.6482 243.394 37.2376 213.686C37.0785 212.784 37.3437 211.776 37.4498 210.237C43.7622 214.641 49.7562 218.779 55.7503 222.97C56.1746 222.439 56.652 221.856 57.0764 221.325C54.3711 217.983 51.2945 214.853 49.0136 211.193C42.2769 200.689 42.436 188.965 44.2396 177.24C45.4596 169.654 47.0509 162.015 49.544 154.747C52.992 144.88 52.6737 135.755 47.2631 126.843C46.8918 126.206 46.6796 125.464 46.5205 124.774C46.4144 124.349 46.6796 123.819 46.8918 122.493C65.7758 129.124 74.5812 143.713 79.2491 163.395C84.2353 145.517 76.1726 124.827 59.4104 115.119C35.9646 101.591 35.3811 74.3763 47.9527 57.0819C48.6953 56.074 49.2788 54.9601 49.9684 53.9522C57.6069 42.7586 57.6068 40.5304 48.1648 30.9814C39.5716 22.2812 35.1689 12.6259 39.0942 0H38.9881Z" fill="white"/>
<path d="M347.497 762.648C345.534 800.791 341.609 838.616 332.803 875.804C323.255 916.069 309.145 954.424 283.312 987.474C264.588 1011.4 241.672 1029.54 211.49 1036.65C173.404 1045.56 138.924 1032.99 123.382 999.039C119.934 991.453 117.972 983.018 116.38 974.743C115.266 969.013 113.357 966.626 107.098 965.724C82.0604 962.117 61.6912 950.658 50.1805 927.263C40.208 907.051 40.7385 885.831 47.1569 864.664C58.2964 827.9 84.1822 803.497 115.797 784.346C154.785 760.739 197.91 748.59 242.574 742.649C274.348 738.458 306.493 737.397 338.426 734.691C345.746 734.054 348.186 736.866 347.603 743.975C347.072 750.129 347.497 756.388 347.497 762.595V762.648ZM314.662 805.725C314.662 794.054 314.556 784.558 314.662 775.115C314.768 769.916 312.965 767.423 307.342 767.423C260.397 767.105 213.771 769.333 168.63 783.974C136.06 794.531 106.885 810.287 86.4101 839.04C56.1745 881.587 68.4279 935.114 113.622 955.698C120.465 958.827 123.754 963.019 126.671 969.438C135.795 989.438 150.435 1003.71 172.29 1009.17C200.35 1016.17 225.547 1009.28 248.091 991.878C270.051 974.902 283.631 951.931 293.603 926.52C309.092 886.998 312.965 845.406 314.609 805.725H314.662Z" fill="white"/>
<path d="M528.433 635.434C542.436 637.026 550.658 629.917 559.464 619.678C559.039 640.686 557.13 659.307 547.794 676.177C529.493 709.28 499.364 721.481 463.294 722.595C458.573 722.755 456.769 720.739 456.557 715.964C455.92 701.269 455.761 701.375 470.455 700.102C494.802 697.98 513.792 686.84 527.425 666.415C531.085 660.951 530.607 657.079 524.613 654.638C518.513 652.145 512.148 650.182 505.889 648.007C508.116 637.98 510.557 627.211 512.944 616.442C513.262 615.01 513.58 613.471 513.527 611.986C513.209 604.029 515.277 598.83 524.454 596.655C533.419 594.533 539.625 587 541.322 578.193C543.497 567.106 543.55 555.594 544.081 544.294C544.187 542.437 542.224 539.467 540.474 538.671C527.849 533.048 499.364 539.36 490.399 549.971C487.482 553.419 486.315 558.352 483.663 562.172C481.912 564.665 479.26 567.636 476.555 568.167C462.498 570.978 448.335 573.047 433.907 575.434C432.262 570.554 430.406 564.188 427.966 558.087C425.526 552.039 421.919 550.713 415.871 554.745C394.229 569.281 382.984 589.386 382.135 615.381C381.923 622.136 378.475 625.514 371.791 625.514C369.298 625.514 366.487 626.203 364.418 625.249C362.243 624.188 359.22 621.535 359.273 619.678C360.44 580.634 376.83 542.703 420.592 528.485C433.535 524.294 451.995 522.384 459.209 524.4C450.58 536.673 446.567 546.275 447.168 553.206C453.215 539.785 462.286 530.448 474.592 526.045C485.413 522.225 497.083 519.679 508.541 518.777C524.401 517.557 540.368 518.565 556.281 518.299C562.063 518.193 564.344 520.316 564.132 526.098C563.442 547 564.344 568.007 562.169 588.697C560.206 607.052 551.083 622.596 534.108 632.198C532.676 632.994 531.191 633.789 528.38 635.328L528.433 635.434Z" fill="white"/>
<path d="M769.044 1025.94C765.543 1024.4 763.209 1023.97 761.83 1022.59C746.076 1007 727.298 1007.79 707.459 1011.51C696.585 1013.52 685.392 1014.21 674.306 1014.42C663.167 1014.64 654.679 1008.32 646.564 1001.27C650.542 1011.61 659.931 1016.39 670.116 1022.28C644.389 1033.52 619.882 1041.53 594.208 1028.8C586.782 1025.14 579.621 1018.67 575.218 1011.67C567.686 999.676 562.169 986.467 548.271 980.207C549.014 979.093 549.067 978.774 549.226 978.774C558.279 976.723 565.476 979.499 570.816 987.103C580.576 1000.95 593.413 1012.04 603.969 1015.7C580.947 994.955 574.157 986.414 571.717 975.061C576.544 972.408 580.045 972.727 583.122 978.191C591.397 992.62 603.014 1003.81 617.866 1011.61C604.87 1000.74 593.519 988.695 586.941 972.514C591.185 968.96 594.049 968.589 597.338 973.575C610.016 992.779 619.139 1001.85 629.165 1006.84C620.094 995.273 610.44 983.018 600.415 970.233C607.045 965.883 610.758 965.299 614.684 970.817C618.768 976.599 623.914 981.586 629.855 985.989C626.141 979.942 622.428 973.894 618.662 967.846C619.405 967.103 620.2 966.361 620.943 965.618C623.648 967.528 626.672 969.066 628.9 971.4C641.312 984.398 655.316 994.795 672.874 999.729C674.518 1000.21 676.216 1000.37 678.231 1000.15C660.408 993.734 645.874 983.125 633.568 967.475C641.312 966.042 647.041 967.952 652.717 971.294C670.381 981.692 688.628 990.605 709.369 993.575C692.129 987.846 675.897 980.366 662.265 968.058C687.196 967.846 708.944 977.13 729.95 988.854C709.846 972.461 686.506 963.443 660.514 959.464C669.638 951.294 684.438 952.939 718.015 964.716C706.398 955.432 693.031 950.392 678.178 949.597C672.503 949.278 666.774 950.552 661.098 950.499C659.188 950.499 657.279 948.589 655.369 947.581C656.536 946.043 657.385 943.655 658.923 943.072C671.548 938.403 684.491 936.918 698.441 940.79C692.341 936.228 683.112 934.212 671.919 935.114C667.251 935.485 662.318 935.857 658.021 937.608C651.921 940.048 649.004 937.448 645.874 932.833C643.54 929.332 643.593 926.891 647.094 924.822C653.247 921.215 659.559 917.82 665.341 912.833C657.915 915.751 650.436 918.403 643.169 921.693C639.349 923.39 636.22 924.61 633.09 918.987C636.644 915.91 640.463 912.674 644.23 909.385C644.177 909.067 644.124 908.695 644.017 908.377C640.888 909.491 637.175 909.915 634.735 911.931C626.513 918.615 620.147 913.523 613.092 909.862C636.591 887.263 672.29 897.077 694.357 918.085C686.453 919.889 677.807 921.905 669.214 923.867C669.267 924.822 669.373 925.724 669.426 926.679C691.227 917.502 706.982 928.005 721.516 942.117C744.909 964.875 760.079 992.408 768.991 1026.04L769.044 1025.94Z" fill="white"/>
<path d="M172.29 469.281C168.523 461.748 163.643 454.798 170.91 446.47C172.979 444.082 173.297 440.263 173.669 436.761C170.327 440.899 167.038 444.984 163.643 449.122C157.967 446.629 158.498 443.552 160.514 439.255C163.909 431.987 166.508 424.294 169.425 416.814C168.842 416.602 168.258 416.39 167.675 416.125C164.916 421.536 162.635 427.212 159.188 432.199C157.49 434.639 152.928 437.716 151.178 436.974C146.775 435.117 142.425 432.73 144.017 425.303C146.085 415.488 145.926 405.197 146.138 395.117C146.192 391.563 144.441 388.008 142.797 384.507C144.176 399.043 144.547 413.366 137.439 426.788C132.241 427.159 131.021 424.931 131.816 420.051C135.476 397.557 128.793 377.876 114.736 360.263C125.292 379.467 132.029 399.202 124.019 421.43C118.449 398.3 111.606 375.754 96.4885 356.762C105.93 376.496 114.259 396.549 115.691 418.565L113.622 420.104C111.659 418.088 109.06 416.39 107.84 414.003C100.997 400.581 94.4198 387 88.744 375.435C89.911 400.528 111.129 421.005 115.213 447.69C100.096 436.814 88.9031 423.234 83.3864 405.303C82.6438 405.621 81.9543 405.992 81.2117 406.311C84.2883 413.632 86.3039 421.642 90.6536 428.114C96.966 437.504 105.082 445.78 112.243 454.586C113.993 456.708 115.213 459.308 116.646 461.642C115.956 462.278 115.213 462.915 114.524 463.552C108.53 459.944 102.536 456.337 96.5416 452.676C96.2233 453.048 95.905 453.419 95.5868 453.79C100.467 458.141 104.976 462.915 110.28 466.682C115.16 470.13 116.964 473.737 113.622 480.05C95.852 473.631 83.5456 460.262 71.3453 446.682C80.0977 462.491 92.1919 475.117 107.734 484.241C112.402 487 113.569 489.864 110.386 495.116C93.5711 489.652 82.2725 477.027 70.8678 464.507C78.4002 479.573 89.7519 490.926 104.18 499.201C109.591 502.278 110.174 505.78 106.355 511.085C92.4571 505.249 81.4238 495.859 70.6027 485.408C71.3453 486.894 71.7696 488.75 72.9366 489.811C80.7342 497.398 88.1605 505.567 96.7007 512.199C106.832 520.05 107.31 519.467 102.748 533.419C101.21 531.403 100.149 529.493 98.6103 528.22C91.8206 522.543 85.6143 515.7 77.9228 511.721C55.8031 500.262 44.0803 479.36 47.2099 454.639C49.0134 440.263 52.6204 426.47 60.2589 412.411C65.8286 422.544 70.9209 431.881 81.4238 436.231C63.2294 417.982 64.6616 396.603 70.4966 374.322C74.3688 359.521 75.5889 344.56 67.1547 330.874C62.9642 324.083 56.811 318.513 50.7109 311.457C59.198 314.056 67.2078 316.126 74.8993 318.884C99.353 327.744 120.836 341.324 139.296 359.733C153.671 374.109 164.333 389.706 156.111 411.722L158.975 411.987C160.673 403.711 162.423 395.436 164.068 387.584C182.209 406.258 196.902 443.499 172.29 469.175V469.281Z" fill="white"/>
<path d="M220.242 645.089C215.733 648.803 213.612 646.362 211.596 643.02C203.374 629.333 198.865 614.373 197.274 598.617C192.394 551.084 210.747 514.586 250.637 489.016C283.259 468.114 326.756 480.05 344.155 514.055C349.459 524.4 349.725 535.169 346.913 546.045C344.208 556.389 334.235 563.551 323.839 563.498C316.678 541.641 298.006 535.859 278.591 549.387C257.267 564.241 248.303 592.251 259.071 613.684C262.731 620.951 269.096 626.84 274.772 634.055C271.006 634.797 266.975 636.124 262.943 636.124C260.45 636.124 257.002 634.903 255.517 633.047C223.425 592.729 242.627 550.182 272.597 530.925C277.318 527.901 282.994 526.045 288.458 524.772C293.603 523.551 299.12 523.87 304.318 523.074C283.843 519.573 267.399 527.742 254.35 542.596C227.668 572.888 228.252 604.93 250.743 637.45C246.34 640.527 243.37 641.482 239.869 637.185C210.641 601.641 221.409 540.209 260.981 517.504C272.969 510.607 286.071 508.273 301.242 509.228C282.57 503.445 256.1 512.092 241.142 530.182C212.126 565.302 210.853 602.755 234.883 641.322C230.215 645.036 227.138 643.763 224.327 639.36C186.877 579.997 217.537 520.368 260.079 501.111C265.436 498.671 271.112 497.026 277.159 494.798C253.766 495.276 220.985 518.989 208.413 554.426C197.009 586.469 203.851 616.601 220.348 645.089H220.242Z" fill="white"/>
<path d="M554.053 807.953C546.574 815.433 539.943 824.08 531.509 830.234C506.684 848.324 477.881 847.687 452.95 829.756C444.675 823.815 443.508 817.396 449.555 806.945C451.464 809.12 453.109 811.082 454.806 812.992C467.378 827.104 486.898 831.454 506.101 824.504C525.939 817.29 538.935 801.321 539.36 783.603C539.731 767.953 533.949 761.162 518.778 759.359C517.664 749.704 524.56 739.306 534.214 735.964C554.265 729.067 576.014 736.919 590.548 756.388C606.674 777.926 607.788 809.65 592.564 832.992C555.432 889.968 490.718 898.032 440.484 871.241C437.036 869.385 432.899 867.74 436.771 861.852C477.722 885.247 518.142 887.262 556.652 857.448C577.764 841.109 589.434 819.252 588.798 791.772C588.32 794.69 587.896 797.608 587.365 800.526C586.835 803.709 586.517 806.945 585.668 810.075C575.006 848.96 532.305 877.979 492.203 874.318C474.433 872.674 458.254 867.05 443.083 858.085C438.628 855.432 437.195 852.408 440.856 847.475C480.268 871.56 518.513 870.233 553.576 839.57C572.354 823.125 578.242 801.215 572.884 776.6C572.884 783.656 573.627 790.818 572.778 797.714C568.216 833.629 536.336 854.372 505.146 858.403C484.14 861.109 464.673 856.334 447.115 843.921C442.288 840.525 440.802 837.236 444.94 831.56C448.441 833.629 451.942 835.857 455.549 837.926C488.702 856.812 529.122 847.422 550.552 815.804C552.144 813.47 552.833 810.499 553.947 807.793C561.586 798.987 560.047 788.589 559.835 779.252C557.979 788.271 556.016 798.085 554 807.9L554.053 807.953Z" fill="white"/>
<path d="M345.216 683.55C342.617 677.609 340.654 672.038 337.842 666.893C335.562 662.755 331.848 661.853 326.968 663.391C303.841 670.712 288.193 693.842 288.299 720.632C288.299 724.505 291.11 729.969 283.366 730.659C276.311 731.295 272.969 728.749 271.749 721.64C268.672 703.232 273.711 687.105 284.639 672.622C303.947 647.052 330.469 635.434 361.766 633.153C363.516 633.047 365.267 633.206 366.964 633.312C367.654 633.312 368.29 633.577 370.73 634.161C352.589 641.11 358.53 656.972 356.62 669.757C357.893 666.256 359.644 662.808 360.281 659.2C362.933 643.975 371.367 634.85 386.856 633.471C406.429 631.773 426.056 631.296 445.683 630.129C450.51 629.864 452.472 631.614 452.207 636.548C451.04 655.911 450.351 675.327 448.865 694.638C447.751 708.59 438.203 720.792 422.82 721.693C419.691 721.853 416.667 723.815 413.856 725.46C431.573 723.904 443.349 719.536 449.184 712.357C448.653 736.017 443.561 757.237 430.194 776.123C418.258 792.94 403.3 805.778 382.665 809.65C374.337 811.189 365.426 810.022 356.833 809.279C349.353 808.642 351.263 802.436 351.21 797.714C351.21 792.038 355.453 793.258 358.742 793.417C382.559 794.425 401.549 786.043 414.174 765.247C422.661 751.295 423.404 743.55 401.496 739.094C400.541 738.881 399.64 738.669 399.003 738.51C401.072 727.794 402.929 717.343 405.156 706.945C405.422 705.672 407.331 704.293 408.763 703.762C427.807 696.548 434.915 687.158 433.748 667.529C432.528 646.893 433.429 649.757 414.598 648.59C401.125 647.794 386.697 650.606 382.082 664.505C377.997 676.866 370.306 678.033 360.493 679.412C355.188 680.155 350.043 682.171 345.216 683.497V683.55Z" fill="white"/>
<path d="M174.199 656.654C165.447 659.041 157.915 661.429 150.223 663.02C148.526 663.391 145.714 661.429 144.388 659.731C117.388 625.567 105.188 586.893 111.076 543.392C113.357 526.416 116.964 509.599 120.783 492.888C125.027 474.215 126.459 455.594 123.17 436.655C122.958 435.488 123.17 434.268 123.17 431.987C135.371 435.382 145.714 441.271 152.557 451.032C158.021 458.777 162.317 467.902 164.651 477.027C166.137 482.862 163.962 490.236 161.787 496.284C148.154 534.108 141.948 572.463 153.618 611.827C157.49 624.771 164.386 636.813 170.009 649.227C171.017 651.455 172.449 653.471 174.305 656.654H174.199Z" fill="white"/>
<path d="M650.33 959.411C643.805 958.668 638.925 958.032 634.045 957.501C614.896 955.591 596.489 959.676 578.03 964.132C555.751 969.49 533.26 973.257 510.079 972.249C476.926 970.817 448.547 957.501 422.608 938.032C420.858 936.705 419.213 933.363 419.585 931.294C420.911 923.761 423.139 916.44 425.207 908.377C427.382 909.332 429.186 909.968 430.777 910.923C473.743 937.979 519.574 939.995 567.155 926.361C572.884 924.716 578.931 923.549 584.13 920.843C598.823 913.257 612.244 917.13 625.027 924.928C637.546 932.568 645.556 943.867 650.33 959.411Z" fill="white"/>
<path d="M467.431 973.045C471.887 974.106 475.441 975.167 479.101 975.751C483.875 976.493 486.368 978.774 487.323 983.761C489.286 994.265 494.696 1002.97 503.13 1009.81C498.94 1000.31 491.779 991.772 493.211 980.366C498.356 978.35 500.107 981.427 501.751 985.087C508.01 999.305 517.983 1010.6 529.706 1020.52C530.554 1021.21 531.509 1021.8 532.941 1021.96C522.279 1010.13 511.936 998.191 507.374 982.382C512.148 979.623 514.057 982.223 516.657 985.353C526.947 997.766 537.556 1009.86 548.218 1021.9C549.916 1023.81 552.462 1025.03 555.008 1026.15C541.588 1013.26 529.706 999.411 521.484 980.578C535.912 982.01 541.057 993.575 550.658 999.464C546.468 993.363 542.277 987.262 538.087 981.215C538.458 980.525 538.882 979.888 539.254 979.199C541.694 980.047 544.505 980.313 546.468 981.798C556.175 988.96 563.018 998.031 565.14 1010.39C567.474 1024.03 575.218 1033.95 588.745 1041.11C585.562 1041.43 583.546 1041.74 581.584 1041.8C561.904 1042.22 542.277 1042.06 523.181 1036.23C501.963 1029.76 485.625 1018.3 480.215 994.424C476.024 1006.73 479.791 1015.38 498.568 1037.71C482.284 1037.71 467.431 1033.52 453.003 1027.37C431.201 1018.03 412.211 1004.72 396.139 987.209C392.85 983.655 392.585 980.949 395.502 976.917C400.966 969.384 405.793 961.374 411.044 953.257C412.795 963.018 414.439 972.355 416.137 981.692C416.614 981.586 417.092 981.533 417.569 981.48V946.467C424.359 948.642 426.534 951.825 426.64 958.244C426.799 969.225 428.549 980.207 429.61 991.188L432.209 990.976V956.918C443.879 960.154 444.357 961.003 443.72 971.666C443.03 983.761 445.311 995.22 451.518 1005.83C448.706 992.939 446.001 980.154 450.616 967.156C459.474 967.634 460.747 969.119 460.376 977.024C459.846 988.323 461.755 999.198 468.121 1009.01C466.158 997.236 463.028 985.565 467.484 972.992L467.431 973.045Z" fill="white"/>
<path d="M43.6028 582.543C56.5988 593.949 67.7912 605.673 86.0387 602.118C82.0072 600.474 77.8698 599.095 73.9444 597.185C63.4416 592.039 56.4396 583.339 51.2413 573.206C41.5871 554.48 36.9722 517.398 41.534 493.79C49.1195 510.077 62.6989 515.647 78.0819 518.936C88.3196 521.164 95.2685 528.644 100.997 536.973C102.217 538.724 102.164 541.376 101.209 544.612C95.1624 540.368 89.1153 536.177 83.0682 531.933C89.0622 541.217 99.3529 547.052 100.785 559.36C84.5534 553.578 71.8757 542.862 59.9406 531.085C59.5162 531.509 59.0919 531.933 58.6676 532.358C63.9721 538.034 68.8522 544.241 74.7402 549.281C81.689 555.275 89.5927 560.103 96.7537 565.832C98.9286 567.583 100.202 570.448 100.944 573.684C85.243 571.031 74.2627 561.164 62.5928 552.252C71.2922 565.09 83.2273 574.002 97.072 580.421C100.838 582.172 103.862 583.71 101.793 589.28C88.5318 590.076 78.7716 582.331 68.5339 575.541C76.3315 584.984 85.8265 591.986 97.9207 595.116C103.49 596.548 110.598 608.378 108.264 613.418C107.522 615.01 104.286 616.442 102.323 616.389C91.7675 615.911 81.2647 614.85 71.0801 614.055C81.0525 620.049 92.7223 622.543 104.817 621.853C112.084 621.429 114.842 624.24 115.638 631.349C103.119 636.124 90.5475 633.683 77.9759 631.349C87.8953 638.299 99.3529 638.511 110.598 638.405C121.154 638.299 121.154 637.927 125.504 649.386C113.198 652.728 101.103 651.084 88.2135 648.856C95.7459 654.002 106.037 656.017 124.39 655.593C130.384 655.434 133.726 657.609 135.529 664.559H102.323C102.27 665.248 102.164 665.938 102.111 666.628C110.97 668.166 119.775 669.704 128.793 671.243C120.04 676.972 111.553 682.914 102.642 688.06C100.997 689.015 96.8599 687.529 95.0563 685.832C65.3512 658.193 47.316 624.612 43.6559 582.49L43.6028 582.543Z" fill="white"/>
<path d="M747.614 880.791C768.885 869.862 790.633 867.847 813.018 874.319C841.609 882.541 863.039 899.411 876.831 926.52C883.462 939.623 893.275 951.188 902.027 964.079C892.426 981.002 858.849 992.886 841.556 984.291C832.22 979.623 824.9 969.65 823.415 959.464C841.344 948.27 842.829 933.416 827.658 917.82C815.511 905.353 796.521 901.905 780.926 910.446C775.197 913.576 772.863 912.037 769.521 907.687C762.732 898.828 755.464 890.393 747.614 880.844V880.791Z" fill="white"/>
<path d="M119.51 179.097C121.897 181.378 124.125 184.084 126.936 185.994C139.031 194.164 150.86 202.864 163.59 209.919C202.79 231.617 222.523 287.373 204.647 327.797C203.639 330.025 202.472 332.147 201.199 334.693C190.378 325.569 180.034 316.868 170.592 308.911C172.555 298.991 175.685 289.707 175.897 280.317C176.321 263.818 162.211 247.956 146.139 244.773C137.015 242.969 129.164 246.206 125.822 254.481C123.648 259.946 120.889 259.627 116.699 257.824C98.7164 250.184 90.6537 233.261 96.1173 214.535C99.4591 203.023 110.545 186.047 119.457 179.15L119.51 179.097Z" fill="white"/>
<path d="M243.529 1032.78C251.539 1026.78 259.389 1020.79 267.452 1015.17C268.99 1014.11 271.802 1014.05 273.817 1014.58C293.02 1019.57 309.676 1014.05 324.847 1002.49C338.479 992.143 348.982 978.986 358 964.504C360.705 960.154 359.326 957.819 355.506 955.538C345.587 949.65 334.872 948.96 323.786 950.286C321.399 950.604 319.012 950.923 315.511 951.347C317.632 941.215 324.316 936.387 332.061 934C340.283 931.507 349.194 929.172 357.575 929.809C379.589 931.453 399.534 929.385 413.803 909.066C413.962 928.748 408.976 946.414 397.889 962.063C386.485 978.138 369.616 985.512 350.467 988.642C350.52 989.596 350.573 990.551 350.626 991.559C357.893 992.514 365.161 993.469 372.216 994.424C358.265 1027.63 278.751 1051.88 243.582 1032.78H243.529Z" fill="white"/>
<path d="M87.3119 710.288C88.3728 717.184 89.4337 724.452 90.5476 731.667L93.4651 731.826C96.5417 712.728 103.756 695.911 119.987 684.558C135.636 673.63 153.247 668.219 172.131 667.423C172.608 668.007 173.085 668.59 173.563 669.227C170.539 671.879 167.25 674.373 164.492 677.291C156.164 685.885 151.974 696.017 152.133 708.219C152.239 719.624 152.133 731.189 150.382 742.383C149.321 748.908 145.29 755.221 141.524 760.898C139.614 763.762 135.37 765.088 130.49 768.112C133.885 750.394 134.044 735.327 123.223 722.383C98.3983 733.046 66.7835 762.701 65.9348 791.985C65.8818 794.213 65.3513 796.706 66.0939 798.669C70.2314 809.651 66.3592 818.138 58.7207 826.043C55.3258 829.544 52.9919 834.054 50.1275 838.138C27.4773 811.932 52.0901 729.81 87.3649 710.288H87.3119Z" fill="white"/>
<path d="M227.881 673.895C242.627 644.824 268.99 640.898 298.748 641.004C292.967 646.097 287.98 650.076 283.419 654.479C272.81 664.771 266.922 677.184 266.656 692.304C266.444 704.028 265.33 715.54 257.957 725.672C253.077 732.41 247.348 735.752 238.33 734.532C240.134 730.659 241.991 727.052 243.582 723.285C248.25 712.038 247.507 700.367 245.598 688.749C245.067 685.46 244.006 681.588 238.914 682.596C214.885 687.423 190.643 700.102 182.156 726.468C181.148 729.545 180.512 732.728 179.981 735.911C177.753 748.802 175.95 750.394 161.734 751.561C145.714 712.569 192.659 648.272 235.572 650.235C232.389 657.768 229.154 665.407 225.918 672.994C226.555 673.259 227.191 673.577 227.828 673.842L227.881 673.895Z" fill="white"/>
<path d="M408.976 856.494C416.561 853.258 424.147 849.969 431.626 846.786C435.763 888.059 377.679 930.658 329.568 920.578C331.053 915.857 332.114 911.082 334.129 906.732C334.925 905.035 337.843 903.602 339.911 903.443C370.041 901.056 391.948 879.889 399.056 845.3C400.329 839.093 397.783 837.396 392.585 836.335C377.361 833.311 362.933 835.061 348.982 843.496C346.86 837.555 347.179 832.409 351.687 828.377C358.636 822.117 366.434 817.343 376.141 816.759C380.119 816.494 384.045 815.91 388.023 815.857C406.43 815.592 421.07 807.847 432.581 793.736C434.702 791.136 437.036 788.696 439.636 785.831C443.084 810.393 436.559 840.526 408.339 854.584C408.551 855.273 408.764 855.91 408.923 856.6L408.976 856.494Z" fill="white"/>
<path d="M315.246 729.863C317.527 718.723 322.301 709.863 329.356 702.383C347.126 683.55 369.988 681.057 394.07 683.126C395.715 683.285 398.314 685.46 398.526 686.946C402.876 716.389 395.555 751.348 360.068 764.982C358.053 765.778 355.878 766.096 352.536 766.945C352.536 759.094 352.536 751.985 352.536 744.93C352.43 728.378 354.87 729.545 337.631 729.81C330.469 729.916 323.361 729.81 315.299 729.81L315.246 729.863Z" fill="white"/>
<path d="M31.7209 716.123H23.0215C27.7956 718.405 31.5087 720.208 35.2749 721.959C35.1157 722.489 34.9035 723.073 34.7444 723.603C32.4104 723.815 30.0234 724.028 27.6894 724.24C27.5833 724.558 27.5303 724.823 27.4242 725.142C32.0922 726.362 36.8132 727.582 41.4811 728.802C41.4811 729.333 41.4811 729.863 41.4811 730.394C39.4123 731.19 37.3436 731.932 35.2749 732.728C35.2749 733.152 35.2749 733.577 35.2749 734.001H52.6736C52.7796 734.638 52.9387 735.274 53.0448 735.858C50.7109 737.025 48.43 738.192 45.2473 739.73C47.3691 740.367 48.9604 740.792 52.8857 741.959C48.8543 744.081 46.4673 746.468 44.2394 746.309C26.3633 744.983 10.2377 724.293 12.8369 706.415C16.2848 707.264 19.7857 708.166 23.2337 709.014C23.605 708.537 23.9763 708.059 24.3476 707.582C10.7151 698.988 11.776 686.68 15.0117 673.895C19.2553 657.025 15.5421 649.439 0 642.172C24.2415 640.898 44.1863 649.015 58.9328 670.341C59.3041 668.431 59.7285 667.211 59.7285 665.938C59.7285 664.506 59.4633 663.073 59.2511 660.633C72.3532 665.46 78.2412 675.169 81.1056 687.264C83.7048 698.139 79.7795 709.28 71.9819 714.638C65.2982 719.2 57.7128 719.253 52.6205 714.903C47.8465 710.818 48.0587 705.619 50.1274 700.632C51.8779 696.335 57.1823 696.017 60.6833 699.306C62.5929 701.11 64.7678 702.595 67.8974 703.603C64.5025 699.678 63.0173 696.601 69.0114 694.638C62.699 689.333 71.2393 686.309 70.1784 681.269C68.4279 683.179 66.8896 684.877 65.3513 686.628C64.9269 686.468 64.5025 686.309 64.0782 686.097C64.9799 681.747 65.8817 677.344 66.7835 672.994C66.3591 672.834 65.9347 672.675 65.5634 672.516C64.5025 675.381 63.4417 678.245 62.3808 681.11C61.6912 681.269 61.0016 681.429 60.312 681.588C57.6067 676.866 54.9545 672.198 51.1883 665.62C51.5066 669.439 51.6657 671.19 51.8248 672.941C51.3474 673.259 50.817 673.577 50.3396 673.895C47.5282 670.235 44.7168 666.575 40.4732 661.057C41.4811 664.877 41.9585 666.681 42.8602 670.341C38.8819 666.575 36.0174 663.816 33.153 661.11C32.8878 661.27 32.6226 661.429 32.3574 661.641C34.3731 665.195 36.4418 668.696 38.6697 672.516C36.8662 672.887 35.8583 673.153 35.0096 673.312C36.2827 676.177 37.4497 678.935 38.6167 681.641C38.1393 682.012 37.6619 682.383 37.1845 682.755C34.6383 681.216 32.0391 679.731 29.493 678.192C29.3339 678.405 29.1747 678.617 29.0155 678.829C31.6147 681.641 34.267 684.452 38.0332 688.484C33.9488 689.121 31.2965 689.492 29.0686 689.863C30.4478 691.932 32.0922 694.266 33.6835 696.654C31.5087 697.184 29.3339 697.715 26.8408 698.298C35.4871 702.012 31.9861 709.28 31.9861 716.123H31.7209Z" fill="white"/>
<path d="M457.512 670.871C457.512 664.505 457.034 659.519 457.777 654.691C458.042 652.835 460.96 650.5 463.029 649.97C479.525 645.779 487.27 637.185 488.437 620.315C488.967 613.153 488.596 605.885 488.755 598.67C488.861 594.586 487.111 592.623 482.973 592.888C473.797 593.471 464.567 593.365 455.496 594.745C442.765 596.655 435.71 605.143 432.422 617.291C431.732 619.837 430.194 623.763 428.39 624.134C423.669 625.089 418.577 624.718 413.697 624.134C413.166 624.081 412.424 619.148 413.06 616.867C418.259 598.723 429.716 585.62 448.123 581.588C465.044 577.875 482.602 577.185 499.842 575.222C503.237 574.851 506.578 575.222 506.472 579.997C506.154 601.429 506.207 623.02 497.136 643.02C489.763 659.2 475.971 667.211 457.406 670.765L457.512 670.871Z" fill="white"/>
<path d="M29.4399 1020.42C27.5833 1002.65 33.6305 999.251 48.6422 996.493C53.5753 995.591 56.9171 997.554 57.2354 1003.07C57.2354 1003.81 57.5006 1004.56 57.6067 1005.3C60.365 1020.95 61.479 1022.01 77.1802 1024.5C85.243 1025.78 86.5692 1027.69 85.2961 1035.96C83.4926 1047.79 77.7638 1052.88 65.8817 1052.46C56.9702 1052.14 48.0587 1051.35 39.0941 1050.71C34.1609 1050.34 31.5087 1047.95 31.2435 1042.65C30.8722 1035.22 30.0234 1027.79 29.3869 1020.37L29.4399 1020.42Z" fill="white"/>
<path d="M86.7814 1019.3C67.9504 1018.93 64.3434 1016.07 63.6008 997.395C63.3356 990.976 64.8739 983.973 67.5792 978.138C72.2471 968.111 79.1429 965.989 89.858 969.066C93.6772 970.127 97.6025 971.453 101.475 971.453C108.53 971.507 110.864 975.008 110.97 981.48C111.023 984.663 111.819 987.899 112.72 990.976C116.486 1003.81 112.031 1012.73 99.0348 1016.97C95.1095 1018.24 90.8128 1018.56 86.6753 1019.36L86.7814 1019.3Z" fill="white"/>
<path d="M275.992 1010.13C287.928 992.832 297.529 976.122 310.1 962.01C314.874 956.599 326.332 955.963 334.872 955.485C340.442 955.167 346.33 958.881 352.059 960.843C349.46 965.724 347.497 971.135 344.102 975.432C331.477 991.347 317.633 1006.09 296.362 1010.02C289.837 1011.19 282.941 1010.18 275.992 1010.18V1010.13Z" fill="white"/>
<path d="M121.685 729.173C129.111 742.86 127.944 756.282 123.382 769.81C123.011 770.871 121.95 771.826 120.942 772.515C105.135 783.444 89.2215 794.372 73.5202 805.141C62.0095 780.473 90.5476 744.558 121.685 729.173Z" fill="white"/>
<path d="M184.49 745.407C185.71 724.823 193.455 709.174 210.27 699.147C217.431 694.85 225.653 692.41 233.503 689.333C237.959 687.582 241.142 689.014 240.93 694.054C240.664 702.648 240.93 711.508 238.861 719.784C236.05 731.136 228.835 738.404 215.786 739.412C205.761 740.208 195.895 743.179 184.49 745.46V745.407Z" fill="white"/>
<path d="M336.994 897.13C339.805 882.913 341.45 869.279 345.481 856.335C348.452 846.839 358.318 843.497 367.389 841.746C374.072 840.42 381.18 840.791 388.076 841.268C389.933 841.374 393.168 844.717 393.115 846.467C392.054 870.393 366.062 896.281 342.458 897.395C341.025 897.448 339.593 897.236 336.994 897.13Z" fill="white"/>
<path d="M602.854 760.95C603.332 759.04 603.226 756.707 604.34 755.274C615.32 741.269 634.045 735.062 650.595 741.534C662.742 746.256 674.041 753.258 685.604 759.465C687.885 760.685 689.53 763.019 692.129 765.46C678.656 777.131 666.19 788.908 652.664 799.306C642.214 807.369 629.483 807.475 616.858 804.664C612.668 803.709 610.652 801.64 612.986 796.759C614.471 796.812 616.169 796.759 617.813 797.025C638.554 799.995 656.218 790.34 664.174 771.136C664.97 769.173 663.909 765.247 662.265 763.656C647.89 749.757 625.876 745.035 609.538 758.775C608.212 759.889 606.621 760.632 605.188 761.534C604.393 761.322 603.65 761.11 602.854 760.897V760.95Z" fill="white"/>
<path d="M317.208 390.184C330.575 405.144 340.124 421.536 342.776 441.112C344.791 456.231 337.683 468.114 326.968 477.981C325.695 479.149 323.043 478.83 321.08 479.201C320.815 478.618 320.55 477.981 320.285 477.398C321.982 475.117 323.839 472.889 325.43 470.448C335.88 454.374 332.432 431.085 317.526 418.937C315.988 417.716 312.275 417.557 310.418 418.512C292.914 427.69 281.933 441.324 285.01 463.021C285.275 464.931 285.275 467 284.851 468.857C284.692 469.493 282.305 470.395 281.827 470.024C280.236 468.751 278.326 467.159 277.796 465.302C273.499 450.077 276.788 436.284 286.336 423.87C286.92 423.075 287.609 422.332 288.299 421.642C297.688 411.404 307.077 401.165 317.208 390.077V390.184Z" fill="white"/>
<path d="M489.232 567C489.657 555.541 495.863 549.016 504.775 546.522C513.686 544.082 523.234 543.923 532.57 543.074C537.132 542.65 539.095 545.09 539.148 549.864C539.254 561.058 539.784 572.358 533.472 582.331C529.546 588.538 524.507 593.366 515.33 592.464C515.33 586.31 515.012 580.633 515.437 575.01C515.861 568.697 513.156 566.628 507.162 566.894C501.327 567.212 495.439 566.947 489.232 566.947V567Z" fill="white"/>
<path d="M289.094 455.912C289.306 440.846 297.369 430.82 309.994 424.03C311.691 423.128 315.511 423.817 316.996 425.197C329.939 437.292 330.628 458.99 318.322 471.722C316.572 473.525 312.858 473.897 310.047 474.003C307.395 474.056 304.743 472.835 302.09 472.252C290.049 469.652 289.253 468.644 289.147 455.912H289.094Z" fill="white"/>
<path d="M626.088 793.099C613.729 792.94 612.827 792.303 610.228 779.942C609.273 775.274 606.833 768.219 608.902 766.15C613.729 761.375 620.571 757.555 627.255 755.911C638.713 753.046 648.738 758.298 657.332 765.566C658.658 766.68 659.082 770.818 658.127 772.516C651.072 784.876 641.312 793.364 626.088 793.099Z" fill="white"/>
<path d="M193.561 438.565C192.076 430.502 190.378 422.969 189.37 415.382C189.052 412.942 189.901 410.024 191.121 407.796C196.69 397.558 198.971 386.947 196.266 375.436C195.842 373.632 195.842 371.351 196.478 369.653C199.077 363.075 201.995 356.656 204.594 350.608C224.91 373.632 221.462 416.868 193.508 438.565H193.561Z" fill="white"/>
<path d="M644.07 888.907C661.257 864.611 702.526 854.478 732.337 877.502C725.918 880.154 719.288 883.072 712.551 885.671C711.066 886.255 709.209 885.99 707.565 885.724C695.895 883.868 684.809 884.823 674.412 891.135C672.608 892.25 670.115 893.151 668.153 892.886C660.143 891.825 652.133 890.287 644.123 888.907H644.07Z" fill="white"/>
<path d="M362.402 788.218C351.793 788.324 350.149 786.945 351.846 777.768C352.271 775.54 354.87 772.675 357.098 771.932C369.882 767.635 380.597 760.526 389.826 750.606C392.426 747.794 396.828 745.513 400.648 745.142C411.999 744.081 416.137 750.5 410.832 760.42C400.542 779.677 383.779 788.006 362.455 788.218H362.402Z" fill="white"/>
<path d="M292.489 719.306C294.399 697.98 302.833 682.118 320.974 672.039C324.687 669.97 328.719 665.513 333.599 670.023C337.63 673.789 338.691 683.179 335.668 688.113C334.395 690.182 332.22 691.667 330.788 693.63C324.316 702.86 317.261 711.773 311.904 721.587C307.713 729.226 305.485 732.516 298.483 729.757C295.566 728.59 294.452 722.86 292.542 719.2L292.489 719.306Z" fill="white"/>
<path d="M458.148 644.24C458.148 639.306 457.989 634.903 458.148 630.447C458.36 626.044 456.557 623.922 452.101 624.134C450.881 624.187 449.608 624.134 448.388 624.134C436.506 624.293 434.331 621.11 440.856 611.084C443.508 606.999 448.017 602.702 452.472 601.588C461.013 599.466 470.083 599.254 478.995 598.935C480.48 598.882 483.451 602.225 483.451 603.975C483.345 611.88 483.185 619.943 481.594 627.688C479.419 638.458 470.189 644.718 458.148 644.24Z" fill="white"/>
<path d="M387.227 615.753C388.341 593.206 396.616 574.851 414.917 561.801C420.805 557.61 422.98 558.193 425.154 564.931C427.913 573.525 427.648 580.686 420.486 588.538C413.272 596.442 408.392 607.053 404.573 617.291C402.027 624.188 398.897 626.15 392.373 625.514C385.053 624.771 388.023 619.148 387.174 615.806L387.227 615.753Z" fill="white"/>
<path d="M523.659 661.163C512.36 684.77 485.997 696.441 461.49 694.426C459.899 694.319 457.353 691.561 457.247 689.916C456.981 686.044 455.125 680.739 461.066 679.306C475.759 675.805 488.278 669.015 498.621 657.715C503.236 652.622 515.49 654.797 523.659 661.163Z" fill="white"/>
<path d="M384.151 676.389C384.681 664.824 390.994 659.201 399.958 655.805C402.451 654.851 405.263 654.426 407.915 654.161C423.192 652.729 426.958 654.161 428.072 661.482C430.777 679.094 423.616 694.585 411.681 697.343C407.544 698.298 404.785 697.821 404.891 692.728C404.891 690.977 404.626 689.28 404.626 687.529C404.785 680.845 401.868 677.45 394.919 677.556C391.524 677.556 388.129 676.866 384.151 676.389Z" fill="white"/>
<path d="M88.3198 1052.88C89.8581 1043.65 91.0782 1035.91 92.5634 1028.27C92.7756 1027.05 93.9956 1025.72 95.1626 1025.09C103.65 1020.47 112.19 1016.07 121.101 1011.35C123.913 1017.29 133.62 1023.6 127.255 1033.36C123.542 1039.04 117.601 1044.08 111.5 1047C104.605 1050.34 96.3826 1050.98 88.3198 1052.88Z" fill="white"/>
<path d="M774.083 938.562C762.838 926.626 745.863 922.01 736.74 906.944C732.549 900.048 724.805 895.273 716.848 887.846C723.425 887.475 728.889 886.149 733.981 887.05C748.25 889.597 757.745 899.252 764.694 911.135C769.468 919.305 772.757 928.376 776.682 937.023C775.834 937.554 774.932 938.085 774.083 938.615V938.562Z" fill="white"/>
<path d="M143.115 307.001C177.541 312.465 204.541 341.537 193.614 362.757C183.005 353.314 172.131 343.818 161.469 334.057C159.612 332.306 159.029 329.229 157.49 327.054C152.875 320.423 148.101 313.951 143.062 307.001H143.115Z" fill="white"/>
<path d="M70.815 961.267C66.1471 970.021 61.7444 978.403 57.0764 986.625C56.2807 988.058 54.3711 989.437 52.7267 989.755C45.7778 991.081 38.7229 991.983 30.7131 993.15C30.7131 980.047 33.3123 967.421 43.603 958.031C52.3023 950.074 60.0469 951.771 70.762 961.267H70.815Z" fill="white"/>
<path d="M737.323 920.048C731.541 922.011 725.759 924.079 719.871 925.83C718.704 926.201 716.848 925.777 715.84 924.981C703.852 915.485 691.97 905.883 680.194 896.44C696.266 883.178 725.653 895.326 737.27 920.048H737.323Z" fill="white"/>
<path d="M186.081 402.279C176.533 390.396 167.091 378.778 157.755 367.001C156.96 365.993 156.323 364.189 156.642 362.969C158.18 356.815 160.089 350.82 161.84 344.667C181.307 353.261 200.244 380.263 186.081 402.226V402.279Z" fill="white"/>
<path d="M62.3277 725.142C56.9172 733.577 45.1943 732.781 39.5185 722.755C36.3358 717.184 35.0627 709.492 35.7523 703.02C36.7602 693.524 40.3142 684.293 42.7543 674.903C52.8858 676.23 59.9408 682.542 60.9486 691.402C48.6422 691.243 43.9212 694.426 42.9134 703.656C41.6934 714.956 47.5283 721.534 62.2747 725.089L62.3277 725.142Z" fill="white"/>
<path d="M390.304 1021C399.003 1021.74 404.679 1027.63 407.968 1039.89C396.192 1042.28 384.575 1045.56 372.693 1046.84C362.508 1047.95 354.127 1040.68 351.21 1030.82C349.406 1024.72 349.99 1023.55 355.241 1021.06C359.379 1026.63 362.615 1032.78 367.495 1036.92C370.306 1039.3 376.035 1039.46 380.119 1038.83C388.766 1037.5 391.365 1032.2 390.304 1021Z" fill="white"/>
<path d="M307.819 801.799C306.493 845.83 301.878 888.801 285.222 929.49C275.037 954.371 260.715 976.334 237.694 991.241C214.832 1006.04 190.325 1010.34 164.545 999.41C146.934 991.93 136.484 977.925 129.854 960.419C128.687 957.395 125.928 953.681 123.064 952.726C80.5221 938.509 66.4651 895.432 84.076 856.653C96.9659 828.271 120.518 811.295 148.048 799.04C182.899 783.444 219.977 777.926 257.639 775.274C271.059 774.319 284.532 774.637 297.953 773.947C305.167 773.576 308.615 775.857 307.978 783.656C307.448 789.863 307.872 796.069 307.872 801.799H307.819ZM284.957 817.608C284.957 814.107 284.692 810.605 285.01 807.157C285.753 799.677 282.729 796.865 275.197 797.343C261.299 798.192 247.295 797.873 233.45 799.146C208.36 801.427 183.641 805.99 160.567 816.812C136.59 828.059 117.07 843.761 108.318 870.021C100.997 892.037 106.514 917.554 123.594 930.658C133.832 938.509 142.531 946.944 150.594 957.235C169.001 980.684 203.586 983.336 230.162 965.352C247.932 953.31 259.336 936.44 267.452 917.077C280.872 885.3 283.737 851.666 284.957 817.714V817.608Z" fill="white"/>
<path d="M274.401 831.242C272.332 861.48 268.089 891.189 255.199 918.987C246.712 937.236 234.83 952.408 216.052 961.374C194.675 971.612 162.158 967.581 150.541 937.873C149.587 935.432 147.093 932.78 144.653 931.825C113.092 919.623 107.469 882.806 126.459 856.175C139.826 837.449 158.922 827.157 180.087 820.261C208.519 810.924 237.853 807.9 267.664 807.794C272.969 807.794 274.719 809.704 274.454 814.796C274.136 820.261 274.401 825.725 274.401 831.189V831.242ZM246.075 850.022C246.287 837.131 246.128 836.229 241.036 836.282C213.453 836.6 186.4 839.518 162.742 855.751C147.465 866.202 139.614 885.353 143.539 901.851C146.828 915.538 170.592 937.607 183.96 939.358C184.967 939.464 185.922 939.517 186.93 939.57C208.254 940.26 221.728 928.43 231.435 911.188C242.468 891.56 244.59 869.756 246.022 850.075L246.075 850.022Z" fill="white"/>
<path d="M238.914 853.841C237.906 871.082 235.413 888.112 227.828 903.814C221.25 917.395 212.339 928.854 196.478 932.355C184.649 934.955 174.942 931.506 167.41 921.904C166.03 920.154 164.757 918.244 163.06 916.865C144.547 901.639 144.759 878.934 163.537 863.761C179.928 850.499 199.502 846.308 219.712 843.974C222.417 843.656 225.175 843.603 227.881 843.39C235.625 842.754 239.303 846.255 238.914 853.894V853.841Z" fill="white"/>
</svg>
