<svg width="862" height="630" viewBox="0 0 862 630" fill="none" xmlns="http://www.w3.org/2000/svg">
<path d="M450.501 22.8223C451.827 24.8913 453.471 26.8541 454.373 29.0822C457.078 36.1909 462.277 40.488 467.634 45.74C475.697 53.6975 485.935 59.1616 492.831 67.1721C499.939 75.3949 508.638 82.8219 514.102 91.416C520.149 100.965 529.272 108.021 534.046 118.312C534.63 119.639 536.38 120.912 537.866 121.283C547.997 123.671 552.877 130.62 555.636 140.063C556.272 142.238 558.235 144.784 560.304 145.739C570.276 150.355 574.944 158.259 576.429 168.763C576.747 170.938 578.604 172.901 581.097 174.546C574.997 156.509 578.604 141.867 594.889 132.477C613.72 121.548 630.27 119.48 649.26 136.986C654.883 133.697 659.922 129.877 665.598 127.596C670 125.846 673.077 127.225 671.751 133.538C670.902 137.835 671.326 142.875 672.652 147.119C675.358 155.766 679.071 164.042 682.625 173.219C692.756 169.4 703.843 165.633 711.057 179.638C718.006 174.121 724.583 168.816 731.32 163.723C733.442 162.132 735.988 160.965 738.534 160.01C753.811 154.28 762.033 158.524 768.399 175.872C778.053 171.15 788.29 168.551 798.846 171.946C806.326 174.333 813.593 177.41 820.648 180.859C831.522 186.164 842.608 189.347 854.809 188.126C861.704 187.437 863.084 189.347 859.583 195.713C849.663 214.068 835.341 227.171 814.335 231.734C812.903 232.052 811.418 232.264 809.986 232.529C808.553 232.795 807.121 233.06 805.265 233.378C807.068 257.038 789.669 259.532 771.793 262.503C773.809 264.625 774.923 266.11 776.355 267.33C804.204 291.468 814.123 322.025 809.349 358.152C808.182 367.117 808.076 376.348 808.394 385.367C808.5 388.921 810.622 392.794 812.85 395.711C816.351 400.274 816.351 402.926 810.728 404.783C802.082 407.701 793.329 406.799 786.062 401.388C779.644 396.613 775.294 398.099 769.353 402.29C762.829 406.905 755.243 410.406 747.711 413.112C740.179 415.87 732.116 417.091 722.462 419.425C730.153 432.581 737.792 445.472 745.112 458.576C745.801 459.796 744.847 463.456 743.733 463.881C735.617 467.382 727.342 470.459 719.014 473.483C704.32 478.841 690.476 476.401 677.533 468.231C667.03 482.607 654.83 480.857 642.47 467.276C638.916 463.35 636.9 458.098 633.93 453.642C632.338 451.255 630.111 449.292 627.087 445.95C625.177 453.536 622.578 455.658 617.115 451.255C615.417 449.929 611.757 450.194 609.317 450.83C600.671 453.165 592.184 456.029 584.97 458.257C590.539 467.382 596.374 475.233 600.246 483.934C603.8 491.785 601.201 493.483 592.555 492.316C586.561 491.467 580.301 491.891 574.254 492.475C562.584 493.536 550.915 495.127 538.29 496.666C544.072 507.806 546.989 519 543.754 530.565C542.215 536.082 539.245 541.387 535.956 546.055C533.569 549.451 530.811 549.132 528.265 544.57C525.4 539.424 520.944 535.18 517.284 530.671C518.982 538.628 521.793 545.949 521.687 553.217C521.581 561.122 515.64 564.729 503.917 566.32C505.296 569.503 507.047 572.421 507.736 575.604C508.214 577.726 508.001 581.068 506.675 582.182C505.402 583.296 502.06 582.819 500.045 581.97C497.233 580.803 494.793 578.681 492.088 576.877C486.253 597.991 484.449 599.477 467.051 597.938C466.839 598.363 466.467 598.787 466.52 599.158C467.157 602.978 471.241 607.965 465.725 610.034C463.232 610.936 458.776 607.063 455.487 604.941C453.79 603.827 452.676 601.758 450.554 599.211C448.857 604.835 447.849 609.079 446.363 613.111C443.393 621.333 438.566 629.556 429.442 629.556C420.743 629.556 415.969 621.386 412.839 613.588C411.195 609.556 410.293 605.206 407.004 599.371C404.882 602.182 403.132 605.524 400.48 607.7C398.517 609.291 395.334 609.45 392.682 610.193C392.258 607.487 391.674 604.835 391.515 602.129C391.462 600.803 392.364 599.424 392.311 599.477C385.892 597.62 378.466 597.408 374.222 593.641C370.085 589.981 369.13 582.713 366.637 576.718C365.099 577.779 362.606 580.06 359.635 581.334C357.46 582.289 353.747 582.925 352.421 581.758C351.042 580.591 351.201 576.93 351.625 574.543C352.103 571.997 353.747 569.716 355.179 566.639C347.276 564.888 338.841 562.925 337.94 554.119C337.25 547.063 339.637 539.689 340.751 531.997C337.781 535.445 333.378 538.893 331.362 543.35C328.657 549.291 326.058 548.23 322.716 544.835C315.29 537.355 314.176 527.7 315.024 518.045C315.661 510.883 318.154 503.88 319.958 496.135C318.844 495.817 317.093 495.074 315.237 494.862C304.256 493.642 293.223 492.263 282.19 491.467C276.408 491.042 270.467 491.202 264.738 492.156C258.638 493.164 257.577 490.459 258.585 485.684C260.919 474.915 267.019 466.48 277.469 458.894C263.093 454.703 251.636 444.464 236.094 453.589C235.722 452.952 235.404 451.945 234.767 451.255C233.388 449.876 231.532 447.488 230.365 447.754C228.72 448.125 227.341 450.406 226.121 452.051C221.135 458.629 217.316 466.533 211.109 471.626C200.447 480.432 192.385 478.576 182.094 466.745C157.693 484.517 135.839 469.504 114.25 461.069C121.835 446.48 129.261 432.051 136.794 417.462C128.36 415.499 119.713 414.544 111.969 411.414C102.951 407.754 94.4639 402.555 86.1359 397.409C82.9001 395.446 81.0966 395.075 77.8078 397.303C69.6919 402.873 60.8335 406.48 50.702 403.191C43.8592 400.963 43.753 398.788 47.8375 393.059C50.2775 389.664 52.1342 385.048 52.2403 380.964C52.5055 372.157 51.9219 363.245 50.808 354.491C46.1931 317.834 57.8099 287.595 86.1359 263.829C87.1968 262.927 88.2576 261.919 88.735 261.495C80.7783 258.842 72.3442 256.985 64.9179 253.219C56.2716 248.816 53.9907 240.434 56.6429 230.46C36.9103 230.46 22.5881 221.07 10.8652 207.277C6.93991 202.662 3.81029 197.251 0.94587 191.84C-1.17592 187.808 0.256267 184.996 5.40162 185.792C17.8672 187.649 29.2719 184.307 40.3052 178.79C42.9575 177.463 45.6096 176.243 48.3149 175.023C62.7431 168.392 77.2775 165.156 92.3422 174.174C93.0318 173.06 93.7213 172.371 93.9866 171.575C98.7076 157.092 106.611 152.848 121.039 157.994C126.503 159.957 131.701 163.087 136.422 166.482C140.984 169.718 144.75 174.068 149.418 178.418C157.004 165.633 167.507 165.686 178.487 172.423C182.571 162.132 186.55 152.954 189.786 143.511C190.899 140.222 190.634 136.243 190.104 132.742C189.202 126.8 190.899 124.36 196.416 126.429C201.721 128.445 206.335 132.159 212.436 135.872C225.538 121.867 242.671 120.063 260.972 128.339C280.333 137.092 286.645 152.211 279.643 173.007C280.439 173.113 281.235 173.219 282.03 173.325C283.038 171.681 284.683 170.142 284.895 168.445C286.433 157.357 291.366 149.028 302.294 144.784C303.885 144.148 305.264 141.601 305.795 139.692C308.394 130.249 313.327 123.352 323.405 120.7C325.527 120.169 327.012 117.145 328.763 115.289C331.733 112.212 334.81 109.188 337.727 106.005C339.372 104.201 341.6 102.291 342.13 100.116C343.934 92.6363 348.018 87.119 355.02 84.0951C359.423 82.2384 362.022 79.692 363.401 74.8644C365.788 66.6947 371.888 62.0794 380.057 59.6391C382.656 58.8433 384.725 56.1378 386.847 54.1749C391.038 50.3023 395.069 46.3235 399.153 42.3978C400.798 40.8063 403.132 39.6392 404.087 37.7294C406.527 32.9549 408.383 27.809 410.505 22.8223C411.99 22.8223 413.475 22.8223 414.961 22.8223C412.521 29.7188 410.187 36.6154 407.482 43.4058C407.004 44.6259 405.094 46.1113 403.927 46.0583C395.546 45.6339 392.364 50.8328 389.977 57.6763C389.181 59.9044 386.794 62.8221 384.778 63.1404C373.055 65.1033 369.183 68.6045 366.319 80.6469C365.894 82.3975 364.197 84.7318 362.605 85.2093C351.254 88.6045 345.101 95.66 345.896 108.445C337.144 108.604 332.901 113.538 330.885 121.283C330.513 122.716 328.286 124.572 326.853 124.678C315.714 125.209 311.47 132.265 310.197 141.973C309.667 145.952 308.182 147.914 304.097 148.869C295.61 150.885 289.828 158.684 289.616 167.118C289.457 172.583 290.093 173.113 296.353 173.219C293.594 157.676 295.398 155.501 314.229 151.363C313.698 130.832 319.586 130.514 332.953 130.09C334.969 125.368 335.765 119.692 339.001 116.986C342.449 114.122 348.23 114.068 351.784 113.167C352.845 107.119 352.103 99.5327 355.551 95.3417C358.68 91.469 366.266 91.1508 372.525 89.0818C374.169 67.8618 376.609 65.4745 393.478 69.3472C395.759 64.7318 396.926 58.8433 400.48 56.2438C404.299 53.4852 410.346 53.7504 416.075 52.5833C416.234 41.9733 418.727 31.3634 426.843 22.8753H435.701C443.075 32.1061 446.416 42.6101 445.037 53.2201C450.978 54.0689 457.131 53.273 460.898 55.9255C464.664 58.6311 466.043 64.7319 468.536 69.4534C484.927 65.2624 489.542 70.249 488.746 92.2118C495.165 90.9916 502.909 88.0739 506.463 95.5539C509.115 101.071 508.797 107.968 509.646 113.485C513.677 114.599 519.353 114.599 522.43 117.464C525.718 120.541 526.567 126.323 527.787 129.188C533.781 131.469 540.571 132.052 543.701 135.766C546.989 139.639 546.724 146.482 548.103 152.264C564.123 154.227 565.555 155.925 566.51 174.492C568.632 173.219 571.125 171.469 571.39 169.4C572.504 161.071 566.033 151.681 557.28 149.4C553.143 148.339 552.029 146.588 551.498 142.503C550.172 132.105 545.027 127.384 535.319 125.103C533.145 124.572 530.811 121.867 529.909 119.639C527.946 114.811 525.612 111.098 520.043 109.718C518.186 109.241 515.693 106.429 515.587 104.519C515.003 94.7052 509.646 89.0288 500.84 86.4824C496.544 85.2623 495.112 83.0872 494.581 78.8432C493.573 70.4082 487.314 64.1484 478.986 63.8301C474.159 63.6179 472.833 61.655 471.666 57.6232C469.862 51.4163 466.573 46.5357 458.882 46.4826C457.29 46.4826 455.169 44.2014 454.32 42.4508C451.297 36.0848 448.75 29.4536 446.045 22.9815C447.53 22.9815 449.016 22.9815 450.501 22.9815V22.8223ZM588.523 299.054C623.851 285.367 667.348 288.603 674.456 307.595C658.012 296.667 640.932 292.211 622.578 293.961C604.013 295.765 587.357 301.76 575.368 317.781C577.119 319.213 578.392 319.956 579.347 321.017C581.309 323.086 583.113 325.314 584.97 327.436C582.583 328.815 580.249 330.195 577.862 331.521C573.3 334.12 568.738 336.667 564.229 339.213C564.547 339.743 564.865 340.221 565.184 340.751C592.608 326.004 628.678 321.919 640.242 332.794C630.853 332.051 621.889 330.46 612.977 330.884C604.225 331.256 595.26 332.741 586.932 335.393C578.604 338.046 570.966 342.714 563.009 346.481C563.274 347.064 563.592 347.648 563.858 348.232C565.184 347.648 566.51 347.011 567.889 346.587C580.779 342.449 593.669 337.356 606.771 346.216C607.779 346.905 610.06 346.428 611.492 345.791C619.661 342.237 627.671 342.396 635.786 346.11C641.993 348.921 647.032 345.738 650.692 341.282C654.724 336.295 653.557 330.248 648.995 326.746C644.539 323.351 638.545 322.025 633.293 319.585C631.172 318.577 629.315 316.932 627.299 315.606C629.58 314.598 632.179 312.423 634.195 312.847C642.523 314.704 650.692 317.516 658.967 319.691C665.12 321.282 671.327 323.404 677.586 323.51C689.362 323.616 695.037 314.492 690.263 303.776C688.831 300.539 685.914 297.887 683.58 295.075C682.147 293.325 680.662 291.627 678.328 288.922C685.967 287.065 689.574 291.203 692.916 294.545C698.804 300.486 703.631 307.489 709.572 313.272C714.028 317.622 719.226 322.078 724.902 324.147C728.615 325.473 734.715 323.828 738.269 321.388C742.831 318.258 741.293 312.794 739.542 307.807C738.534 304.996 739.012 301.654 738.8 298.524C742.035 299.638 745.96 299.903 748.294 301.972C767.709 318.842 765.587 355.605 744.422 370.3C734.609 377.144 723.894 378.258 713.02 372.847C711.269 371.998 710.208 369.77 708.882 368.231C710.314 367.117 711.694 365.897 713.232 364.889C715.672 363.298 719.332 362.502 720.499 360.327C722.25 356.985 723.576 352.37 722.515 349.133C721.878 347.224 716.256 345.685 713.073 346.003C705.859 346.799 700.979 351.096 699.652 358.682C697.796 369.292 700.607 378.417 709.2 384.942C720.075 393.165 732.116 393.112 744.157 387.966C786.487 369.823 789.033 313.643 758.479 284.2C729.835 256.614 694.348 249.187 655.731 257.038C638.863 260.434 623.427 267.914 617.062 274.439C638.333 267.118 659.869 265.42 681.776 270.885C698.432 275.022 713.126 282.503 723.841 296.402C724.849 297.728 725.326 299.425 726.016 300.964C725.485 301.6 724.955 302.237 724.424 302.874C707.344 280.381 683.898 271.945 657.217 271.733C630.694 271.521 606.824 278.683 588.523 299.16V299.054ZM243.308 272.158C242.406 271.468 241.504 270.619 240.549 270.036C198.22 244.253 143.212 248.126 105.232 279.479C81.9454 298.736 74.8373 336.561 89.5837 362.873C100.14 381.759 121.676 392.9 139.923 388.974C155.519 385.579 165.12 369.133 160.08 354.385C158.012 348.444 150.797 343.086 144.591 344.253C141.621 344.836 137.165 347.754 136.741 350.141C135.521 357.462 141.25 360.751 147.031 363.51C148.676 364.306 149.949 365.685 151.381 366.852C150.055 368.444 148.994 370.725 147.297 371.521C137.218 376.295 127.299 375.977 117.804 369.823C95.3657 355.287 92.1831 318.842 111.757 300.592C113.348 299.107 115.205 297.622 117.22 296.932C118.759 296.402 121.411 296.561 122.419 297.569C123.426 298.577 123.426 301.07 123.108 302.768C122.737 304.624 121.252 306.269 120.615 308.073C117.326 317.781 124.381 325.95 134.301 323.351C138.438 322.29 142.629 319.956 145.758 317.038C151.01 312.264 155.306 306.428 160.24 301.335C164.695 296.773 169.31 292.37 174.243 288.391C175.676 287.224 178.54 287.807 180.715 287.542C179.813 289.346 179.123 291.256 177.956 292.847C176.471 294.81 174.509 296.296 172.97 298.205C168.78 303.404 167.295 309.293 170.265 315.447C173.076 321.282 178.805 323.298 184.64 322.131C193.976 320.274 202.994 317.091 212.276 314.757C217.21 313.484 222.302 312.476 227.394 312.104C229.198 311.945 231.213 314.014 233.123 315.075C231.426 316.189 229.887 317.675 227.978 318.311C224.052 319.637 219.703 319.956 216.043 321.76C209.253 325.102 206.123 332.741 208.616 338.311C211.269 344.2 219.172 347.064 226.28 344.412C233.548 341.653 240.602 341.653 247.87 344.306C249.938 345.049 253.015 345.526 254.606 344.465C262.828 339.16 271.368 339.531 280.227 341.919C285.531 343.351 290.836 344.995 296.14 346.534C273.013 330.566 247.71 325.632 220.074 331.362C232.593 324.359 245.854 324.041 258.903 327.065C271.74 330.035 284.152 334.863 298.581 339.478C292.109 335.924 287.017 333.218 281.977 330.407C279.803 329.187 277.681 327.754 275.506 326.428C277.203 324.465 278.583 321.972 280.651 320.645C285.001 317.887 285.001 315.128 281.606 311.839C280.015 310.301 278.423 308.762 276.673 307.383C254.076 289.664 219.438 287.595 193.074 302.29C190.899 303.51 188.672 304.571 186.497 305.685C186.178 304.996 185.913 304.306 185.595 303.563C197.212 292.423 212.17 289.558 227.553 288.709C243.414 287.861 258.638 291.521 272.854 299.001C261.608 284.624 246.437 277.251 229.357 273.007C212.276 268.763 195.355 269.24 178.275 273.378C161.247 277.516 147.827 287.33 135.468 299.372C139.075 290.301 145.758 284.306 153.609 279.797C182.253 263.298 212.33 262.556 243.467 271.945L243.308 272.158ZM850.565 197.463C838.206 193.219 827.331 189.665 816.616 185.792C811.1 183.776 805.848 180.858 800.331 178.896C789.988 175.182 780.121 176.084 770.892 182.662C768.558 184.36 765.375 184.837 762.617 185.898C761.927 183.193 760.76 180.487 760.654 177.782C760.07 165.527 753.387 161.018 741.876 165.474C729.464 170.355 720.605 179.32 713.02 189.983C711.588 191.946 709.094 193.166 707.132 194.758C706.177 192.477 704.533 190.195 704.427 187.861C703.949 176.137 697.955 172.583 687.717 178.418C676.525 184.837 668.356 194.174 662.044 205.315C655.148 217.516 648.146 229.665 641.091 241.813C639.393 244.784 637.219 247.489 635.256 250.301C662.256 239.267 679.389 218.895 691.802 193.75C689.468 208.922 680.609 220.275 671.539 231.999C685.596 226.057 700.289 221.017 712.277 212.158C724.159 203.352 733.283 190.832 743.626 179.904C739.171 193.113 729.941 202.98 719.226 212.636C732.912 210.195 745.324 207.012 757.949 206.004C780.281 204.201 802.719 204.147 825.05 202.609C833.432 202.025 841.654 199.373 850.618 197.516L850.565 197.463ZM225.485 250.672C215.3 232.794 206.123 214.864 195.196 198.1C189.998 190.142 182.147 183.352 174.243 177.782C163.953 170.567 157.375 174.599 156.898 187.065C156.898 188.073 156.898 189.081 156.686 189.983C155.572 194.227 153.291 194.545 150.479 191.522C148.835 189.718 147.88 187.171 146.077 185.633C137.643 178.312 129.792 169.718 120.191 164.36C108.839 157.994 101.201 163.776 100.67 176.774C100.564 179.267 99.397 181.707 98.7075 184.148C96.1083 183.193 92.9786 182.874 90.9099 181.23C81.3618 173.644 70.7529 173.432 60.1439 177.198C44.3896 182.768 28.9536 189.293 13.7297 195.235C15.5863 195.925 18.6629 197.675 21.8986 198.206C30.3858 199.532 38.926 200.805 47.5192 201.177C78.4444 202.503 109.582 202.078 139.658 211.415C139.976 211.521 140.401 211.044 141.143 210.726C131.489 201.124 121.888 191.628 116.478 176.933C127.935 189.187 136.794 201.601 148.41 210.301C160.133 219.108 174.615 224.253 187.929 230.991C188.3 230.407 188.619 229.824 188.99 229.24C180.45 218.1 171.273 207.277 169.416 192.264C181.988 217.781 199.068 238.63 225.538 250.725L225.485 250.672ZM211.375 253.166C211.481 252.476 211.587 251.786 211.693 251.097C205.115 249.346 198.591 247.224 191.907 245.951C148.304 237.41 109.847 246.216 78.9218 279.903C65.5545 294.492 57.4916 311.415 58.2873 331.309C59.8256 368.921 86.242 399.743 123.267 408.549C139.817 412.475 155.041 407.329 163.475 392.741C168.355 384.253 172.122 374.226 173.182 364.571C175.888 340.062 154.882 324.253 132.868 333.059C124.434 336.454 119.395 346.481 121.941 354.81C124.063 361.812 130.959 365.897 138.65 364.306C137.855 363.192 137.218 362.237 136.475 361.335C132.497 356.507 129.527 351.096 133.717 345.314C138.067 339.319 144.485 339.107 151.063 341.335C162.52 345.261 167.666 355.022 165.067 367.86C160.823 388.762 137.377 399.69 116.053 390.725C79.2401 375.234 69.9571 336.083 83.1123 304.094C95.9491 272.794 122.843 259.054 153.609 251.627C172.758 247.012 192.119 248.604 211.322 253.113L211.375 253.166ZM640.879 256.508C668.462 247.702 696.045 247.383 723.257 257.834C755.668 270.248 779.273 290.778 782.562 327.86C785.055 355.659 771.422 382.237 742.937 392.688C720.287 401.016 697.69 388.815 694.772 367.276C692.969 353.961 700.66 342.82 713.497 342.131C717.9 341.919 724 344.465 726.546 347.807C728.509 350.354 726.387 356.295 725.432 360.592C724.955 362.661 722.886 364.412 721.295 366.587C731.373 366.799 737.367 362.343 738.428 354.544C739.807 344.518 734.238 335.553 725.008 333.802C720.234 332.9 715.195 332.9 710.315 333.218C699.546 333.855 690.051 341.335 688.778 352.051C687.664 361.123 687.399 370.884 689.468 379.69C694.985 402.767 714.505 414.969 737.42 409.451C747.658 406.958 757.896 402.184 766.754 396.348C797.308 376.189 809.508 339.319 796.937 305.738C789.67 286.375 775.401 272.211 758.161 261.548C720.181 238.1 680.716 240.487 640.879 256.508ZM526.832 225.633C526.302 218.524 527.681 210.885 518.61 207.118C517.072 206.482 515.958 202.185 516.329 199.797C519.618 177.675 503.811 159.055 481.32 159.426C476.334 159.532 473.894 158.312 474.053 153.007C474.742 131.84 463.709 118.472 446.204 108.074C435.33 101.602 427.002 101.23 415.757 107.809C398.093 118.153 387.112 131.416 387.218 152.424C387.218 157.463 385.468 159.267 380.27 159.32C356.505 159.585 342.024 176.615 344.995 199.904C345.26 202.185 343.828 205.686 341.971 207.012C333.643 213.113 332.741 214.917 334.969 225.208C339.054 224.572 343.085 223.776 347.169 223.299C352.898 222.662 357.142 221.336 355.444 213.75C354.702 210.46 356.134 206.588 356.771 203.033C357.407 199.373 358.892 195.713 358.945 192.052C359.051 182.185 364.886 174.28 373.268 173.378C379.898 172.689 386.529 171.84 393.053 171.044C393.478 166.217 392.947 161.813 394.326 158.047C396.024 153.432 398.411 147.968 402.177 145.368C406.633 142.291 408.648 139.055 410.346 134.174C413.369 125.58 418.515 118.259 428.646 116.933C438.354 115.66 444.878 120.912 448.803 128.869C452.41 136.137 454.957 143.246 462.383 148.498C466.308 151.257 466.573 159.426 468.218 165.262C468.695 167.012 468.271 168.975 468.271 170.726C473.522 171.946 478.562 174.705 482.805 173.856C494.846 171.469 503.386 182.927 502.166 193.856C501.901 196.349 502.75 198.949 503.174 201.495C503.97 205.951 505.986 210.567 505.402 214.811C504.554 221.124 507.471 222.715 512.404 223.405C516.913 224.094 521.475 224.784 526.832 225.58V225.633ZM466.786 430.141C469.491 429.557 470.234 429.557 470.764 429.239C472.249 428.39 473.735 427.488 475.114 426.427C497.552 408.868 508.214 385.632 505.827 357.409C504.023 336.136 494.157 318.842 474.318 308.921C469.226 306.375 467.581 303.457 468.006 298.099C468.907 287.012 465.194 277.091 458.511 268.55C449.44 256.985 439.892 245.845 430.609 234.545C422.016 244.678 413.21 254.863 404.67 265.155C396.342 275.182 391.886 286.428 392.523 299.85C392.629 302.502 389.552 305.845 387.165 308.02C380.323 314.227 371.517 318.842 366.266 326.057C348.708 350.088 350.724 386.693 369.501 410.937C376.079 419.372 383.346 426.852 394.273 431.679C388.81 425.473 383.717 420.433 379.474 414.809C354.649 381.812 359.158 330.99 398.411 312.688C400.586 311.68 402.867 307.913 402.814 305.42C402.654 285.951 413.423 272.105 426.153 259.373C427.585 257.94 432.466 257.463 433.739 258.63C446.894 271.044 457.768 285.049 457.503 304.306C457.45 309.452 459.041 311.521 463.232 313.802C489.224 327.701 501.318 355.659 494.528 384.412C490.39 401.971 481.426 416.613 466.786 430.194V430.141ZM846.534 202.98C838.842 204.254 831.893 206.057 824.838 206.482C802.984 207.755 781.023 207.808 759.222 209.718C745.218 210.938 731.373 214.598 717.475 217.198C717.528 217.887 717.635 218.524 717.688 219.214C737.898 222.344 758.161 225.261 774.711 238.736C769.99 237.993 765.852 235.712 761.503 234.121C737.526 225.633 713.497 216.827 688.036 228.922C680.503 232.529 672.918 236.084 665.385 239.638C710.526 235.765 710.739 235.872 756.41 252.317C767.338 256.243 778.583 256.985 789.457 251.839C799.695 247.012 801.18 239.054 793.86 230.513C792.587 229.028 792.11 226.906 791.261 225.049C793.277 224.731 795.398 223.776 797.255 224.147C816.935 228.232 834.28 221.017 846.427 202.98H846.534ZM656.633 449.769C652.23 435.499 643.69 424.305 631.914 415.976C619.82 407.435 606.4 403.085 591.176 407.011C605.975 413.218 616.478 423.616 623.745 437.674C624.859 439.796 628.838 442.236 630.853 441.759C637.431 440.167 638.067 443.987 639.394 448.655C642.046 458.204 647.032 466.321 656.58 470.512C664.378 473.96 669.576 470.671 670.425 462.236C670.69 459.743 671.22 457.303 672.016 452.422C690.476 476.401 710.792 472.475 731.108 461.546C715.354 449.557 699.493 437.515 683.686 425.472C689.149 436.242 696.205 445.738 697.318 458.151C688.566 441.653 680.079 424.677 663.741 414.756C647.244 404.73 628.572 401.388 608.415 401.441C637.431 409.982 658.808 430.777 656.633 449.716V449.769ZM15.9575 202.874C26.2482 218.789 45.5036 226.8 63.804 222.132C65.5545 221.654 67.7293 222.715 69.6919 223.033C69.0023 224.731 68.7372 226.747 67.6233 228.073C59.083 238.524 61.5761 247.383 74.5721 251.362C85.8176 254.81 96.7449 253.325 107.778 249.346C120.191 244.89 132.868 239.85 145.811 238.259C161.672 236.349 177.956 237.781 194.241 237.781C177.373 229.877 161.3 220.063 140.666 222.132C121.464 224.041 103.694 230.195 85.8176 236.773C102.686 223.617 123.002 220.699 144.963 217.41C123.426 209.771 103.004 207.384 82.3166 206.376C60.0378 205.262 37.759 203.988 15.9046 202.821L15.9575 202.874ZM269.459 406.109C254.341 402.343 241.027 406.48 228.561 414.703C216.149 422.926 208.669 434.862 203.206 448.496C199.705 433.377 218.271 413.748 246.331 401.494C208.139 401.016 183.685 415.181 168.514 447.435C166.976 450.777 165.173 454.013 163.528 457.249L160.982 455.923C164.059 444.623 170.636 434.915 176.153 424.199C160.452 436.082 144.75 447.913 128.678 460.061C138.332 464.729 147.986 469.663 159.656 468.814C171.326 467.966 179.495 460.963 187.452 451.626C188.565 455.021 189.149 456.135 189.202 457.249C189.361 462.183 188.778 468.814 194.613 469.504C199.493 470.034 206.335 468.019 209.624 464.517C214.663 459.265 217.21 451.732 221.135 445.313C222.302 443.456 224.954 440.592 226.068 440.91C232.115 442.767 234.714 438.841 237.42 435.074C239.276 432.475 240.549 429.504 242.353 426.852C248.984 416.878 258.691 410.884 269.459 406.109ZM327.278 397.197C324.095 390.353 320.912 384.04 318.154 377.568C308.765 355.446 289.616 349.346 268.239 347.064C265.481 346.799 261.078 348.019 259.752 350.035C255.508 356.72 251.424 355.287 246.384 351.467C240.815 347.277 234.927 347.224 229.993 350.088C240.443 361.335 250.84 372.051 260.6 383.245C274.71 399.425 291.154 411.839 312.478 416.401C320.541 418.152 328.763 418.682 339.054 414.067C334.173 409.451 330.885 403.563 326.747 402.926C313.327 400.804 304.256 392.847 294.973 384.199C286.964 376.719 278.105 370.088 269.671 363.033C268.557 362.131 267.708 360.91 266.754 359.85C267.39 359.054 267.974 358.258 268.61 357.462C275.4 362.29 282.508 366.746 288.873 372.104C296.193 378.311 302.506 385.632 309.773 391.839C314.335 395.711 319.639 399.107 327.331 397.144L327.278 397.197ZM435.012 227.649C435.648 227.649 436.285 227.543 436.921 227.489C437.452 225.421 438.035 223.405 438.46 221.283C441.324 206.853 446.576 193.325 455.646 181.654C461.216 174.493 462.224 166.588 460.261 158.684C459.359 155.023 455.169 150.991 451.509 149.453C447.743 147.861 446.416 146.694 445.727 142.609C444.825 137.463 442.968 132.052 440.051 127.861C435.171 120.965 427.108 120.647 421.91 127.384C418.674 131.628 417.719 137.57 415.438 142.609C414.377 144.89 412.786 148.498 411.089 148.657C403.609 149.559 401.328 154.44 400.214 160.646C398.835 168.392 400.904 175.288 405.572 181.442C414.855 193.697 419.841 207.702 422.865 222.609C423.183 224.254 423.713 225.845 424.138 227.437C424.721 227.49 425.358 227.596 425.941 227.649C426.684 224.041 427.957 220.487 428.01 216.879C428.328 200.646 428.222 184.413 428.381 168.126C428.381 165.421 429.124 162.715 429.548 160.01H431.776C432.147 162.662 432.784 165.315 432.784 168.02C432.943 184.254 432.784 200.487 433.049 216.773C433.102 220.434 434.322 224.041 435.012 227.702V227.649ZM591.971 358.364C592.29 358.948 592.608 359.531 592.979 360.115C580.089 371.627 567.518 383.457 554.151 394.385C549.376 398.258 543.011 401.706 537.07 402.29C528.212 403.085 525.984 408.921 522.005 416.825C529.538 417.25 536.115 418.629 542.375 417.833C560.516 415.499 576.323 407.435 589.213 394.65C603.217 380.698 616.319 365.897 630.164 351.043C624.435 348.709 618.706 349.24 612.5 353.059C610.007 354.598 603.906 354.916 603.111 353.59C599.345 347.383 593.881 347.754 588.205 348.072C561.471 349.452 541.208 368.019 532.561 400.91C539.351 397.78 545.398 396.242 549.854 392.688C557.758 386.481 564.388 378.682 572.08 372.21C578.286 367.064 585.288 362.926 591.971 358.364ZM362.287 437.462C357.778 432.21 353.588 430.035 347.488 434.385C344.199 436.719 339.955 438.151 335.977 439.053C315.502 443.616 295.451 438.257 275.294 436.029C275.029 436.029 274.816 435.287 273.755 433.218C279.749 433.483 284.895 433.642 290.04 433.96C303.036 434.703 315.979 436.082 328.975 436.188C336.454 436.242 343.828 434.066 350.883 426.586C346.268 424.464 342.13 420.804 339.478 421.706C320.965 427.701 304.628 421.971 288.29 414.226C285.691 413.006 282.72 411.945 279.909 411.839C266.117 411.414 247.657 424.677 243.626 437.992C243.202 439.372 245.111 442.82 246.596 443.297C257.046 446.693 267.867 449.027 278.211 452.74C294.231 458.523 310.356 461.493 327.384 458.417C341.706 455.817 353.694 449.716 362.287 437.462ZM510.282 429.133C523.119 437.992 536.964 438.364 551.021 437.196C559.349 436.507 567.571 434.809 575.846 433.907C578.975 433.589 582.211 434.173 585.447 434.385C585.447 435.128 585.341 435.923 585.288 436.666C578.286 437.621 571.284 438.629 564.282 439.531C545.133 441.971 526.143 444.146 508.426 432.953C506.781 431.892 502.273 434.385 499.886 436.188C499.09 436.772 500.045 441.122 501.424 442.767C503.705 445.578 506.728 447.913 509.805 449.876C528.211 461.706 548.315 462.661 568.685 457.196C584.916 452.846 600.777 447.064 617.433 441.759C616.266 439.319 615.046 436.189 613.401 433.271C602.474 414.597 585.076 409.292 565.449 417.727C552.506 423.244 538.98 428.178 524.764 422.82C517.868 420.22 514.208 422.661 510.282 429.027V429.133ZM697.902 407.117C694.083 401.547 689.998 396.507 686.922 390.99C680.874 380.062 679.92 379.054 667.613 380.964C662.892 381.706 658.436 384.253 653.768 385.685C651.7 386.321 649.366 386.322 647.191 386.587C647.828 384.677 648.04 382.502 649.101 380.857C653.875 373.536 651.806 368.815 643.001 367.913C639.871 367.595 636.635 368.019 633.505 368.55C614.675 371.573 605.816 387.117 594.252 399.266C594.73 400.061 595.207 400.857 595.685 401.653C610.219 393.802 624.753 385.897 639.287 378.046C639.712 378.682 640.083 379.372 640.507 380.008C632.232 385.685 623.958 391.361 615.523 397.144C637.113 399.531 658.065 409.186 680.079 398.258C680.238 399.478 680.344 400.751 680.503 401.971C674.085 403.934 667.719 405.95 660.452 408.178C682.307 418.151 700.13 432.422 717.741 447.064C721.666 450.353 726.281 452.74 730.631 455.552C731.267 454.968 731.904 454.332 732.54 453.748C728.031 444.252 723.947 434.597 719.014 425.366C713.497 415.075 702.782 413.589 692.014 412.581C692.067 411.892 692.12 411.202 692.173 410.565C694.083 409.398 696.045 408.284 697.955 407.117H697.902ZM243.785 395.711C235.828 390.141 227.872 384.571 219.915 379.054C220.498 378.099 221.135 377.144 221.718 376.189C235.404 385.26 248.506 395.499 266.594 399.266C259.433 391.255 253.811 384.093 247.286 377.887C239.117 370.141 229.092 366.109 217.634 367.383C214.717 367.701 210.367 369.027 209.571 370.99C208.616 373.43 210.685 377.038 211.481 380.168C211.958 381.918 212.489 383.616 212.966 385.313C211.003 385.207 208.988 385.314 207.078 384.942C199.281 383.139 191.589 380.857 183.791 379.478C181.67 379.107 178.063 380.645 176.896 382.449C171.962 389.929 167.666 397.833 163.157 405.579C164.536 406.852 166.287 408.496 168.037 410.088C168.143 410.778 168.302 411.414 168.408 412.104C138.12 410.3 136.635 434.65 127.617 452.21C128.147 452.74 128.625 453.324 129.155 453.854C152.283 437.621 175.357 421.441 197.159 406.109C192.65 404.73 186.072 402.767 179.495 400.804C190.422 400.168 200.978 402.502 211.322 401.918C222.196 401.282 232.964 397.886 243.732 395.711H243.785ZM573.088 225.102C564.972 225.898 558.659 227.596 552.665 226.853C544.231 225.845 540.147 217.728 542.64 209.559C546.618 196.402 562.956 188.869 575.474 194.386C591.971 201.654 602.421 220.116 600.724 239.055C598.761 261.017 589.319 279.479 572.504 293.219C564.653 299.638 565.343 306.746 565.555 314.969C567.677 313.749 569.215 312.104 570.541 310.301C577.649 300.911 584.545 291.362 591.865 282.131C606.612 263.404 614.675 242.609 612.659 218.471C610.484 192.477 593.669 178.577 567.783 181.23C540.518 184.041 525.029 210.832 537.282 233.909C542.958 244.625 554.628 247.595 563.115 239.585C567.306 235.606 569.852 229.93 573.14 224.996L573.088 225.102ZM288.926 223.139C292.586 236.19 300.861 244.2 309.296 243.723C318.101 243.192 326.058 233.59 327.649 221.548C327.702 221.07 327.755 220.593 327.808 220.062C329.983 196.402 307.386 176.614 282.349 180.381C267.125 182.662 255.349 189.559 250.893 205.368C245.058 226.057 247.18 246.322 258.266 264.465C268.716 281.601 281.288 297.463 293.011 313.802C293.276 314.173 294.284 314.067 294.973 314.226C296.83 302.927 296.087 300.38 288.767 293.643C272.589 278.736 262.298 260.858 260.282 238.63C258.638 220.275 268.345 202.025 283.993 194.492C295.61 188.922 308.5 192.423 315.767 203.246C319.48 208.763 320.859 214.598 317.04 220.487C313.062 226.588 306.908 228.073 300.172 226.747C296.618 226.057 293.276 224.572 288.979 223.139H288.926ZM492.459 312.317C497.764 291.733 507.1 274.81 526.408 264.89C531.819 262.131 531.819 253.06 526.408 249.983C522.164 247.596 522.058 245.314 523.172 241.123C525.082 234.121 521.21 230.089 513.73 229.93C511.343 229.93 508.691 229.877 506.675 228.816C500.204 225.474 494.528 226.906 489.807 231.627C476.228 245.049 470.34 261.442 472.249 280.487C472.833 286.322 473.469 292.211 474.689 297.94C475.167 300.221 477.342 302.184 479.729 305.791C485.723 274.068 491.876 261.229 501.318 260.221C500.045 262.131 499.09 263.776 497.923 265.261C489.86 275.765 486.359 287.914 484.874 300.805C484.237 306.481 486.2 310.301 492.406 312.264L492.459 312.317ZM476.97 448.019C484.343 453.377 490.55 458.576 497.392 462.714C511.343 471.095 527.098 472.528 542.905 473.217C546.83 473.377 550.756 474.438 554.681 475.021C554.575 475.658 554.416 476.241 554.31 476.878C548.475 476.878 542.693 477.143 536.858 476.878C513.518 475.552 492.459 468.814 475.75 451.308C473.575 449.027 469.067 449.08 465.619 448.019C465.194 448.814 464.717 449.61 464.293 450.459C465.406 453.111 466.308 455.817 467.634 458.364C474.159 470.83 485.245 477.992 497.817 483.138C529.166 495.976 560.728 486.745 592.343 484.464C590.592 470.936 578.763 462.448 566.457 464.677C541.155 469.186 517.284 467.011 497.552 448.125C489.33 440.22 489.436 440.114 476.917 448.072L476.97 448.019ZM370.668 313.802C372.472 308.868 374.965 305.208 375.071 301.441C375.602 288.179 370.615 276.402 363.295 265.58C362.022 263.723 360.749 261.866 359.476 260.009C360.165 259.532 360.855 259.054 361.545 258.524C368.494 263.457 372.26 270.885 374.859 278.842C377.458 286.853 379.155 295.181 381.808 305.632C383.93 302.025 385.786 300.115 386.157 297.94C387.165 292.158 387.59 286.269 388.226 280.38C390.03 263.67 385.786 248.657 375.283 235.5C368.228 226.694 363.879 225.58 353.164 229.24C351.837 229.718 350.299 229.718 348.867 229.612C339.266 228.869 336.401 232.105 337.887 241.495C338.205 243.617 337.462 246.906 335.924 248.179C328.498 254.492 329.187 260.54 337.197 266.216C343.722 270.831 350.405 276.083 354.808 282.609C360.749 291.362 364.621 301.601 370.615 313.802H370.668ZM305.37 475.127C332.847 471.414 361.704 471.467 381.755 446.374C378.148 444.624 375.442 442.714 372.419 442.024C370.562 441.547 367.486 442.13 366.319 443.456C346.056 466.109 320.488 469.292 292.639 463.669C281.023 461.334 267.496 471.785 267.337 483.509C283.463 485.366 299.482 487.753 315.608 488.867C341.122 490.565 365.47 486.745 384.725 467.859C389.499 463.191 392.47 456.613 396.183 451.043C389.658 446.427 386.263 448.178 382.497 452.157C361.385 474.279 333.961 476.666 305.37 475.127ZM465.247 264.943C465.725 264.094 466.202 263.564 466.361 262.874C470.34 245.208 477.713 230.142 494.475 220.646C497.393 219.002 499.833 209.452 498.453 208.285C491.876 202.609 495.324 196.084 494.899 189.877C494.422 182.291 490.709 179.532 483.23 180.859C481.373 181.177 478.615 181.866 477.607 180.965C469.385 173.219 464.982 180.487 461.057 185.527C449.811 199.903 444.454 216.667 443.764 234.864C443.446 243.405 449.493 247.914 455.381 253.431C458.988 229.824 465.141 216.88 473.416 214.757C473.469 215.235 473.734 215.766 473.575 216.137C473.151 217.039 472.621 217.888 472.037 218.63C464.505 228.02 461.799 239.267 460.049 250.779C459.2 256.19 459.412 261.548 465.247 264.996V264.943ZM396.395 264.996C396.979 265.208 397.615 265.473 398.199 265.686C398.994 260.434 401.487 254.704 400.267 249.983C397.509 239.214 392.894 228.922 389.075 218.471C388.598 217.145 388.173 215.765 387.749 214.439C400.904 223.723 402.495 238.312 405.837 252.264C415.067 246.004 419.098 238.365 416.658 227.861C415.703 223.776 415.597 219.532 414.536 215.553C411.089 202.874 406.102 190.885 396.607 181.336C393.159 177.888 389.605 175.129 384.672 179.957C383.346 181.23 379.739 180.593 377.246 180.222C370.987 179.32 367.061 181.813 366.425 188.073C366.106 191.203 366.849 194.439 366.743 197.569C366.69 199.532 366.584 202.026 365.417 203.405C359.211 210.726 360.431 216.243 368.281 221.972C374.328 226.376 380.588 231.415 384.407 237.622C389.552 246.004 392.47 255.765 396.342 264.943L396.395 264.996ZM465.035 441.865C478.615 440.592 490.231 434.703 501.106 426.852C517.815 414.756 525.665 396.666 534.365 379.001C544.072 359.372 550.755 337.409 572.61 326.587C572.875 326.481 572.769 325.738 572.928 324.677C570.806 323.828 568.685 322.555 566.351 322.025C547.255 317.781 531.5 323.616 518.557 337.94C513.2 343.881 510.229 350.247 512.192 358.788C513.253 363.404 512.775 368.656 511.927 373.43C510.282 382.555 507.789 391.52 505.667 400.539C509.115 394.65 511.927 388.39 515.056 382.343C521.157 370.619 527.257 358.895 533.728 347.383C535.054 345.048 537.972 343.616 539.828 342.078C532.72 356.189 525.082 369.823 518.823 384.04C507.524 409.664 492.088 430.937 464.929 441.971L465.035 441.865ZM326.005 538.204C338.629 521.971 357.354 517.621 374.116 509.61C388.598 502.713 402.707 495.233 412.309 481.493C419.31 471.467 423.66 460.592 424.35 448.125C418.409 447.7 415.756 450.035 414.536 455.287C410.558 472.634 400.055 485.313 384.513 493.483C371.04 500.538 357.089 506.745 343.297 513.27C342.714 513.536 341.706 513.058 340.91 512.899C340.698 512.209 340.433 511.52 340.221 510.83C346.427 507.806 352.58 504.57 358.892 501.812C376.769 493.96 395.016 486.639 405.094 468.231C407.906 463.085 409.497 457.25 411.672 451.732C404.352 448.815 401.912 452.21 400.055 456.666C395.493 467.488 387.696 475.499 377.936 481.706C365.841 489.398 352.421 492.952 338.364 494.915C334.757 495.392 330.62 497.196 328.179 499.743C319.586 508.761 318.578 525.631 326.058 538.257L326.005 538.204ZM286.062 325.473C298.687 330.831 306.537 339.743 312.213 350.672C317.411 360.698 322.291 370.937 327.012 381.229C336.507 401.812 347.117 421.441 368.175 432.687C376.769 437.303 385.521 441.653 395.546 442.077C391.992 439.743 388.12 438.098 384.513 436.136C363.56 424.677 351.095 406.162 341.918 384.942C335.712 370.513 330.726 355.393 319.056 343.988C318.578 343.51 318.791 342.343 318.472 339.478C339.637 355.765 341.281 381.547 354.967 400.061C349.344 387.382 346.48 374.067 348.177 360.486C349.822 347.224 344.093 338.364 334.704 330.566C321.018 319.16 300.437 316.614 286.062 325.473ZM533.41 538.575C540.359 527.435 539.139 517.143 535.426 506.639C532.455 498.363 526.09 495.711 517.815 494.544C492.035 490.777 470.181 480.645 458.829 455.074C456.919 450.724 453.79 449.345 448.803 451.467C450.925 468.496 460.632 480.591 474.53 488.92C486.518 496.082 499.673 501.228 512.245 507.435C514.738 508.655 516.807 510.777 519.088 512.475C518.663 513.111 518.239 513.748 517.762 514.384C504.341 508.071 490.762 502.077 477.554 495.286C460.739 486.692 449.122 473.483 444.931 454.703C443.711 449.186 440.422 447.966 435.489 448.284C436.974 471.732 449.599 489.292 471.507 502.766C491.717 515.18 517.019 518.31 533.41 538.628V538.575ZM350.617 337.728C351.201 337.303 351.731 336.932 352.315 336.508C349.026 321.813 338.788 311.839 327.596 302.396C341.759 306.534 348.39 318.205 355.922 330.725C358.044 325.685 360.749 321.813 361.12 317.675C362.659 302.396 347.01 276.985 332.953 271.203C327.967 269.134 323.512 268.922 320.594 275.075C319.745 276.879 316.669 278.471 314.494 278.577C302.824 279.319 299.747 284.731 305.264 294.916C306.166 296.561 305.848 299.266 305.264 301.229C304.574 303.723 301.445 307.012 302.134 308.073C303.832 310.566 306.961 313.006 309.879 313.484C325.368 316.136 338.311 322.821 348.018 335.34C348.708 336.242 349.663 336.932 350.511 337.728H350.617ZM509.381 337.993C520.838 323.086 536.274 316.242 554.097 313.218C559.667 312.264 559.773 306.534 555.742 302.184C554.522 300.858 555.211 297.516 555.37 295.128C555.689 291.203 557.864 286.587 556.431 283.617C555.211 281.123 550.013 280.487 546.565 279.107C544.284 278.205 541.101 278.046 539.881 276.349C534.948 269.505 532.561 268.285 525.612 272.741C509.487 283.086 500.469 298.152 499.461 317.303C499.249 321.229 502.22 325.367 504.288 330.831C512.457 318.046 518.876 306.799 532.296 302.927C527.84 308.285 522.483 312.794 517.868 317.94C513.041 323.351 508.85 329.346 509.328 337.94L509.381 337.993ZM298.846 275.341C294.973 271.68 290.571 268.073 286.857 263.882C276.089 251.786 273.066 232.529 279.325 219.691C281.765 214.704 284.364 212.795 289.351 217.145C292.215 219.638 295.928 221.495 299.535 222.768C304.84 224.625 309.879 223.352 313.38 218.63C316.934 213.803 314.812 209.24 311.842 205.049C303.036 192.583 286.221 192.848 275.135 205.792C262.404 220.646 262.033 237.675 267.708 255.235C272.695 270.725 281.606 283.617 295.132 293.696C296.406 287.224 297.573 281.601 298.793 275.394L298.846 275.341ZM565.078 295.235C584.545 278.524 597.647 258.63 596.109 231.893C595.313 217.994 589.054 206.429 576.323 199.267C565.131 193.007 551.127 198.1 546.618 210.089C544.178 216.561 547.785 223.617 554.628 223.299C560.357 222.98 566.351 220.593 571.549 217.834C577.543 214.598 579.347 214.492 581.787 221.017C585.924 232.105 586.296 243.617 580.355 253.855C575.421 262.343 568.473 269.611 562.266 277.569C563.009 282.343 563.964 288.232 565.025 295.287L565.078 295.235ZM218.907 228.073L222.673 226.747C220.498 221.017 218.695 215.129 216.096 209.612C209.094 194.652 205.964 179.426 210.897 163.14C215.406 148.339 230.577 136.774 244.262 137.729C252.378 138.312 257.418 143.14 260.229 150.089C262.828 156.615 262.404 163.352 256.94 168.551C251.318 173.856 244.793 174.492 237.897 170.938C237.473 170.726 236.783 171.044 236.094 171.15C241.982 185.951 250.151 188.604 262.881 180.169C273.862 172.954 278.636 159.798 274.604 149.612C268.186 133.326 238.64 124.148 225.273 134.015C212.489 143.458 205.487 155.819 201.084 170.673C194.082 194.333 211.269 209.506 218.854 228.02L218.907 228.073ZM638.651 228.391C639.659 228.763 640.614 229.081 641.621 229.452C647.987 217.622 654.405 205.792 660.665 193.856C661.301 192.636 661.248 190.991 661.301 189.506C661.885 170.355 656.209 153.697 642.258 140.116C634.672 132.742 625.867 129.771 615.364 131.31C600.299 133.485 587.887 142.875 585.5 154.227C583.272 164.784 588.895 175.182 600.936 182.821C611.28 189.4 621.199 184.943 624.276 172.317C610.484 176.402 600.512 171.15 599.61 159.373C598.708 147.119 609.529 136.562 621.676 138.684C635.786 141.124 644.857 150.249 649.684 163.246C656.421 181.283 651.276 197.994 643.107 214.333C640.932 218.683 640.083 223.723 638.651 228.445V228.391ZM148.941 323.563C175.622 333.908 177.055 336.136 180.396 371.998C187.027 372.847 193.711 373.696 200.448 374.544C204.691 361.6 210.261 359.266 232.593 361.865C216.679 353.537 198.167 349.239 200.66 326.481C184.004 329.505 167.507 333.218 161.141 310.725C156.792 315.34 153.132 319.16 148.994 323.563H148.941ZM628.944 362.661C633.24 362.343 636.105 361.918 638.916 361.971C646.183 362.078 654.034 362.237 657.376 369.929C659.763 375.393 662.468 376.242 667.454 374.544C669.258 373.961 671.38 373.908 673.289 374.173C679.655 374.969 680.503 372.051 680.079 366.375C678.435 345.791 687.717 332.847 707.662 326.693C708.67 326.375 709.572 325.579 710.473 324.996C709.731 325.473 708.988 325.951 708.246 326.375C705.487 321.919 702.729 317.463 699.228 311.839C691.218 336.189 673.872 329.24 658.755 327.542C662.256 350.247 643.902 354.067 628.891 362.661H628.944ZM468.907 572.74C468.324 573.111 467.687 573.429 467.104 573.8C465.619 571.838 463.921 570.034 462.701 567.965C459.518 562.448 456.813 556.612 453.365 551.254C452.464 549.822 448.697 548.496 447.743 549.185C445.302 550.936 441.589 554.437 442.12 556.188C446.151 569.928 453.153 581.97 465.884 589.609C476.387 595.922 483.813 591.837 483.972 579.636C484.184 564.888 477.819 552.58 468.589 541.493C466.096 538.469 463.709 536.984 459.996 540.061C456.654 542.819 454.108 544.888 457.185 549.663C460.739 555.233 463.709 561.228 466.786 567.063C467.74 568.867 468.218 570.83 468.907 572.74ZM392.629 573.588C391.78 573.164 390.984 572.686 390.136 572.262C390.984 570.193 391.674 568.071 392.682 566.108C395.918 560.061 399.79 554.225 402.389 547.912C403.185 546.055 401.275 542.076 399.419 540.485C397.827 539.159 393.265 538.734 392.152 539.901C381.171 551.573 374.169 565.153 375.23 581.705C375.867 591.254 381.914 594.702 390.56 590.564C402.707 584.676 410.081 574.331 414.961 562.13C418.727 552.687 417.984 551.573 407.694 547.859C402.707 556.4 397.615 565.047 392.576 573.694L392.629 573.588ZM533.781 190.195C536.327 171.097 518.08 147.172 496.915 142.981C494.263 142.45 490.337 139.639 490.072 137.463C487.314 117.782 475.432 105.315 458.988 96.0314C450.448 91.2038 442.12 86.005 433.473 81.3897C431.882 80.5409 428.965 81.2304 427.108 82.1323C421.432 84.997 416.128 88.6044 410.452 91.4691C390.719 101.602 373.692 113.75 371.199 138.365C371.04 139.957 368.228 142.344 366.372 142.609C346.851 145.633 335.924 158.577 328.816 175.341C326.8 180.116 327.119 185.951 326.376 191.256C327.012 191.362 327.649 191.415 328.285 191.522C333.325 167.808 345.26 150.408 370.615 145.05C372.154 144.731 374.116 142.185 374.329 140.54C376.609 120.328 389.287 108.18 405.837 98.7901C412.892 94.8113 419.417 89.9306 426.525 86.111C428.699 84.9439 432.572 84.7848 434.693 85.9519C442.438 90.1959 449.599 95.4478 457.237 99.851C472.674 108.763 484.025 120.594 486.624 139.002C487.208 143.246 489.224 145.421 493.52 146.27C504.66 148.392 513.995 154.174 520.096 163.511C525.718 172.158 529.644 181.867 533.834 190.142L533.781 190.195ZM525.082 204.147C525.718 204.041 526.355 203.935 527.044 203.882C527.522 202.821 528.265 201.813 528.371 200.699C531.076 178.1 512.988 153.378 490.603 149.718C485.245 148.869 482.964 147.172 482.699 141.601C482.009 127.914 475.008 117.198 464.239 109.4C454.32 102.238 443.658 96.0314 433.155 89.7184C431.776 88.9227 428.912 89.4002 427.32 90.302C420.69 94.0155 414.43 98.3126 407.8 102.026C391.25 111.31 379.262 123.617 377.882 143.83C377.776 145.633 374.965 148.551 373.162 148.816C353.853 151.31 342.395 163.14 335.606 180.222C332.635 187.649 331.256 195.5 334.757 203.67C336.614 201.283 337.568 198.736 337.568 196.19C337.356 173.803 352.633 155.607 374.7 152.901C379.527 152.318 380.8 150.355 381.118 146.005C382.338 130.938 388.863 118.578 401.381 109.984C410.081 103.989 419.204 98.6839 428.328 93.432C429.813 92.5832 432.678 93.0607 434.322 93.9625C440.741 97.5169 446.841 101.655 453.206 105.368C468.801 114.546 478.721 127.596 480.1 146.005C480.471 150.885 482.169 152.477 487.049 153.219C509.54 156.615 524.233 175.023 523.491 197.835C523.438 199.957 524.604 202.079 525.188 204.201L525.082 204.147ZM643.001 204.784C648.942 189.346 651.7 174.015 643.425 159.161C637.908 149.241 629.58 141.814 616.743 142.662C610.166 143.087 605.816 147.278 604.914 153.007C604.225 157.517 605.286 163.405 607.832 167.118C611.492 172.317 617.645 171.31 623.904 166.111C629.58 161.389 631.702 161.76 634.779 168.445C635.627 170.195 636.635 172.105 636.688 173.962C636.9 183.299 636.794 192.689 636.794 202.662C637.855 203.033 640.083 203.829 643.001 204.837V204.784ZM218.43 203.405C224.848 202.291 224.742 199.108 224.106 193.75C223.204 185.898 223.575 177.569 225.379 169.93C227.606 160.593 230.418 160.699 238.534 166.004C241.716 168.126 247.233 169.081 250.628 167.755C253.492 166.641 256.304 161.654 256.622 158.153C257.842 144.413 245.323 137.251 232.381 143.883C212.754 153.962 206.07 182.079 218.43 203.405ZM426.684 559.954C425.57 559.954 424.456 559.954 423.289 560.008C416.022 575.976 412.945 592.686 418.515 609.768C420.212 614.967 425.729 618.893 429.495 623.402C433.208 618.84 438.619 614.808 440.316 609.556C445.143 594.596 443.34 579.477 437.558 564.835C436.815 563.031 435.754 561.334 434.8 559.583C432.519 562.713 431.67 565.472 431.67 568.23C431.617 577.302 431.988 586.426 431.882 595.498C431.882 597.62 430.768 599.742 430.185 601.811C429.018 601.652 427.798 601.546 426.631 601.387V559.901L426.684 559.954ZM359.794 542.183C359.211 541.546 358.627 540.856 358.044 540.22C359.635 538.416 361.014 536.453 362.765 534.915C368.334 530.087 374.116 525.525 379.527 520.591C380.641 519.583 380.747 517.355 381.277 515.711C380.216 515.445 378.784 514.597 378.095 515.021C365.894 522.289 352.474 528.496 345.631 541.758C343.669 545.525 344.146 552.687 346.639 555.923C348.602 558.522 355.392 558.31 359.9 557.832C363.295 557.461 366.849 555.127 369.448 552.687C375.708 546.851 381.755 540.644 387.165 534.013C388.385 532.474 387.271 528.23 385.998 525.896C385.415 524.888 381.33 524.782 379.58 525.684C376.556 527.17 374.063 529.769 371.464 531.997C367.539 535.339 363.667 538.841 359.741 542.236L359.794 542.183ZM479.198 514.066C478.349 514.809 477.554 515.551 476.705 516.294C478.243 518.257 479.622 520.485 481.426 522.183C487.208 527.488 493.202 532.527 498.984 537.832C499.939 538.734 500.257 540.379 500.84 541.652C500.416 541.97 499.992 542.289 499.62 542.607C491.664 535.976 483.707 529.398 474.053 521.334C472.621 526.639 470.021 531.573 471.188 532.846C479.357 541.493 487.897 549.928 497.18 557.355C501.53 560.856 508.267 561.97 512.722 556.877C517.39 551.572 516.064 545.047 512.351 539.742C503.917 527.753 491.292 521.228 479.145 514.066H479.198ZM428.699 368.55C425.729 376.507 422.334 383.138 420.743 390.141C417.666 403.987 417.189 417.833 425.411 430.618C428.434 435.287 430.927 435.181 434.163 430.724C444.878 416.136 442.809 383.722 428.699 368.55ZM430.079 344.094C409.55 366.322 405.254 404.73 416.128 421.281C413.104 405.101 414.43 390.088 421.273 375.977C423.501 371.414 427.267 367.595 430.344 363.404C433.155 367.595 436.656 371.467 438.672 376.03C445.992 392.528 447.53 409.557 441.748 426.958C457.291 401.547 448.273 365.101 430.079 344.094ZM282.508 231.309C282.19 246.853 287.971 258.418 299.588 267.33C307.757 273.59 310.462 273.113 318.525 266.959C322.557 263.882 323.777 261.07 323.83 256.137C323.83 252.635 326.694 249.134 328.179 245.58C329.134 243.192 329.93 240.752 330.832 238.365C311.576 255.341 304.097 254.386 282.561 231.309H282.508ZM531.341 238.1C530.758 238.365 530.174 238.683 529.538 238.948C530.599 241.389 531.712 243.829 532.667 246.269C534.152 250.036 537.176 254.121 536.646 257.675C535.372 266.11 542.534 268.073 546.671 271.309C548.899 273.06 555.795 271.521 558.606 269.187C564.494 264.306 570.064 258.365 573.936 251.839C577.013 246.641 577.384 239.85 578.975 233.75C578.286 233.59 577.596 233.431 576.907 233.272C558.5 254.863 548.581 255.924 531.235 238.1H531.341ZM429.548 461.759C426.896 467.435 424.774 473.111 421.75 478.31C414.802 490.353 415.969 501.705 425.994 511.361C427.214 512.581 430.132 513.483 431.458 512.899C438.247 509.716 444.984 492.793 441.961 486.268C438.195 478.098 433.845 470.247 429.495 461.759H429.548ZM469.491 508.231C468.483 508.231 467.475 508.231 466.467 508.231C460.155 523.562 448.591 533.854 435.012 542.395C431.139 544.835 428.063 545.1 424.297 542.501C412.309 534.172 400.586 525.631 394.592 511.52C394.008 510.14 391.409 509.663 389.764 508.761C389.287 510.671 387.802 513.058 388.438 514.437C390.719 519.265 392.841 524.782 396.66 528.177C406.208 536.612 416.605 544.092 426.843 551.626C428.116 552.527 431.246 552.262 432.678 551.307C440.688 546.002 449.016 540.963 456.07 534.596C461.587 529.61 465.831 523.085 469.809 516.719C471.029 514.756 469.65 511.095 469.438 508.231H469.491ZM400.055 502.289C394.538 505.949 397.933 511.467 400.639 514.384C408.861 523.297 418.09 531.307 427.055 539.477C427.904 540.273 430.132 540.591 431.033 540.061C443.764 532.368 455.646 523.668 461.163 509.026C461.852 507.17 460.367 504.517 459.784 501.705C453.843 510.246 449.758 517.886 443.976 523.933C433.845 534.596 425.729 534.65 415.597 524.146C409.656 517.939 405.466 510.087 400.055 502.289ZM427.745 269.134C427.161 268.869 426.631 268.603 426.047 268.391C421.061 274.704 412.574 280.221 414.377 288.975C417.136 302.502 422.546 315.447 426.843 328.656C427.108 328.603 427.426 328.55 427.692 328.444V269.134H427.745ZM229.039 209.983C224.371 229.081 232.752 253.219 247.18 258.524C245.907 253.537 244.316 248.657 243.414 243.617C242.459 238.312 241.345 232.901 241.663 227.596C242.247 217.888 236.412 213.75 229.039 209.983ZM614.25 260.646C630.694 249.399 635.044 231.044 631.118 209.081C626.504 214.598 620.881 218.365 619.767 223.139C616.849 235.765 615.842 248.869 614.197 260.646H614.25ZM433.102 326.799C433.102 326.799 433.58 327.065 433.792 327.224C437.027 317.516 440.21 307.754 443.499 298.046C447.742 285.42 444.931 277.038 433.102 268.603V326.799ZM122.684 331.574C118.228 324.412 114.462 318.364 110.961 312.688C101.36 327.489 103.216 346.693 117.22 361.494C111.863 348.762 115.576 339.001 122.684 331.574ZM410.558 493.27C409.656 495.286 408.808 496.347 408.755 497.408C408.277 506.533 417.401 520.697 425.994 524.04C427.532 524.623 429.389 524.994 430.98 524.729C440.847 523.085 451.986 506.055 449.864 496.029C449.652 495.021 449.387 494.066 449.069 492.634C444.507 500.591 441.589 506.851 437.558 512.262C431.829 520.008 427.532 520.061 421.857 512.422C417.666 506.851 414.696 500.379 410.505 493.217L410.558 493.27ZM430.821 67.4904C441.112 57.7292 441.112 37.8885 430.821 29.7719C420.796 37.9946 420.743 59.2146 430.821 67.4904ZM738.004 332.794C739.701 336.03 743.096 340.486 744.369 345.473C745.589 350.301 744.634 355.659 744.634 360.964C756.676 348.762 758.373 325.685 749.249 314.651C745.801 320.168 742.088 326.163 738.004 332.794ZM782.88 393.695C790.253 396.242 796.937 398.576 803.726 400.91C802.612 388.337 801.658 377.833 800.756 367.648C795.504 375.287 790.041 383.245 782.88 393.642V393.695ZM59.9848 367.33C58.6587 377.038 57.2795 387.17 55.6351 399C61.0987 397.303 66.8276 395.87 72.2381 393.642C75.633 392.263 76.6409 389.717 73.7234 386.109C68.7902 380.062 64.4406 373.536 59.9848 367.33ZM248.347 193.484C241.823 188.073 235.934 183.246 230.047 178.418C227.288 191.256 232.699 204.413 242.565 208.975C244.528 203.723 246.49 198.524 248.347 193.537V193.484ZM199.599 135.076C195.992 144.095 192.279 152.318 189.52 160.859C188.035 165.421 187.876 170.514 187.929 175.341C187.929 177.729 189.945 180.063 190.687 181.601C195.143 169.877 199.44 158.471 203.842 147.119C205.805 141.973 204.638 138.1 199.599 135.076ZM661.778 136.031C657.482 138.206 654.936 141.814 656.792 146.959C661.089 158.949 665.81 170.832 670.425 182.927C671.061 181.548 673.077 179.267 672.971 177.092C672.652 171.097 672.122 164.943 670.478 159.214C668.303 151.575 664.961 144.254 661.831 135.978L661.778 136.031ZM321.761 172.848C325.792 164.731 320.011 158.577 309.773 158.896C302.559 159.108 298.899 164.413 303.036 170.195C307.068 175.819 312.849 180.169 318.844 186.004C323.618 173.06 308.765 173.325 308.5 163.776C313.433 167.172 317.305 169.877 321.708 172.901L321.761 172.848ZM541.738 185.421C546.3 182.291 550.49 180.381 553.355 177.304C557.227 173.113 562.638 167.808 557.651 161.973C553.143 156.668 546.83 159.479 541.367 162.132C541.154 162.238 540.942 162.344 540.73 162.503C535.85 165.474 535.16 168.816 539.775 173.06C544.019 170.355 548.05 167.755 552.082 165.209C551.127 173.591 538.661 173.75 541.791 185.474L541.738 185.421ZM375.655 346.746C371.252 353.537 371.57 357.674 378.307 360.751C386.104 364.306 393.531 368.603 401.169 372.422C402.707 373.218 404.564 373.43 406.261 373.908C406.739 373.165 407.216 372.369 407.694 371.627C398.888 361.335 386.423 355.605 375.708 346.746H375.655ZM630.058 178.577C627.14 181.919 624.859 185.102 621.995 187.543C619.13 189.983 615.682 191.734 612.5 193.697C614.622 199.638 616.531 204.996 618.547 210.566C629.686 202.238 634.089 190.567 630.111 178.524L630.058 178.577ZM452.251 372.316C452.941 373.165 453.684 373.961 454.373 374.81C463.762 370.088 473.098 365.314 482.487 360.592C488.799 357.409 488.322 353.112 484.343 347.118C473.469 355.871 460.898 361.653 452.251 372.316ZM449.175 363.033L451.774 365.526C460.473 359.372 469.12 353.059 477.925 347.011C483.601 343.139 483.123 339.584 477.448 335.022C467.793 344.306 456.601 351.892 449.175 363.033ZM381.967 334.757C376.768 339.372 376.291 343.033 382.391 346.958C388.544 350.884 394.273 355.553 400.267 359.743C403.132 361.759 406.155 363.457 409.603 365.579C409.869 359.478 397.244 345.897 381.914 334.757H381.967ZM406.049 64.4136C406.898 63.9892 407.747 63.5117 408.542 63.0873C411.884 68.4984 415.173 73.9095 418.515 79.3206C419.31 79.3206 420.159 79.3207 420.955 79.3737C421.432 77.0926 423.024 74.2279 422.122 72.7425C419.841 68.8168 417.029 64.8911 413.475 62.1325C411.46 60.594 407.11 60.2226 404.829 61.3897C403.026 62.2915 401.859 66.3764 402.071 68.9758C402.389 72.7424 403.609 76.7212 405.466 80.0103C406.527 81.9201 409.762 82.5567 411.99 83.7768C411.99 81.4426 412.627 78.8962 411.884 76.8273C410.293 72.5302 408.012 68.4984 405.996 64.3605L406.049 64.4136ZM445.09 356.03C445.833 356.401 446.629 356.773 447.371 357.144C455.752 349.399 464.24 341.812 472.302 333.749C473.31 332.741 472.78 328.603 471.507 327.489C470.34 326.428 466.361 326.587 465.247 327.754C458.935 334.545 452.888 341.653 447.159 348.921C445.727 350.725 445.727 353.59 445.09 355.977V356.03ZM412.256 356.613C413.104 356.242 413.953 355.871 414.802 355.552C414.536 353.696 414.855 351.308 413.847 350.035C407.641 342.184 401.222 334.439 394.539 327.065C393.584 326.004 389.446 326.11 388.704 327.065C387.537 328.603 387.006 332.423 388.014 333.484C395.812 341.441 404.087 348.974 412.202 356.613H412.256ZM453.047 62.8221C453.949 63.2996 454.851 63.777 455.805 64.2544C453.418 69.135 450.872 74.0156 448.75 79.0023C448.22 80.2225 449.122 82.0261 449.387 83.5646C451.137 83.2463 454.002 83.4585 454.373 82.6097C456.601 77.3047 458.776 71.8937 459.784 66.2704C460.102 64.5728 456.919 61.0183 454.744 60.3817C449.175 58.7372 437.452 70.0368 438.619 75.6071C438.937 77.0925 440.794 78.2596 442.597 80.2755C446.523 73.8034 449.811 68.2863 453.1 62.8221H453.047ZM371.835 361.812C370.881 367.064 368.865 371.627 374.7 373.908C382.922 377.038 391.303 379.955 399.684 382.661C400.957 383.085 402.707 381.971 404.246 381.6C403.609 380.221 403.291 378.152 402.23 377.621C392.364 372.316 382.391 367.277 371.782 361.865L371.835 361.812ZM455.01 379.266C455.222 380.274 455.434 381.229 455.593 382.237C457.715 382.237 459.996 382.714 461.959 382.131C469.013 380.009 476.015 377.621 482.964 375.181C490.178 372.634 490.762 370.937 487.155 362.449C476.387 368.072 465.672 373.696 455.01 379.266ZM458.67 89.188C470.923 93.8564 469.385 79.2146 478.19 79.3737C475.591 83.7769 473.098 87.2251 471.507 91.0978C470.817 92.7423 472.196 95.2356 472.621 97.3576C474.583 96.721 477.66 96.668 478.349 95.3948C480.206 91.7874 481.744 87.7557 482.116 83.7239C482.381 81.2305 481.055 77.1456 479.251 76.1907C476.97 75.0236 472.567 75.2357 470.552 76.7742C466.467 79.798 463.338 84.2013 458.67 89.188ZM464.346 322.131C454.691 315.924 454.373 315.924 449.387 324.571C446.469 329.664 443.446 334.757 440.9 340.062C439.998 342.025 440.422 344.624 440.263 346.905C441.112 347.117 442.014 347.33 442.862 347.542C449.917 339.213 456.919 330.884 464.346 322.131ZM345.419 126.323C346.162 125.74 346.904 125.156 347.647 124.625C350.83 128.18 353.747 132.052 357.301 135.129C358.627 136.296 361.545 135.66 363.72 135.819C363.454 133.962 363.772 131.575 362.765 130.249C360.643 127.596 358.15 124.625 355.179 123.511C351.413 122.132 347.01 122.45 342.926 122.026C342.82 126.217 342.608 130.408 342.767 134.546C342.767 135.66 343.828 136.721 344.411 137.782C347.169 142.715 350.14 142.079 353.641 137.941C350.83 133.962 348.124 130.143 345.472 126.27L345.419 126.323ZM417.295 347.86C418.143 347.489 418.992 347.171 419.841 346.799C419.629 344.518 420 341.919 419.098 339.956C416.393 334.226 413.21 328.656 410.028 323.192C405.837 315.924 403.503 315.818 396.66 322.927C403.503 331.203 410.399 339.531 417.295 347.86ZM385.097 78.1004C386.635 79.5328 388.12 80.4878 389.075 81.8671C390.666 84.0421 391.621 86.7476 393.531 88.6044C394.751 89.8245 397.085 89.8776 398.888 90.4081C398.941 88.5513 399.737 86.2172 398.941 84.8379C397.403 82.1323 395.387 79.2146 392.788 77.7292C389.871 76.0316 385.309 74.2279 382.869 75.395C380.694 76.456 379.156 81.6549 379.58 84.6787C380.27 89.5593 382.763 94.2278 384.884 100.116C397.085 90.8326 381.967 85.7927 385.044 78.1004H385.097ZM506.675 139.586C509.964 140.275 512.404 141.654 514.102 140.965C518.716 139.161 521.952 126.747 518.717 123.193C514.367 118.365 509.54 121.442 505.561 124.042C502.538 126.005 500.045 128.923 497.764 131.787C496.968 132.742 497.021 135.925 497.605 136.19C499.09 136.88 501.583 137.304 502.75 136.509C504.925 135.076 506.41 132.583 508.267 130.673C510.282 128.657 512.404 126.801 514.473 124.838C515.056 125.368 515.64 125.952 516.17 126.482C513.253 130.461 510.388 134.44 506.622 139.586H506.675ZM328.922 159.532C338.576 150.779 323.246 147.649 325.262 139.692C327.702 141.867 329.612 143.246 331.097 144.997C332.794 147.066 334.014 149.506 335.447 151.787C340.91 148.233 342.82 146.164 339.16 142.344C334.227 137.198 326.376 135.235 322.769 138.525C318.26 142.609 320.806 152.052 328.922 159.532ZM531.766 159.957C538.714 155.448 541.155 149.559 539.935 142.503C539.563 140.487 536.699 137.676 534.736 137.463C527.999 136.721 523.331 140.7 519.3 146.482C520.944 148.021 522.43 149.4 523.968 150.832C528.052 147.331 531.659 144.201 535.956 140.434C537.229 148.498 522.96 150.726 531.766 159.904V159.957ZM364.356 100.328C367.486 103.83 370.562 107.278 373.745 110.885C378.201 105.315 376.132 100.912 368.547 97.8351C362.924 95.5539 359.158 97.7291 358.999 103.777C358.786 111.416 361.545 117.941 367.008 123.405C376.45 113.75 362.924 108.976 364.356 100.382V100.328ZM494.21 123.883C500.151 117.782 502.644 110.726 502.007 102.61C501.636 97.7291 498.347 96.1906 494.21 97.729C491.345 98.79 488.746 100.912 486.359 102.928C482.911 105.899 483.336 108.657 487.685 110.885C491.027 107.278 494.21 103.883 497.392 100.435C498.4 109.135 485.245 113.75 494.21 123.883ZM371.888 377.144C371.782 383.085 371.995 387.648 378.095 388.762C384.354 389.929 390.613 391.043 396.873 391.839C398.888 392.104 401.01 391.255 403.079 390.937C403.185 390.035 403.291 389.133 403.397 388.284C393.106 384.677 382.816 381.016 371.888 377.197V377.144ZM457.025 392.051C458.086 392.422 458.564 392.741 458.988 392.688C466.043 391.573 473.045 390.088 480.1 389.292C486.89 388.496 488.64 384.889 487.579 378.788C474.636 380.433 458.988 387.117 457.025 392.051ZM411.513 294.969C406.898 308.073 414.112 330.354 425.358 337.834C420.637 323.245 416.234 309.611 411.513 294.969ZM448.432 296.189L435.171 337.303L437.187 337.94C444.295 324.996 454.479 313.059 448.485 296.242L448.432 296.189ZM484.343 392.528C475.644 394.014 467.953 395.181 460.367 396.879C458.935 397.197 458.033 399.849 456.866 401.441C458.458 402.183 460.049 403.616 461.587 403.563C465.99 403.563 470.34 402.502 474.689 402.555C480.949 402.661 483.336 399.319 484.29 392.528H484.343ZM376.026 392.369C376.556 399.266 378.89 402.343 384.725 402.396C389.128 402.396 393.478 403.191 397.827 403.244C399.419 403.244 401.01 401.971 402.601 401.282C401.7 399.796 401.01 397.197 399.79 396.931C392.098 395.181 384.354 393.908 375.973 392.369H376.026ZM477.925 406.215C470.764 406.852 464.77 407.223 458.829 407.966C457.662 408.125 456.336 409.398 455.752 410.512C455.434 411.149 456.177 412.953 456.919 413.483C461.587 416.772 473.947 413.165 477.925 406.215ZM382.71 406.109C385.574 413.218 396.554 416.984 402.23 413.377C403.079 412.847 404.087 411.202 403.821 410.565C403.397 409.451 402.071 408.019 401.01 407.86C395.069 407.064 389.128 406.64 382.763 406.056L382.71 406.109ZM354.755 578.045C362.446 576.93 369.448 569.026 370.297 560.75C361.598 563.35 357.46 569.875 354.755 578.045ZM487.155 560.697C490.55 569.928 495.536 575.551 504.076 580.06C501.901 569.822 497.18 563.933 487.155 560.697ZM394.008 605.1C403.768 601.174 408.914 593.058 407.163 584.304C402.177 592.209 398.093 598.628 394.008 605.1ZM460.632 606.214C461.852 605.471 463.072 604.729 464.239 603.986C460.102 597.832 455.964 591.678 451.774 585.525C450.713 586.214 449.652 586.904 448.591 587.647C452.57 593.853 456.601 600.007 460.579 606.214H460.632ZM392.576 418.894C395.546 424.358 401.912 425.048 407.694 418.894H392.576ZM467.74 421.706C467.634 420.751 467.528 419.849 467.422 418.894C458.405 416.931 456.07 417.303 451.456 423.191C458.033 422.555 462.913 422.13 467.793 421.653L467.74 421.706ZM458.617 428.019C450.554 425.048 448.114 428.868 445.515 436.029C450.607 432.899 454.108 430.777 458.617 428.019ZM403.609 425.578C403.026 426.533 402.495 427.435 401.912 428.39C405.466 430.512 409.02 432.634 412.574 434.756C413.104 433.854 413.635 433.006 414.165 432.104C410.611 429.929 407.11 427.754 403.556 425.578H403.609Z" fill="white"/>
<path d="M426.843 22.8223C426.843 22.8223 429.76 17.3051 432.094 19.0027C434.428 20.7003 435.701 22.8223 435.701 22.8223H426.843Z" fill="white"/>
<path d="M415.014 22.8223C415.014 22.8223 421.856 3.6712 431.033 4.4139C440.21 5.15661 446.045 22.8223 446.045 22.8223H450.501C450.501 22.8223 440.157 0.594289 431.299 0.010738C422.44 -0.572813 410.611 22.8223 410.611 22.8223H415.067H415.014Z" fill="white"/>
</svg>
