<svg width="121" height="1229" viewBox="0 0 121 1229" fill="none" xmlns="http://www.w3.org/2000/svg">
<path d="M61.6379 0.159151C61.6379 11.4588 61.4788 22.8115 61.6379 34.1112C61.8501 46.5249 62.4335 58.8856 62.7518 71.2993C62.9109 76.6574 62.7518 82.0154 62.9109 87.3204C63.2292 104.296 63.6006 121.219 63.9719 138.195C64.1841 148.593 64.3962 158.991 64.6084 169.389C65.0328 187.002 65.4571 204.561 65.8814 222.174C66.0936 232.147 66.0936 242.121 66.4119 252.094C66.8363 266.205 67.5258 280.264 67.8441 294.375C68.1093 304.773 67.8441 315.171 68.0563 325.568C68.2685 337.345 68.7989 349.07 69.0641 360.847C69.3824 373.473 69.5415 386.045 69.8067 398.671C70.0719 411.987 70.4963 425.302 70.6554 438.618C70.7615 449.016 70.8146 459.414 70.4963 469.812C70.2841 476.443 67.5259 482.225 62.8049 486.947C61.6379 488.114 61.4787 488.857 62.6987 490.077C67.738 495.116 72.6712 500.156 77.4982 505.09C71.8755 510.713 65.8814 516.655 60.2587 522.331C54.4768 516.496 48.5888 510.607 42.8069 504.772C45.7774 502.119 49.0132 499.413 51.9837 496.496C54.0524 494.48 55.856 492.146 57.7656 489.971C58.6143 489.016 58.6143 488.008 57.7656 487.106C50.4454 479.944 49.2254 470.66 49.3315 461.27C49.4906 443.393 50.2862 425.515 50.6045 407.637C50.8697 393.313 50.7107 378.99 51.0289 364.666C51.1881 355.913 52.0367 347.16 52.2489 338.406C52.5671 323.818 52.4081 309.176 52.7264 294.587C53.0447 280.847 53.6811 267.107 54.1055 253.367C54.2646 248.646 54.2647 243.977 54.3708 239.256C55.0073 208.646 55.5907 177.983 56.2803 147.373C56.7047 128.699 57.2351 110.026 57.7125 91.4053C57.9777 79.5751 58.137 67.7449 58.3491 55.9148C58.6144 40.9016 58.8794 25.8354 59.1977 10.8222C59.2508 7.74531 59.6222 4.72146 59.9404 1.6976C59.9935 1.11405 60.3648 0.530501 60.5769 0C60.9482 0.0530501 61.3726 0.1061 61.7439 0.2122L61.6379 0.159151Z" fill="white"/>
<path d="M60.2589 1228.64C59.9936 1227.31 59.5163 1225.99 59.4632 1224.66C59.198 1215.91 59.0389 1207.15 58.8267 1198.4C58.6145 1187.63 58.3493 1176.92 58.1371 1166.15C57.9249 1154.53 57.8718 1142.91 57.5535 1131.29C57.1822 1117.61 56.4927 1103.97 56.1745 1090.29C55.9093 1080.95 56.1744 1071.61 55.9623 1062.27C55.644 1044.34 55.1665 1026.36 54.7422 1008.43C54.53 999.888 54.4771 991.347 54.2118 982.806C53.7344 967.209 53.0979 951.612 52.7266 936.016C52.5144 926.838 52.7266 917.607 52.5144 908.43C52.1431 894.636 51.4535 880.79 51.0291 866.997C50.87 861.958 51.029 856.865 50.9229 851.825C50.6047 829.332 50.2864 806.786 49.9151 784.292C49.809 778.298 49.1195 772.303 49.3317 766.361C49.4908 761.375 50.0743 756.176 51.5065 751.454C52.6204 747.847 55.3257 744.717 57.5535 741.534C58.5083 740.155 58.7736 739.306 57.5535 738.086C52.9386 733.576 48.3238 729.014 43.7089 724.505C43.3376 724.187 42.9662 723.868 42.6479 723.603C48.5359 717.714 54.371 711.879 59.8346 706.415C65.4043 712.144 71.3453 718.192 76.8619 723.868C72.5653 728.218 67.526 733.364 62.4337 738.563C61.7441 739.253 61.1607 739.942 62.1686 740.897C68.7992 747.157 70.9209 755.221 70.9209 763.974C70.8679 775.009 70.6027 786.043 70.4436 797.13C70.2314 810.499 70.0191 823.921 69.7008 837.289C69.2234 856.759 68.5869 876.175 68.1625 895.644C67.9503 904.61 68.1626 913.628 67.9504 922.594C67.5261 937.978 66.8895 953.363 66.4121 968.747C66.253 973.946 66.4121 979.145 66.253 984.344C65.8286 1006.84 65.4042 1029.38 64.9268 1051.88C64.2373 1086.31 63.5477 1120.68 62.8051 1155.11C62.4868 1168.27 61.9033 1181.48 61.585 1194.63C61.3198 1205.51 61.2667 1216.44 61.0545 1227.31C61.0545 1227.74 60.9484 1228.11 60.8954 1228.53C60.6302 1228.59 60.4181 1228.64 60.1528 1228.69L60.2589 1228.64Z" fill="white"/>
<path d="M92.9344 614.002C95.5866 615.858 98.0267 617.185 100.042 619.041C105.294 623.869 107.84 629.864 106.355 637.078C104.816 644.346 100.679 649.386 93.4118 651.508C87.3647 653.312 79.9384 650.288 76.3313 644.665C73.2547 639.837 73.7852 632.888 77.5514 628.537C81.1054 624.506 86.1447 623.338 90.123 625.673C90.8657 626.097 91.5022 626.681 92.0857 627.317C94.1544 629.758 93.3057 632.41 90.2822 633.206C89.1682 633.524 88.0543 633.577 86.9403 633.789C83.8107 634.373 82.4846 637.397 84.1289 640.102C86.516 644.028 91.9266 644.718 95.6397 641.482C101.103 636.707 100.679 627.582 94.791 622.914C86.9934 616.76 73.0957 617.238 66.7833 629.28C61.9563 638.511 62.2214 647.582 68.0564 656.336C69.1703 657.98 70.5494 659.094 72.459 659.837C77.0209 661.588 80.628 664.346 81.9541 669.439C83.2802 674.532 80.2037 680.473 75.2705 682.277C71.6635 683.55 67.1016 681.11 66.1468 677.396C65.5633 675.115 67.2606 672.357 69.6476 672.198C70.3372 672.198 71.3452 672.834 71.7696 673.471C72.3 674.267 72.1409 675.434 72.6183 676.282C73.1488 677.184 74.0504 678.404 74.793 678.458C75.7478 678.458 77.2331 677.715 77.6575 676.866C78.347 675.646 78.7183 673.948 78.4531 672.622C77.8696 669.439 75.8009 667.317 72.7243 666.362C69.6477 665.407 66.7303 665.672 64.1311 667.848C62.6458 669.121 62.2745 670.553 63.2824 672.145C64.1841 673.683 64.078 674.956 63.1232 676.495C62.6989 677.237 62.7519 678.564 63.1232 679.412C64.5554 682.967 66.0937 686.521 65.8815 690.5C65.6693 694.585 64.2372 698.298 62.0093 701.693C60.7363 703.656 59.7814 703.656 58.5084 701.693C54.583 695.434 53.3629 688.802 56.4395 681.8C57.3943 679.625 58.2961 677.556 56.8109 675.168C56.3865 674.532 56.8109 673.099 57.2883 672.251C58.19 670.341 57.7127 669.015 56.1744 667.794C51.5064 664.134 44.2393 666.256 42.2236 671.879C41.4279 674.107 42.0114 676.548 43.7088 677.874C45.5654 679.306 47.2097 678.829 47.9523 676.601C48.1115 676.07 48.2176 675.487 48.3768 674.956C48.695 673.683 49.0133 672.091 50.6577 672.516C51.9838 672.834 53.5751 673.683 54.1586 674.744C55.0074 676.389 54.7421 678.298 53.3099 679.89C49.6498 683.975 43.4436 683.444 40.367 678.723C36.866 673.365 38.033 666.627 43.0723 662.702C44.0801 661.906 45.141 661.11 46.361 660.739C52.4082 658.882 54.6361 653.948 56.1744 648.59C59.0388 638.405 55.1135 627.582 46.7324 621.8C41.1627 617.98 28.5909 618.033 23.2334 625.673C19.5733 630.925 20.7404 638.776 25.9918 642.383C29.5459 644.824 34.9564 643.391 36.866 639.572C37.8208 637.609 36.8661 635.169 34.6382 634.373C33.0999 633.842 31.4554 633.63 29.9171 633.153C26.8405 632.092 26.257 629.758 28.5379 627.423C30.6066 625.301 33.0468 624.028 36.2295 624.824C41.587 626.15 44.9288 629.598 46.0428 634.956C47.2628 640.739 45.0879 645.513 40.367 648.962C32.145 654.85 21.536 652.251 16.4437 643.285C11.2983 634.161 13.9506 623.179 22.756 617.45C24.2943 616.442 25.8327 615.487 27.6362 614.32C26.204 613.365 24.984 612.569 23.711 611.827C17.6638 608.272 14.6402 602.755 13.6323 596.018C12.5184 588.75 18.9369 579.519 26.6284 577.132C33.9485 574.851 41.9052 578.564 45.4592 585.885C48.9602 593.047 43.3905 603.233 35.5399 604.081C32.5163 604.4 30.1293 603.073 28.2196 600.845C26.4161 598.723 26.9997 596.601 29.5989 595.54C30.7128 595.063 31.9328 594.851 33.0998 594.691C35.1686 594.426 36.4946 593.312 37.1842 591.402C37.8738 589.493 36.6538 588.325 35.3807 587.211C31.8798 584.134 27.3709 584.506 24.2413 588.007C19.9446 592.835 20.6873 600.845 24.7718 604.506C28.1136 607.477 31.6676 609.28 36.2295 609.227C47.7932 609.121 56.2273 601.164 57.076 589.439C57.5004 583.551 56.3334 578.14 53.2568 573.1C51.9837 570.978 50.2863 569.546 47.9523 568.432C45.4062 567.211 42.807 565.567 41.0035 563.392C35.8051 557.185 39.5182 548.644 44.3453 546.575C47.9524 545.037 52.5142 546.416 54.2647 549.917C55.1664 551.668 54.689 554.214 53.2568 555.381C51.1881 557.079 49.0662 556.389 48.4297 553.79C48.4297 553.737 48.4297 553.631 48.4297 553.578C48.1114 551.774 47.7932 549.917 45.3532 549.97C43.7088 549.97 42.0644 552.145 42.0113 554.373C41.9052 557.079 43.1784 559.148 45.2471 560.792C48.642 563.445 53.7873 563.18 56.7578 560.262C57.8717 559.201 57.9778 558.087 57.4474 556.601C57.023 555.381 56.917 553.843 57.3414 552.623C57.8718 551.031 57.9249 549.705 57.1822 548.167C53.7874 541.164 54.2117 534.267 58.1901 527.583C59.7814 524.931 60.7892 524.931 62.4336 527.53C66.3059 533.737 67.2607 540.209 64.1311 547.052C63.0702 549.281 62.1684 551.456 63.9189 553.843C64.2371 554.32 63.7597 555.54 63.3884 556.336C62.3805 558.723 62.5398 559.519 64.6616 561.005C67.6321 563.18 71.8226 563.286 74.8992 561.323C77.7636 559.466 79.1427 556.495 78.294 553.259C78.0287 552.145 77.0739 551.031 76.1191 550.342C74.793 549.44 73.5201 549.97 72.9366 551.562C72.5652 552.57 72.4061 553.631 72.0878 554.639C71.4513 556.389 69.966 556.92 68.3746 555.965C66.0937 554.639 65.4572 551.933 66.8894 549.652C69.6477 545.249 75.4295 544.771 79.0896 548.697C83.7045 553.578 83.4393 560.633 78.4531 565.249C77.3392 566.31 76.0131 567.371 74.5809 567.795C67.9503 569.917 65.6694 575.434 64.2902 581.323C61.7971 591.774 66.2528 602.49 75.1113 607.477C80.8401 610.713 92.8283 610.394 97.7084 602.649C100.679 597.927 100.042 590.713 96.0109 587.158C92.7752 584.347 88.4786 584.188 85.5611 586.84C84.1289 588.166 83.2803 589.705 83.8638 591.774C84.4473 593.79 85.8264 594.585 87.789 594.744C88.6378 594.798 89.5926 594.798 90.2822 595.222C91.3961 595.965 92.9874 596.866 93.1996 597.927C93.4117 599.095 92.6162 600.898 91.6614 601.8C88.3195 604.983 83.6515 604.771 79.6201 601.641C71.8225 595.593 73.3609 583.073 82.3785 578.458C92.1388 573.471 101.687 578.936 105.4 587.53C109.962 598.087 104.233 608.325 95.9049 612.728C95.1092 613.153 94.3135 613.577 93.1996 614.214L92.9344 614.002ZM60.2057 596.973C56.8108 604.453 52.0899 610.394 44.9289 613.842C48.1116 616.601 51.4003 618.829 53.9464 621.694C56.4395 624.559 58.1899 628.06 60.5239 631.667C63.7066 623.816 68.4277 617.927 76.3844 614.161C68.2155 610.394 63.6005 604.347 60.2057 596.92V596.973ZM60.2057 649.121C58.2961 652.569 56.6517 655.487 54.9543 658.564C58.6144 660.261 61.9031 660.208 65.351 658.617C63.7066 655.593 62.1684 652.675 60.2588 649.121H60.2057ZM65.139 570.129C61.691 567.954 57.5534 568.06 55.0603 570.554C57.1821 572.994 57.7126 576.548 60.577 578.723C62.1684 575.7 63.6537 572.888 65.139 570.129Z" fill="white"/>
<path d="M120.942 614.267C112.667 621.004 104.021 620.049 97.8147 614.267C102.801 608.537 113.622 607.53 120.942 614.267Z" fill="white"/>
<path d="M22.9153 614.426C18.6717 617.45 14.1629 619.784 8.69933 618.564C6.15317 618.033 3.71314 616.919 1.43221 615.752C-0.477404 614.797 -0.477404 613.736 1.43221 612.675C5.94102 610.129 10.662 608.166 15.9664 610.341C18.4065 611.349 20.7405 612.516 23.1275 613.63C23.1275 613.895 23.0214 614.161 22.9684 614.426H22.9153Z" fill="white"/>
</svg>
