<svg width="541" height="537" viewBox="0 0 541 537" fill="none" xmlns="http://www.w3.org/2000/svg">
<path d="M275.03 0.159144C279.008 9.65511 284.79 18.0371 292.11 25.0927C302.931 35.4375 314.336 45.1987 325.369 55.066C330.992 50.0262 336.137 45.0395 341.707 40.6364C352.634 32.0953 364.729 26.2598 378.732 24.5622C397.245 22.2811 414.591 31.7769 422.388 49.0182C429.815 65.4107 429.549 82.3337 425.836 99.4689C425.359 101.644 424.881 103.872 424.404 106.047C424.404 106.153 424.51 106.259 424.404 106.153C441.909 112.891 459.148 120.052 476.706 126.1C485.14 129.018 486.997 130.344 507.26 126.578C497.977 138.673 490.392 150.981 487.05 165.198C483.761 179.15 481.215 193.315 478.351 207.267C485.299 209.495 491.771 211.352 498.03 213.739C509.17 217.983 519.089 224.243 527.205 233.049C545.399 252.943 544.126 278.884 524.287 297.186C513.413 307.16 500.629 313.42 486.626 317.452C485.565 317.77 484.504 318.088 483.178 318.513C484.186 323.499 485.353 328.327 486.095 333.208C488.164 346.417 489.861 359.733 492.089 372.942C493.628 382.014 497.765 389.971 504.183 396.708C505.032 397.61 505.775 398.565 507.26 400.422C492.089 398.884 477.714 398.088 463.816 402.332C450.078 406.523 436.551 411.35 423.025 415.913C424.563 423.34 426.42 430.395 427.375 437.504C429.602 453.79 428.223 469.652 419.153 483.87C410.029 498.193 396.449 504.241 379.687 502.809C360.379 501.111 345.208 491.031 331.523 478.087C330.886 477.504 330.302 476.814 329.666 476.23C329.507 476.071 329.189 476.071 329.454 476.178C318.58 484.666 307.971 492.941 297.415 501.323C293.224 504.665 289.14 508.22 285.161 511.827C279.061 517.451 274.552 524.135 272.165 532.145C271.794 533.472 271.264 534.745 270.786 536.018C270.733 536.23 270.415 536.336 269.884 536.814C269.248 535.541 268.611 534.373 268.134 533.206C261.822 517.981 252.433 505.037 240.02 494.268C231.586 487 223.152 479.732 213.975 471.881C212.49 473.525 211.058 475.382 209.413 477.026C198.804 487.583 186.816 495.859 172.388 500.528C148.04 508.379 125.496 498.246 116.267 474.745C112.076 464.188 110.962 453.101 112.182 441.854C112.925 434.905 114.357 428.061 115.577 420.74C111.227 419.255 106.453 417.823 101.838 416.019C89.6911 411.297 77.703 406.258 65.5027 401.748C56.432 398.406 46.99 397.451 37.442 399.998C36.275 400.316 35.0019 400.369 32.9332 400.634C34.6836 398.194 35.9037 396.231 37.3359 394.427C47.6796 380.847 53.1432 365.25 56.2198 348.698C57.8112 340.21 59.2964 331.722 61.1 323.234C61.6835 320.422 61.2591 319.255 58.2356 318.566C45.1335 315.648 32.9332 310.661 22.1651 302.491C10.7604 293.897 2.27326 283.34 0.363641 268.752C-1.65206 252.996 4.87245 240.423 15.9588 229.919C26.5678 219.84 39.4046 213.845 53.3024 209.813C54.4694 209.495 55.6364 209.07 56.4851 208.805C53.6207 190.45 50.9684 172.36 47.9449 154.376C46.4066 145.304 42.3751 137.294 35.9037 130.609C35.055 129.707 34.2593 128.753 32.6679 126.843C47.8388 128.328 62.2139 129.177 76.0586 124.933C89.7972 120.742 103.324 115.914 117.274 111.246C116.214 107.161 115.153 103.342 114.304 99.4689C111.068 84.9332 110.432 70.4505 114.994 56.0209C123.215 30.1855 146.555 18.4084 172.335 26.6842C186.392 31.1934 198.115 39.2572 208.618 49.3367C209.307 50.0263 210.05 50.6628 210.792 51.3524C216.097 46.8962 221.136 42.4931 226.388 38.3022C235.087 31.2996 243.999 24.6683 252.539 17.4535C258.215 12.679 263.095 7.10871 265.853 0H274.871L275.03 0.159144ZM270.574 28.0104C271.794 30.2916 272.696 31.777 273.385 33.3685C276.833 41.22 282.297 47.5859 288.821 52.997C294.869 58.0367 301.499 62.4399 307.281 67.7449C323.248 82.4398 331.576 100.318 327.915 122.493C326.218 132.731 322.24 142.174 317.36 151.299C315.609 154.588 313.753 157.771 311.79 161.219C315.662 163.076 319.216 164.827 322.929 166.577C323.407 165.888 323.831 165.41 324.149 164.933C330.409 154.164 335.448 142.864 338.737 130.822C343.192 114.482 343.67 98.2487 337.198 82.1745C331.416 67.798 321.391 56.8698 309.456 47.3207C296.513 36.976 284.1 26.0476 275.507 11.5649C273.916 8.85932 272.324 6.10086 270.468 2.91785C264.951 13.687 256.835 21.2732 247.924 28.1166C241.293 33.2094 234.822 38.6205 227.979 43.448C208.618 57.0288 199.706 75.5963 200.661 99.0975C201.244 113.58 203.684 127.745 208.83 141.325C211.906 149.442 215.726 157.294 219.28 165.463C225.168 162.97 230.154 160.848 235.299 158.673C233.973 156.339 232.753 154.323 231.586 152.254C225.221 140.848 219.598 129.124 217.423 116.074C214.187 96.9756 217.741 79.8934 232.965 66.6309C240.975 59.6283 249.568 53.2624 257.313 45.9945C261.609 41.9627 264.792 36.7637 268.399 31.9892C269.142 31.0343 269.619 29.8673 270.574 28.1166V28.0104ZM320.436 362.173C315.026 364.454 310.145 366.523 305.053 368.698C306.379 370.979 307.546 372.995 308.713 375.064C315.132 386.47 320.701 398.194 322.929 411.191C326.165 430.289 322.664 447.318 307.44 460.634C301.977 465.408 296.354 470.024 290.731 474.586C282.721 481.058 274.712 487.53 270.786 497.557C270.627 498.034 270.468 498.512 270.097 499.466C268.983 497.504 268.346 496.602 267.922 495.594C263.996 486.363 257.684 479.042 249.993 472.782C245.908 469.493 241.612 466.416 237.474 463.18C225.645 454.003 217.264 442.438 213.339 427.902C209.785 414.746 211.853 401.96 216.893 389.706C220.181 381.642 224.319 373.95 228.191 365.833C224.743 364.189 221.083 362.438 217.37 360.687C210.739 371.775 205.7 383.022 202.199 394.958C194.561 420.793 198.062 444.719 215.779 465.461C221.826 472.517 229.411 478.353 236.519 484.453C245.961 492.517 255.085 500.899 262.087 511.297C264.845 515.382 267.285 519.679 270.097 524.347C276.992 510.819 288.344 502.331 299.643 493.79C304.841 489.865 309.933 485.78 315.132 481.907C332.583 469.069 340.222 451.615 339.851 430.236C339.638 417.239 337.517 404.613 333.803 392.199C330.674 381.748 326.377 371.775 320.595 362.226L320.436 362.173ZM495.59 134.111C489.702 133.315 483.92 132.943 478.404 131.617C472.834 130.291 467.423 128.275 462.066 126.206C454.003 123.076 446.046 119.787 438.143 116.233C417.455 107.002 397.775 108.965 378.679 120.742C366.638 128.169 355.87 137.081 346.746 147.851C340.752 154.959 335.501 162.705 329.772 170.344C334.917 174.217 339.214 177.506 343.723 180.954C344.572 179.415 345.261 178.248 345.951 177.081C353.324 164.19 361.546 151.936 373.428 142.652C386 132.837 400.056 127.426 416.129 131.246C423.874 133.103 431.353 136.127 438.832 138.938C449.866 143.076 460.687 147.904 472.94 146.153C473.205 146.153 473.523 146.418 473.736 146.471C470.871 151.829 466.946 156.816 465.408 162.439C462.596 172.625 461.164 183.182 459.254 193.633C454.587 219.044 441.803 237.93 415.705 244.614C405.414 247.267 394.434 247.213 383.772 248.381C382.446 248.54 381.119 248.381 379.634 248.381C379.846 251.776 380.271 254.64 380.218 257.452C380.165 260.211 381.066 261.272 383.931 261.006C392.418 260.158 400.958 259.945 409.339 258.619C445.94 252.89 470.712 231.086 476.547 192.678C478.828 177.718 481.268 162.705 487.846 148.859C490.233 143.819 492.991 138.938 495.537 134.057L495.59 134.111ZM66.0331 380.9C67.3593 378.831 68.6854 377.186 69.5871 375.329C72.0803 370.183 75.2099 365.144 76.5891 359.68C78.7109 351.351 79.6126 342.704 80.9918 334.216C83.9623 316.019 91.6538 300.635 107.302 290.078C117.062 283.447 128.255 280.741 139.872 279.627C146.714 278.99 153.557 278.884 160.665 278.513C160.453 275.383 160.135 272.253 160.082 269.176C160.082 266.948 159.286 265.993 157.005 266.205C151.754 266.577 146.502 266.577 141.251 267.107C126.451 268.646 112.076 271.776 99.0801 279.415C78.2334 291.669 67.6775 310.608 63.9114 333.95C61.4713 349.017 59.1904 364.189 52.6128 378.194C50.1727 383.34 47.3614 388.327 44.55 393.844C59.1904 392.942 72.0272 398.353 84.811 403.658C90.8051 406.151 96.8522 408.539 102.846 411.191C123.746 420.475 143.479 417.982 162.575 406.045C180.186 395.011 194.508 380.74 205.912 363.499C207.398 361.218 208.724 358.884 210.103 356.497C205.541 353.048 201.297 349.812 196.789 346.364C195.356 348.804 194.03 351.032 192.757 353.26C185.808 365.091 177.905 376.178 166.977 384.719C154.247 394.639 140.084 399.892 123.852 395.966C116.214 394.109 108.999 390.767 101.467 388.38C93.139 385.727 84.811 383.181 76.3238 381.059C73.3003 380.316 69.9585 380.953 66.1392 380.953L66.0331 380.9ZM327.809 358.035C335.872 372.199 345.208 384.878 357.302 395.276C371.89 407.796 388.652 413.95 408.119 412.995C418.834 412.464 428.754 409.281 438.567 405.515C453.685 399.732 469.015 394.693 485.406 394.268C488.694 394.162 491.983 394.268 495.007 394.268C492.726 388.38 489.702 383.022 488.588 377.292C485.83 363.446 483.496 349.494 481.852 335.436C479.358 313.897 469.068 297.929 450.237 287.266C433.316 277.664 415.174 272.041 395.866 270.025C390.827 269.494 385.734 269.388 380.695 269.07C379.952 275.065 379.369 280.317 378.679 285.834C381.066 285.834 382.923 285.834 384.833 285.834C399.155 286.046 413.371 287.001 426.844 292.518C442.864 299.096 454.693 309.759 458.936 327.16C460.421 333.102 461.323 339.202 462.331 345.25C464.294 357.452 465.142 369.971 473.258 380.263C473.47 380.528 473.417 380.953 473.524 381.748C471.561 381.642 469.704 381.695 467.901 381.483C459.361 380.581 451.192 382.173 443.235 385.038C437.93 386.947 432.785 389.175 427.587 391.403C414.325 397.08 400.587 398.778 386.424 395.648C370.086 391.987 358.575 381.43 349.133 368.327C345.155 362.756 341.707 356.815 337.888 350.873C334.546 353.208 331.31 355.489 327.809 357.929V358.035ZM66.0862 145.623C72.2394 145.623 77.3847 145.941 82.424 145.569C93.6165 144.668 103.483 139.575 113.72 135.49C131.597 128.275 149.579 127.267 167.084 136.445C179.39 142.917 188.089 153.262 195.409 164.827C197.796 168.593 200.077 172.413 202.464 176.338C206.018 173.845 209.254 171.564 212.649 169.177C204.798 155.278 195.569 142.758 183.687 132.36C166.659 117.4 146.767 111.193 124.489 115.225C114.145 117.082 104.119 121.166 94.0939 124.668C78.8169 130.026 63.3809 133.792 47.0961 132.837C46.4596 132.837 45.77 133.05 44.8152 133.262C51.2867 143.447 53.7267 154.482 55.212 165.835C56.379 174.535 57.8112 183.182 58.713 191.882C60.9408 213.421 71.4968 229.335 90.3277 239.999C107.249 249.548 125.39 255.224 144.699 257.187C149.738 257.717 154.777 257.823 159.763 258.089C160.506 252.094 161.143 246.948 161.832 241.325C159.498 241.325 157.535 241.431 155.573 241.325C146.714 240.635 137.697 240.741 129.103 238.831C120.669 236.975 112.235 233.951 104.597 229.919C87.7815 221.06 81.4161 205.357 78.87 187.373C76.8012 173.102 76.6421 158.195 66.1392 145.569L66.0862 145.623ZM375.815 263.606C375.815 205.516 328.499 158.195 270.362 158.036C212.278 157.877 164.59 205.463 164.59 263.659C164.59 321.749 211.906 369.069 270.044 369.229C328.128 369.388 375.815 321.802 375.815 263.606ZM399.897 106.472C402.868 106.1 405.52 105.941 408.013 105.304C409.127 105.039 410.612 104.084 410.878 103.076C415.174 88.9649 416.925 74.6415 412.469 60.2119C407.324 43.5011 394.009 35.2783 376.876 38.4613C359.477 41.6974 346.693 52.4136 335.395 65.2517C334.97 65.7291 334.652 66.7901 334.917 67.2145C336.403 69.867 338.047 72.4664 339.744 75.225C340.964 73.9518 341.813 73.05 342.662 72.1481C350.088 64.4559 358.363 58.1429 368.919 55.3843C383.559 51.5116 396.608 58.4081 400.64 72.8908C402.231 78.5671 402.443 84.774 402.337 90.6626C402.231 95.8084 400.746 100.954 399.844 106.418L399.897 106.472ZM200.608 451.828C199.441 453.154 198.645 454.056 197.797 454.958C190.423 462.65 182.148 468.963 171.645 471.774C156.793 475.7 143.744 468.857 139.712 454.162C138.174 448.485 137.962 442.332 138.121 436.39C138.227 431.244 139.712 426.151 140.614 420.793C137.644 421.165 134.779 421.377 132.021 421.96C131.066 422.173 129.846 423.233 129.581 424.188C125.39 438.088 123.693 452.093 127.83 466.31C132.71 483.233 145.972 491.827 163.264 488.803C180.822 485.727 193.659 474.904 205.064 462.013C205.541 461.483 205.594 460.103 205.276 459.414C204.003 456.973 202.518 454.692 200.767 451.775L200.608 451.828ZM69.1097 229.601C67.4654 227.532 65.874 225.304 64.0705 223.288C63.3809 222.545 61.9487 221.802 61.1 222.015C47.0961 225.251 34.1532 230.662 23.8625 241.113C10.283 254.853 10.4422 272.837 24.1277 286.47C35.4793 297.77 49.8014 303.075 65.1314 306.205C65.9801 306.364 67.4654 305.887 67.9428 305.25C69.5341 302.916 70.7541 300.37 72.2924 297.664C70.3298 297.187 68.7915 296.762 67.2532 296.391C57.9173 294.057 49.271 290.237 42.0038 283.712C31.1296 273.951 28.9018 260.158 37.1237 249.441C40.6247 244.879 45.2926 240.9 50.2258 237.93C56.0607 234.481 62.6913 232.412 69.1628 229.654L69.1097 229.601ZM398.465 417.875C399.102 419.997 399.579 421.642 400.056 423.287C402.496 431.669 403.451 440.156 402.125 448.91C399.579 466.151 386.636 475.647 370.086 472.146C362.713 470.607 356.294 467 350.513 462.278C347.436 459.785 344.625 457.026 341.548 454.268C340.328 457.239 339.002 459.838 338.206 462.544C337.888 463.552 338.365 465.249 339.108 465.992C348.126 475.594 358.416 483.339 371.147 487.477C389.819 493.525 405.732 486.31 411.991 468.379C417.773 451.828 414.962 435.541 409.445 419.467C409.233 418.83 408.278 417.982 407.642 417.929C404.83 417.769 401.966 417.875 398.518 417.875H398.465ZM198.857 72.997C200.024 70.1853 201.297 67.6918 202.04 65.0924C202.358 63.9783 202.04 62.1217 201.297 61.2729C192.227 51.5117 181.83 43.7133 168.94 39.6284C150.321 33.7929 134.779 40.9546 128.467 58.8325C122.632 75.3311 125.496 91.6706 131.013 107.692C131.278 108.381 132.392 109.177 133.188 109.23C135.893 109.442 138.652 109.283 141.834 109.283C141.304 107.32 140.932 105.782 140.455 104.243C137.962 95.7554 136.954 87.1613 138.28 78.302C140.826 61.1668 153.398 51.777 169.948 54.96C177.48 56.4454 184.005 60.1058 189.893 64.8803C192.969 67.3737 195.834 70.1322 198.91 72.8908L198.857 72.997ZM470.924 297.134C472.887 299.68 474.531 302.014 476.441 304.136C477.131 304.879 478.616 305.462 479.518 305.25C493.468 301.961 506.411 296.497 516.649 286.046C529.008 273.473 530.122 257.558 519.089 244.083C507.684 230.184 491.718 224.455 474.744 221.007C474.054 220.848 472.834 221.537 472.41 222.227C470.924 224.508 469.704 226.895 468.378 229.282C468.749 229.601 468.909 229.866 469.121 229.919C470.553 230.29 472.038 230.662 473.47 231.033C483.443 233.633 492.62 237.717 499.993 245.144C511.026 256.285 510.973 271.033 499.993 282.227C494.635 287.691 488.111 291.298 481.003 293.951C477.767 295.171 474.425 296.072 470.977 297.186L470.924 297.134ZM186.339 408.592C184.27 410.873 182.785 412.571 181.3 414.215C174.987 421.165 168.516 428.008 159.233 431.085C158.49 431.35 157.801 432.093 157.376 432.783C153.398 439.255 154.459 448.008 159.657 451.987C164.962 456.019 172.547 454.586 178.011 448.485C178.329 448.114 178.806 447.743 178.966 447.318C179.496 445.621 180.133 443.923 180.292 442.226C180.61 437.769 180.133 433.154 180.981 428.804C182.201 422.332 184.323 416.019 186.339 408.592ZM354.067 117.718C354.067 117.718 354.438 117.93 354.597 118.036C356.135 116.286 357.727 114.535 359.265 112.785C364.729 106.737 370.245 100.477 378.043 97.5592C382.923 95.7555 384.302 92.4133 385.098 88.1163C386.371 81.0606 382.87 74.8536 376.823 73.2621C371.147 71.7767 361.864 76.5512 360.008 82.0154C359.795 82.652 359.848 83.5008 359.955 84.1905C361.122 91.2461 360.061 98.1426 358.098 104.933C356.878 109.23 355.446 113.474 354.12 117.718H354.067ZM438.302 263.288C438.302 263.288 438.408 263.765 438.408 263.977C439.734 264.242 441.06 264.508 442.439 264.773C451.51 266.63 460.846 268.274 468.272 274.163C472.144 277.187 475.433 276.868 479.305 275.436C486.36 272.784 489.861 267.213 488.376 261.006C487.103 255.489 478.351 249.654 472.569 250.502C471.879 250.609 471.137 250.98 470.606 251.404C465.036 256.179 458.3 258.513 451.404 260.317C447.107 261.431 442.704 262.333 438.355 263.288H438.302ZM102.157 263.924V263.288C100.884 263.022 99.6105 262.757 98.2844 262.545C89.1607 260.741 79.8248 259.15 72.3985 253.261C68.1549 249.919 64.5479 250.343 60.3573 252.094C53.6737 254.853 50.438 260.635 52.1354 266.63C53.6737 271.988 62.3731 277.611 67.9428 276.709C68.6323 276.603 69.375 276.232 69.9054 275.754C75.369 271.033 81.9996 268.752 88.7894 266.948C93.2451 265.781 97.7539 264.879 102.21 263.871L102.157 263.924ZM186.074 118.196C186.074 118.196 186.392 117.983 186.498 117.93C185.702 115.702 184.907 113.474 184.164 111.246C181.565 103.235 178.966 95.1188 180.292 86.6838C180.981 82.2276 179.231 79.5751 176.313 77.0287C170.691 72.0419 163.689 71.5645 159.021 75.9146C154.565 80.1056 153.822 90.1851 157.748 95.1188C158.172 95.6493 158.915 95.9676 159.498 96.339C164.219 99.3628 169.258 101.909 173.502 105.464C178.064 109.23 181.883 113.952 186.021 118.249L186.074 118.196ZM354.385 409.069C354.385 409.069 354.067 409.228 353.907 409.334C354.65 411.456 355.446 413.525 356.135 415.647C358.841 423.764 361.44 431.987 360.167 440.581C359.53 444.825 361.015 447.424 363.827 450.024C369.503 455.223 376.664 455.859 381.385 451.456C385.893 447.265 386.583 437.239 382.711 432.252C382.286 431.722 381.544 431.403 380.96 430.979C376.186 427.902 371.041 425.249 366.638 421.642C362.182 417.929 358.469 413.313 354.385 409.069ZM480.366 310.874C480.578 312.836 481.268 314.004 483.92 313.261C497.765 309.494 510.496 303.606 521.105 293.738C538.45 277.505 540.201 255.33 525.348 238.142C513.095 223.978 496.81 216.975 478.987 212.943C476.494 212.36 476.017 213.792 475.751 216.02C477.979 216.55 480.048 216.975 482.064 217.505C496.916 221.484 510.602 227.532 521.317 239.097C534.949 253.845 534.949 273.42 521.317 288.168C515.535 294.428 508.851 299.415 501.054 302.81C494.317 305.728 487.368 308.168 480.366 310.874ZM60.0391 216.391C58.9251 213.58 58.8721 213.474 56.5381 214.11C42.5343 217.771 29.6974 223.765 19.0885 233.845C0.681909 251.298 0.257549 274.534 18.0806 292.518C30.0157 304.561 45.0804 310.767 61.3652 314.428C63.8053 314.958 64.3887 313.632 64.6009 311.351C62.4791 310.82 60.4104 310.396 58.3947 309.812C43.5421 305.887 29.8035 299.786 19.1415 288.274C5.56204 273.579 5.45595 254.322 18.7702 239.468C24.393 233.208 30.9705 228.275 38.5559 224.879C45.5048 221.802 52.6658 219.256 59.986 216.391H60.0391ZM124.064 422.12C122.048 420.846 120.881 421.748 120.298 424.241C116.426 439.785 115.206 455.276 120.192 470.873C125.496 487.53 138.386 497.928 155.732 497.981C179.337 498.034 195.94 484.453 211.323 468.273C210.315 467.159 209.626 466.363 208.724 465.355C207.451 466.735 206.337 467.902 205.223 469.069C194.136 480.687 181.565 489.864 165.545 493.472C147.828 497.451 131.915 489.334 124.807 472.782C121.147 464.188 119.98 455.17 120.775 445.939C121.465 438.034 122.897 430.183 124.064 422.066V422.12ZM331.416 61.6973C331.841 61.4851 332.106 61.379 332.265 61.2198C333.22 60.2119 334.122 59.2039 335.077 58.1959C346.163 46.578 358.734 37.4533 374.754 33.7929C391.357 29.9733 406.634 36.9759 414.379 52.0952C418.834 60.7954 420.267 70.1853 419.63 79.7874C419.046 88.2223 417.508 96.5512 416.394 105.039C419.046 105.941 419.206 105.994 419.895 103.395C424.033 87.5326 425.253 71.5646 419.948 55.7026C413.901 37.6125 398.783 27.5861 379.793 29.4429C358.522 31.5118 343.139 43.9785 329.082 58.9917C330.037 60.0527 330.727 60.9015 331.416 61.6442V61.6973ZM205.488 58.4611C207.61 56.9757 208.246 55.7027 206.284 53.7929C195.94 43.4481 184.217 35.2253 170.054 31.0874C146.555 24.244 126.823 34.6948 119.715 58.0368C114.569 74.9598 116.797 91.7237 121.836 108.328C122.579 110.822 124.223 110.238 126.133 109.442C125.496 107.267 124.807 105.251 124.276 103.235C120.722 90.5564 119.396 77.7183 121.783 64.615C126.292 39.4692 148.147 26.9494 172.176 35.6497C185.172 40.3711 195.887 48.3817 205.488 58.5142V58.4611ZM334.864 468.804C332.955 470.395 332.212 471.562 334.016 473.366C344.89 484.241 357.196 492.941 372.367 496.708C395.017 502.331 413.636 491.933 420.532 469.811C425.836 452.782 423.661 435.912 418.622 419.202C417.879 416.761 416.394 416.974 414.591 417.769C414.591 418.088 414.432 418.353 414.485 418.565C415.015 420.369 415.546 422.173 416.076 423.976C419.683 436.655 421.115 449.546 418.622 462.597C416.129 475.7 409.87 486.363 397.086 491.827C385.416 496.814 374.011 494.48 362.872 489.546C352.051 484.772 343.086 477.451 334.864 468.857V468.804ZM298.051 101.113C304.098 95.8084 309.986 90.7157 316.193 85.2515C312.798 80.9545 309.668 77.0818 306.273 72.8378C300.757 80.2648 295.611 87.1083 290.466 94.0578C293.065 96.4982 295.346 98.567 298.051 101.113ZM224.16 442.013C227.555 446.31 230.684 450.236 234.079 454.48C239.596 447.053 244.688 440.21 249.887 433.207C247.181 430.767 244.847 428.592 242.301 426.257C236.307 431.456 230.525 436.496 224.16 442.013ZM87.5693 327.85C93.8817 328.592 99.9288 329.388 105.976 330.078C110.608 330.643 113.508 328.628 114.675 324.03C114.94 323.075 115.1 322.12 115.365 320.847C111.599 319.521 108.045 317.823 104.332 317.027C100.3 316.179 96.0565 311.404 92.5555 314.746C89.6911 317.452 89.1607 322.598 87.5693 326.682C87.4632 326.895 87.5693 327.16 87.5693 327.796V327.85ZM425.094 206.577C431.989 208.964 438.673 211.352 445.41 213.527C446.152 213.739 447.744 213.155 448.062 212.519C449.972 208.381 451.616 204.137 453.473 199.521C447.16 198.779 441.697 198.248 436.286 197.558C426.685 196.285 426.685 196.232 425.094 206.577ZM397.033 369.175C398.465 376.39 399.791 383.499 401.329 390.555C401.489 391.244 402.868 392.252 403.61 392.199C408.013 391.775 412.416 391.032 417.349 390.343C413.636 381.802 410.241 373.95 406.793 365.94C403.345 367.054 400.322 368.061 396.98 369.175H397.033ZM122.95 136.922C126.716 145.622 130.111 153.421 133.506 161.378C137.007 160.211 140.031 159.203 143.319 158.142C141.887 150.927 140.614 143.978 139.076 137.028C138.917 136.233 137.378 135.066 136.636 135.119C132.339 135.49 128.043 136.233 123.003 136.922H122.95ZM250.576 467.159C253.759 458.724 256.782 450.714 259.7 442.65C259.965 441.96 259.541 440.687 259.01 440.103C257.525 438.671 255.828 437.451 253.971 436.019C248.507 443.34 243.309 450.289 237.951 457.504C242.195 460.74 246.226 463.817 250.629 467.159H250.576ZM289.829 60.1588C286.647 68.5937 283.676 76.4983 280.812 84.4558C280.546 85.1985 280.759 86.5247 281.289 87.0552C282.827 88.5937 284.631 89.8137 286.541 91.2991C292.057 83.9252 297.256 76.9757 302.56 69.8139C298.316 66.5779 294.391 63.5541 289.882 60.1058L289.829 60.1588ZM112.288 335.754C104.225 334.799 96.0565 333.738 87.8876 332.889C87.3041 332.836 86.0841 333.897 85.978 334.534C85.2884 338.937 84.811 343.34 84.2806 348.168C85.7128 348.062 86.6676 348.062 87.5693 347.902C93.7225 346.895 99.8757 345.78 106.029 344.772C112.341 343.711 112.925 342.916 112.288 335.754ZM456.231 178.885C448.486 180.211 441.537 181.378 434.536 182.598C428.117 183.712 427.746 184.243 428.117 191.564C436.18 192.519 444.349 193.58 452.465 194.429C453.101 194.482 454.321 193.527 454.427 192.89C455.117 188.487 455.594 184.031 456.231 178.885ZM128.838 162.917C125.443 155.065 122.048 147.108 118.441 138.779C113.455 140.901 108.84 142.811 103.748 144.986C108.734 151.034 113.349 156.551 117.911 162.121C121.942 167.002 122.897 167.108 128.785 162.97L128.838 162.917ZM436.71 382.385C430.822 375.276 425.359 368.645 419.789 362.067C419.365 361.589 418.198 361.324 417.508 361.536C415.546 362.12 413.636 363.022 411.408 363.924C415.015 372.359 418.463 380.316 422.017 388.539C427.003 386.417 431.459 384.56 436.71 382.385ZM427.056 325.303C427.693 328.327 428.223 331.085 428.86 334.162C437.506 332.942 445.834 331.722 455.064 330.396C453.313 325.993 451.881 322.067 450.237 318.247C450.025 317.717 448.486 317.293 447.85 317.505C440.954 319.998 434.111 322.598 427.056 325.25V325.303ZM288.397 436.284C293.861 443.233 299.112 449.918 304.788 457.133C308.077 453.154 310.994 449.653 314.071 445.833C307.493 440.422 301.446 435.435 295.293 430.289C292.959 432.358 290.784 434.215 288.397 436.284ZM235.671 70.2383C232.912 73.5804 230.472 76.5512 227.979 79.522C226.812 80.9544 226.918 82.0685 228.403 83.2887C233.443 87.3735 238.429 91.6175 243.521 95.6493C244.158 96.1798 245.749 96.392 246.333 95.9676C248.295 94.5352 250.046 92.7315 251.955 90.9809C246.492 84.0313 241.24 77.4 235.671 70.2383ZM420.479 137.028C416.129 136.286 412.469 135.649 408.809 134.959C406.793 134.588 405.891 135.384 405.573 137.4C404.777 142.439 403.823 147.479 402.974 152.519C402.267 156.622 403.893 159.327 407.854 160.636C407.854 160.636 408.384 160.954 408.544 160.901C409.498 160.53 411.037 160.264 411.302 159.575C414.379 152.36 417.243 145.092 420.479 137.028ZM85.3415 196.922C86.9858 201.219 88.2589 204.879 89.8503 208.328C90.2216 209.123 92.0782 209.919 92.8738 209.654C99.1331 207.532 105.286 205.145 111.44 202.704C112.182 202.386 113.031 201.113 112.978 200.37C112.766 198.089 112.076 195.808 111.546 193.208C102.952 194.429 94.6243 195.649 85.3945 196.975L85.3415 196.922ZM119.927 390.289C123.958 391.032 127.459 391.616 130.96 392.305C133.453 392.836 134.567 391.934 134.938 389.388C135.84 383.34 136.901 377.345 137.962 371.351C138.333 369.388 137.909 368.274 135.84 367.796C134.62 367.531 133.4 367.107 132.286 366.576C130.377 365.674 129.369 366.258 128.626 368.168C125.868 375.223 123.003 382.279 119.821 390.236L119.927 390.289ZM300.969 460.263C295.293 452.995 289.988 446.257 284.737 439.626C279.751 442.332 278.584 443.552 279.486 445.727C282.721 453.525 286.116 461.27 289.67 469.493C293.542 466.31 297.096 463.445 300.969 460.315V460.263ZM239.384 67.1083C245.059 74.3231 250.364 81.0606 256.411 88.7528C258.268 86.1003 261.291 83.5009 260.814 82.1216C257.949 74.058 254.289 66.2596 250.682 57.9308C246.81 61.0607 243.256 63.9254 239.384 67.0554V67.1083ZM233.708 411.775C228.509 415.117 223.364 418.406 218.325 421.801C217.688 422.226 217.158 423.605 217.37 424.295C218.537 428.592 219.916 432.783 221.508 437.822C227.608 432.57 232.965 427.955 238.217 423.234C238.694 422.809 238.641 421.377 238.323 420.687C236.944 417.769 235.405 414.958 233.708 411.775ZM318.792 89.6017C312.32 95.225 306.698 100.105 301.128 104.933C303.037 108.647 304.788 112.042 306.644 115.596C311.843 112.254 316.829 109.124 321.656 105.835C322.452 105.304 323.194 103.66 322.929 102.811C321.815 98.6201 320.383 94.5353 318.792 89.5486V89.6017ZM94.9956 308.645C102.687 311.298 109.159 313.579 115.63 315.701C116.373 315.913 117.805 315.33 118.282 314.693C120.139 312.094 121.73 309.282 123.64 306.152C118.07 303.34 112.553 300.476 106.984 297.77C106.4 297.505 105.18 297.77 104.703 298.248C101.626 301.431 98.6557 304.72 94.9956 308.698V308.645ZM438.567 143.978C434.642 142.493 431.141 141.272 427.693 139.787C425.571 138.832 424.563 139.416 423.767 141.538C421.327 147.957 418.675 154.323 416.288 160.742C415.917 161.697 416.235 163.925 416.659 164.031C418.675 164.668 420.903 167.426 423.025 164.721C428.223 158.036 433.209 151.14 438.567 143.978ZM445.304 218.778C437.559 216.126 430.982 213.792 424.404 211.617C423.82 211.405 422.6 211.829 422.282 212.359C420.373 215.171 418.622 218.142 416.712 221.272C422.176 224.083 427.321 226.789 432.573 229.336C433.422 229.76 435.172 229.601 435.809 229.017C438.885 225.993 441.697 222.757 445.304 218.832V218.778ZM160.188 158.142C159.869 151.776 159.551 145.676 159.127 139.628C159.127 138.991 158.49 138.036 157.96 137.93C153.504 136.763 148.942 135.755 143.691 134.535C145.335 143.076 146.767 150.397 148.147 157.559C152.231 157.771 155.944 157.93 160.135 158.089L160.188 158.142ZM101.732 383.446C106.082 385.091 109.742 386.629 113.508 387.902C114.145 388.114 115.63 387.637 115.895 387.106C119.025 379.52 122.048 371.881 125.337 363.499C122.102 363.711 119.874 359.573 117.168 362.916C111.917 369.441 107.09 376.284 101.732 383.446ZM428.488 339.308C429.921 342.279 430.716 346.099 432.095 346.364C440.37 347.902 448.858 348.645 457.981 349.706C457.292 345.091 456.761 341.059 455.966 337.08C455.86 336.497 454.533 335.595 453.897 335.701C445.887 336.762 437.824 337.982 428.488 339.308ZM396.609 392.942C394.911 384.348 393.532 377.027 392.1 369.865C387.962 369.653 384.302 369.494 380.112 369.335C380.43 375.701 380.748 381.802 381.172 387.849C381.172 388.539 382.021 389.494 382.658 389.706C386.954 390.82 391.251 391.775 396.609 392.995V392.942ZM82.2649 177.718C83.0605 182.864 83.7501 187.267 84.4927 192.041C93.4573 190.768 102.051 189.495 110.856 188.222C110.591 186.365 110.591 184.933 110.113 183.712C109.689 182.598 108.787 180.954 107.939 180.848C99.6636 179.681 91.3355 178.779 82.2649 177.718ZM427.693 166.736C427.905 167.055 428.117 167.426 428.329 167.744C430.027 167.532 431.936 167.744 433.369 167.055C442.439 162.121 451.351 156.922 460.687 151.617C455.011 149.76 449.866 148.063 444.667 146.471C444.031 146.259 442.811 146.577 442.439 147.108C437.453 153.58 432.626 160.158 427.693 166.736ZM264.898 78.7263C265.429 78.7263 266.012 78.7263 266.543 78.7263C269.831 67.0022 267.444 54.9069 268.505 42.334C263.837 46.578 259.859 50.1323 256.04 53.8458C255.456 54.4293 255.191 55.9148 255.509 56.7105C258.533 64.0845 261.716 71.4054 264.898 78.7263ZM275.401 448.804H273.757C270.415 460.422 272.908 472.517 271.741 485.143C276.515 480.793 280.546 477.185 284.472 473.419C285.002 472.941 285.108 471.509 284.79 470.819C281.713 463.445 278.531 456.178 275.401 448.857V448.804ZM79.5596 375.86C84.811 377.557 89.532 378.937 94.1469 380.634C96.3217 381.43 97.5418 381.059 98.8148 379.255C102.846 373.685 106.984 368.221 111.068 362.703C111.599 361.961 111.917 361.112 112.713 359.627C110.273 359.945 108.31 359.68 106.931 360.422C97.86 365.356 88.9485 370.502 79.5065 375.86H79.5596ZM433.05 351.775C432.785 352.253 432.52 352.677 432.255 353.154C440.795 361.961 452.571 365.886 462.702 372.995C461.429 367.213 460.421 362.226 459.148 357.292C458.883 356.231 457.716 354.746 456.761 354.64C448.858 353.526 440.954 352.73 433.05 351.828V351.775ZM77.703 154.641C78.923 160.211 79.9309 165.198 81.204 170.132C81.4692 171.14 82.3709 172.625 83.1666 172.784C91.2294 173.898 99.3453 174.8 107.461 175.755C107.673 175.437 107.832 175.171 108.045 174.853C106.825 173.368 105.923 171.458 104.385 170.503C95.6852 165.145 86.8267 160.052 77.703 154.641ZM384.939 157.877C386.159 157.718 386.742 157.665 387.326 157.559C390.668 157.187 395.229 157.983 397.033 156.126C399.049 154.004 398.571 149.548 399.155 146.1C399.685 142.705 400.216 139.31 400.905 134.853C395.442 136.869 390.986 138.461 386.636 140.211C385.946 140.477 385.045 141.378 385.045 142.068C384.939 147.267 384.992 152.519 384.992 157.93L384.939 157.877ZM316.458 441.642C317.519 435.753 318.42 430.926 319.11 426.045C319.216 425.302 318.208 424.029 317.36 423.552C313.222 421.058 308.978 418.724 304.735 416.284C302.772 419.891 300.916 423.393 298.953 427.053C304.417 431.615 309.88 436.125 316.458 441.642ZM143.16 370.024C141.94 377.398 140.72 384.507 139.341 392.836C144.964 390.767 149.367 389.175 153.769 387.425C154.459 387.159 155.361 386.258 155.361 385.621C155.467 380.369 155.414 375.064 155.414 370.024H143.16ZM235.617 111.299C237.58 107.692 239.437 104.243 241.399 100.53C235.883 95.9677 230.313 91.3522 223.895 85.9941C222.887 91.8296 221.932 96.6573 221.242 101.538C221.136 102.281 222.144 103.554 222.993 104.031C227.13 106.525 231.374 108.912 235.617 111.299ZM447.266 312.624C442.864 308.911 439.204 305.728 435.437 302.757C434.854 302.279 433.475 302.12 432.838 302.439C428.329 304.932 423.874 307.637 419.577 310.184C421.805 313.844 423.821 317.08 425.942 320.529C432.732 318.035 439.469 315.542 447.319 312.624H447.266ZM93.139 214.959C97.4887 218.619 101.202 221.855 105.074 224.932C105.658 225.41 107.037 225.41 107.673 225.039C112.129 222.545 116.479 219.946 120.828 217.346C118.601 213.792 116.532 210.503 114.357 207.001C107.567 209.548 100.831 212.041 93.086 214.959H93.139ZM81.6283 151.352C91.0703 156.869 99.8227 162.174 108.734 167.108C110.432 168.063 112.925 167.638 114.994 167.851C115.1 167.532 115.259 167.161 115.365 166.843C110.113 160.53 104.915 154.217 99.6105 147.957C99.1861 147.479 98.0192 147.32 97.3296 147.479C92.3434 148.646 87.4633 149.92 81.5753 151.405L81.6283 151.352ZM457.981 376.337C457.769 375.966 457.61 375.595 457.345 375.435C448.964 370.449 440.636 365.409 432.149 360.687C430.239 359.626 427.64 359.945 425.359 359.627C425.253 359.998 425.147 360.369 425.041 360.794C430.186 367.054 435.331 373.26 440.583 379.467C441.007 379.998 442.121 380.316 442.811 380.157C447.85 378.99 452.889 377.664 458.034 376.337H457.981ZM461.907 156.657C452.73 161.856 443.818 166.683 435.172 171.935C433.316 173.049 432.308 175.437 430.875 177.293C431.141 177.612 431.459 177.877 431.724 178.195C439.575 176.869 447.479 175.543 455.276 174.057C456.072 173.898 457.08 172.731 457.345 171.882C458.883 167.055 460.262 162.121 461.854 156.71L461.907 156.657ZM109.371 350.237C109.159 349.971 108.946 349.653 108.734 349.388C100.671 350.767 92.5556 352.146 84.5458 353.632C83.9092 353.738 83.2197 354.746 83.0075 355.489C81.4692 360.475 80.037 365.462 78.4456 370.926C87.8346 365.621 96.9583 360.581 105.923 355.17C107.514 354.215 108.257 351.881 109.424 350.237H109.371ZM273.014 44.0317C273.014 55.0661 272.855 65.1455 273.12 75.225C273.173 77.347 274.765 79.469 275.666 81.5379C279.539 73.6335 282.456 65.8882 285.32 58.0368C285.533 57.5063 285.108 56.5514 284.684 56.074C281.13 52.3074 277.523 48.5939 273.067 43.9786L273.014 44.0317ZM267.285 483.551C267.285 472.464 267.444 462.385 267.179 452.305C267.126 450.183 265.535 448.114 264.633 445.992C260.814 453.79 257.896 461.43 255.138 469.175C254.926 469.812 255.244 470.926 255.721 471.456C259.222 475.276 262.883 478.989 267.285 483.551ZM140.614 295.383C136.742 292.571 132.976 289.813 129.156 287.054C128.785 286.789 128.149 286.683 127.724 286.789C121.836 288.168 116.16 290.184 110.697 294.11C116.32 296.974 121.359 299.574 126.504 302.12C127.141 302.439 128.202 302.226 128.891 301.908C132.71 299.892 136.424 297.77 140.667 295.436L140.614 295.383ZM429.231 234.641C429.231 234.163 429.178 233.686 429.125 233.208C424.033 230.609 418.993 228.009 413.848 225.516C413.212 225.198 412.151 225.357 411.461 225.728C407.642 227.744 403.876 229.866 399.632 232.2C403.504 235.012 407.271 237.824 411.09 240.476C411.673 240.9 412.84 240.9 413.583 240.582C418.781 238.672 423.98 236.656 429.178 234.641H429.231ZM374.966 387.053L376.08 386.311C375.815 380.847 375.55 375.329 375.231 369.865C375.231 369.069 374.966 367.902 374.436 367.531C370.51 365.038 366.479 362.703 362.395 360.21C361.917 364.613 361.334 368.804 361.015 373.048C360.909 374.162 361.334 375.701 362.129 376.337C366.32 379.998 370.723 383.499 375.019 387L374.966 387.053ZM232.594 391.828C228.35 393.738 224.266 395.541 220.234 397.398C219.704 397.663 219.067 398.141 218.908 398.671C217.264 404.454 215.938 410.342 216.574 417.08C221.879 413.684 226.6 410.661 231.268 407.584C231.904 407.159 232.488 406.204 232.488 405.515C232.594 401.165 232.541 396.868 232.541 391.881L232.594 391.828ZM165.227 140.477C164.909 140.742 164.537 141.007 164.219 141.219C164.484 146.896 164.75 152.625 165.121 158.301C165.121 158.938 165.545 159.84 166.076 160.158C169.948 162.599 173.873 164.88 177.958 167.32C178.435 162.917 179.019 158.567 179.39 154.27C179.443 153.368 179.231 152.095 178.594 151.564C174.192 147.798 169.683 144.137 165.227 140.424V140.477ZM324.468 111.458L323.301 110.769C318.261 114.058 313.169 117.347 308.183 120.689C307.865 120.901 307.705 121.591 307.705 122.015C307.705 126.471 307.705 130.928 307.705 135.755C311.843 133.898 315.927 132.148 319.959 130.185C320.754 129.814 321.55 128.806 321.709 127.957C322.77 122.493 323.619 116.975 324.521 111.458H324.468ZM355.074 369.388C355.552 369.229 355.976 369.069 356.454 368.963C356.878 365.197 357.302 361.43 357.621 357.611C357.727 356.39 357.833 354.905 357.249 354.003C354.597 349.812 351.733 345.78 348.815 341.483C346.906 343.181 344.943 344.772 343.192 346.523C342.715 347.001 342.291 348.274 342.556 348.698C346.64 355.648 350.831 362.491 355.021 369.388H355.074ZM376.664 234.428C377.247 237.028 377.618 239.203 378.308 241.325C378.573 242.227 379.634 243.5 380.271 243.5C388.28 243.447 396.237 243.182 404.247 242.969C404.247 242.545 404.353 242.174 404.406 241.749C401.542 239.627 398.677 237.452 395.76 235.436C394.593 234.587 393.161 233.473 391.887 233.473C386.954 233.58 381.968 234.057 376.664 234.428ZM135.84 284.614C143.319 295.33 153.239 294.587 163.583 292.943C162.999 290.502 162.681 288.274 161.938 286.205C161.62 285.25 160.347 284.03 159.551 284.03C151.701 284.083 143.85 284.401 135.84 284.614ZM185.225 158.195C184.747 158.408 184.27 158.62 183.846 158.832C183.474 162.439 182.997 165.994 182.732 169.601C182.626 170.927 182.414 172.572 183.05 173.58C185.649 177.771 188.567 181.803 191.484 186.1C193.394 184.402 195.303 182.811 197.054 181.06C197.531 180.582 197.956 179.309 197.69 178.885C193.606 171.935 189.415 165.092 185.225 158.195ZM319.057 137.294C318.686 137.028 318.367 136.763 317.996 136.498C315.132 137.771 312.32 138.938 309.456 140.264C307.918 141.007 305.743 141.485 305 142.758C302.401 147.214 300.332 151.988 297.945 156.816C301.022 157.718 303.886 158.514 307.281 159.522C311.206 152.095 315.132 144.668 319.004 137.241L319.057 137.294ZM242.195 370.82C233.177 367.743 233.071 367.743 228.775 375.595C226.122 380.422 223.788 385.462 221.295 390.396C221.561 390.608 221.826 390.82 222.091 391.085C226.016 389.388 229.995 387.69 233.92 385.886C234.557 385.621 235.246 385.091 235.564 384.454C237.792 379.998 239.914 375.541 242.195 370.82ZM366.797 167.851C370.935 165.251 374.966 162.811 378.945 160.264C379.422 159.946 379.952 159.309 379.952 158.832C380.005 154.164 379.952 149.442 379.952 144.774C379.634 144.615 379.263 144.508 378.945 144.349C375.709 147.267 372.685 150.397 369.237 152.943C363.402 157.294 365.047 162.492 366.797 167.851ZM173.608 359.573C169.205 362.332 165.28 364.719 161.408 367.213C160.93 367.531 160.294 368.115 160.294 368.539C160.188 373.26 160.294 378.035 160.294 382.756C160.771 382.915 161.196 383.075 161.673 383.234C166.023 378.99 170.372 374.746 174.669 370.396C175.146 369.918 175.518 369.016 175.412 368.433C174.934 365.515 174.298 362.597 173.714 359.52L173.608 359.573ZM222.091 109.283C221.72 109.442 221.348 109.601 221.03 109.708C222.038 114.323 222.781 118.991 224.107 123.501C225.751 129.389 229.146 131.617 235.034 131.67C235.034 127.108 235.087 122.493 234.981 117.93C234.981 117.135 234.185 116.127 233.496 115.702C229.783 113.474 225.963 111.352 222.144 109.23L222.091 109.283ZM305.212 395.594C305.212 400.422 305.212 405.09 305.212 409.812C305.212 410.448 305.69 411.297 306.22 411.616C310.145 413.95 314.177 416.178 319.322 419.043C318.208 413.631 316.988 409.334 316.458 404.984C315.609 397.663 310.039 396.868 305.159 395.594H305.212ZM401.329 299.521C405.679 301.855 409.711 304.03 413.795 306.099C414.485 306.47 415.599 306.682 416.182 306.364C420.266 304.083 424.192 301.643 428.223 299.309C428.223 298.937 428.223 298.513 428.223 298.142C422.282 296.497 416.288 294.799 410.294 293.314C409.498 293.102 408.278 293.579 407.589 294.11C405.467 295.807 403.451 297.664 401.329 299.521ZM138.864 228.168C134.514 225.834 130.483 223.606 126.398 221.537C125.709 221.166 124.595 220.954 124.011 221.272C119.98 223.553 116.001 225.993 112.023 228.328C112.023 228.699 112.023 229.123 112.023 229.495C117.964 231.139 123.958 232.837 129.952 234.375C130.748 234.587 131.915 234.11 132.604 233.526C134.726 231.829 136.742 229.972 138.864 228.168ZM311.949 391.987C308.501 385.568 305.478 379.892 302.401 374.268C299.696 369.388 299.483 369.388 293.967 372.093C295.876 375.701 298.37 379.149 299.536 383.022C301.287 388.857 305.265 390.926 311.949 391.934V391.987ZM246.12 155.49C244.105 151.511 241.452 147.745 240.126 143.501C238.323 137.771 234.026 136.763 228.085 135.49C231.586 142.015 234.557 147.691 237.686 153.315C240.392 158.195 240.604 158.195 246.12 155.49ZM188.567 338.353C185.596 342.81 182.944 346.948 180.133 351.032C177.48 354.799 177.321 358.99 180.345 363.658C184.694 356.603 188.885 349.759 193.022 343.022C191.272 341.165 189.999 339.839 188.567 338.353ZM351.68 189.017C354.385 184.933 356.507 180.742 359.583 177.399C363.562 172.996 361.758 168.858 360.22 164.296C356.454 169.495 353.059 174.8 349.823 180.211C346.959 184.986 347.065 185.039 351.733 189.071L351.68 189.017ZM164.325 230.45C159.233 230.131 154.353 230.29 149.579 229.442C144.009 228.434 141.781 232.253 138.811 235.808C145.282 236.55 151.594 236.55 157.907 236.497C163.423 236.497 163.423 236.497 164.272 230.45H164.325ZM375.868 297.134C380.589 297.399 385.363 297.187 389.925 298.142C395.601 299.256 398.253 295.754 401.276 292.041C394.805 291.404 388.387 291.192 381.968 291.139C376.398 291.086 376.398 291.139 375.815 297.186L375.868 297.134Z" fill="white"/>
<path d="M168.41 263.5C168.622 207.479 214.4 161.803 270.256 161.909C326.324 162.015 372.367 208.275 371.943 264.03C371.465 320.21 325.635 365.727 269.937 365.409C213.869 365.091 168.251 319.255 168.463 263.5H168.41ZM270.15 166.895C216.734 166.895 173.343 210.29 173.396 263.712C173.396 317.133 216.787 360.475 270.203 360.475C323.619 360.475 367.01 317.08 366.956 263.659C366.956 210.237 323.566 166.842 270.15 166.895Z" fill="white"/>
<path d="M313.752 220.317C323.566 216.975 330.302 218.672 334.705 225.357C339.426 232.465 338.047 238.725 329.825 247.744C340.858 251.033 345.579 256.02 345.314 264.03C345.049 272.2 340.222 277.081 329.454 279.68C337.145 285.993 340.01 293.473 334.44 302.279C330.302 308.858 324.255 310.131 314.442 307.531C314.548 311.351 315.238 315.436 314.707 319.308C314.124 323.552 311.259 326.735 307.44 328.857C300.438 332.783 294.922 331.351 285.957 323.393C282.933 334.162 277.629 339.255 269.672 338.884C261.397 338.513 256.411 333.526 254.13 322.916C247.552 330.873 239.861 333.632 230.896 327.531C224.743 323.34 223.47 316.762 226.281 307.956C222.356 308.062 218.166 308.751 214.187 308.168C209.838 307.478 206.655 304.401 204.586 300.369C201.032 293.42 202.677 287.584 210.368 279.574C198.963 275.807 194.402 270.927 194.879 262.916C195.356 254.799 200.236 250.025 210.792 247.638C202.889 241.166 200.024 233.473 206.071 224.773C211.164 217.452 218.484 216.71 227.077 220.423C224.584 214.853 223.682 209.601 226.812 204.879C228.562 202.174 231.162 199.574 233.973 198.036C240.869 194.322 247.765 196.657 254.342 204.349C256.093 194.216 261.291 187.797 272.112 188.646C279.698 189.23 283.835 194.11 286.01 203.288C289.511 201.219 292.906 198.672 296.778 197.134C300.969 195.436 305.159 196.816 308.872 199.362C315.397 203.765 316.829 209.707 313.858 220.37L313.752 220.317ZM298.051 255.065C307.864 251.457 317.943 248.168 327.65 244.03C333.485 241.537 335.289 234.163 332.424 228.593C329.507 222.916 322.611 220.264 317.094 223.235C307.175 228.593 299.749 236.869 292.11 244.667C294.073 248.062 295.823 251.086 298.104 255.065H298.051ZM278.69 291.51C282.297 301.324 285.48 311.298 289.564 320.9C292.216 327.107 299.855 328.964 305.584 325.674C311.578 322.226 313.912 314.746 309.721 309.229C303.462 300.847 296.46 293.102 289.882 285.197C285.904 287.425 282.88 289.176 278.69 291.563V291.51ZM242.566 272.943C232.01 275.595 221.454 278.089 211.906 283.553C206.549 286.63 205.01 293.738 207.981 299.043C211.058 304.507 217.688 306.948 223.152 304.03C233.071 298.725 240.497 290.396 248.136 282.598C246.173 279.202 244.423 276.179 242.566 272.943ZM250.258 284.985C243.68 292.836 236.678 300.529 230.472 308.751C226.175 314.481 228.297 322.067 234.344 325.568C239.967 328.857 247.234 326.894 250.47 320.9C255.509 311.51 258.108 301.218 260.548 291.033C257.313 289.123 254.289 287.372 250.258 284.985ZM291.845 282.916C296.354 287.213 300.809 291.775 305.584 295.966C308.978 298.937 312.585 301.696 316.458 303.924C322.027 307.107 328.87 304.879 332.053 299.361C335.129 294.003 333.75 287.001 328.287 283.818C318.739 278.195 308.024 275.648 297.521 273.102C295.558 276.444 293.808 279.468 291.845 282.863V282.916ZM248.401 244.243C243.309 239.468 238.323 234.534 233.124 229.866C230.631 227.638 227.82 225.622 225.008 223.871C219.014 220.105 211.8 221.855 208.352 227.638C204.904 233.473 206.655 241.272 213.073 243.977C222.674 248.062 232.647 251.245 242.301 254.799C244.582 250.874 246.385 247.85 248.454 244.243H248.401ZM289.617 242.067C292.057 239.468 294.815 236.709 297.309 233.792C301.658 228.646 306.22 223.659 309.986 218.089C313.859 212.466 311.737 205.198 306.061 201.802C300.491 198.46 293.33 200.052 290.094 205.781C284.684 215.277 282.191 225.834 279.645 236.179C282.986 238.142 285.957 239.945 289.617 242.067ZM261.556 235.648C257.896 225.781 254.607 215.702 250.47 205.993C247.924 199.999 240.285 198.301 234.663 201.484C228.828 204.773 226.812 211.882 230.207 217.664C231.215 219.415 232.276 221.113 233.602 222.598C239.331 229.123 245.165 235.542 250.788 241.749C254.554 239.627 257.472 237.93 261.609 235.542L261.556 235.648ZM298.369 264.614C298.369 264.614 297.945 264.985 297.733 265.197C298.635 266.736 299.271 269.441 300.438 269.707C309.668 271.882 318.898 274.004 328.287 275.277C335.978 276.285 341.707 270.714 341.601 263.553C341.548 256.497 335.501 251.192 327.809 252.147C320.383 253.049 313.063 254.8 305.743 256.232C303.568 256.656 300.703 256.762 299.483 258.195C298.263 259.627 298.635 262.439 298.316 264.667L298.369 264.614ZM282.668 205.834C281.66 202.864 281.077 199.468 279.379 196.763C276.727 192.466 271.21 191.086 266.383 192.678C261.556 194.269 257.737 198.885 258.533 204.19C259.965 214.057 262.193 223.765 264.262 233.526C264.421 234.216 265.747 235.118 266.543 235.171C268.876 235.383 271.264 235.436 273.597 235.171C274.552 235.065 275.984 234.163 276.197 233.367C278.425 224.402 280.44 215.436 282.615 205.834H282.668ZM268.876 291.935C266.967 292.306 264.527 290.714 263.784 294.11C262.087 302.014 260.124 309.919 258.639 317.876C258.108 320.741 258.161 323.924 258.798 326.788C260.124 332.306 265.906 335.807 271.476 335.011C277.523 334.162 282.244 329.229 281.607 323.075C280.759 315.17 279.008 307.319 277.576 299.521C277.151 297.186 276.939 294.269 275.454 292.889C274.075 291.669 271.104 292.2 268.876 291.935ZM212.596 251.086C204.268 251.404 198.539 256.285 198.539 263.5C198.539 270.874 204.639 276.179 212.861 275.012C221.826 273.685 230.684 271.51 239.596 269.6C240.444 269.441 241.558 268.327 241.664 267.531C241.93 264.826 241.877 262.067 241.664 259.362C241.611 258.672 240.604 257.611 239.861 257.452C230.79 255.277 221.667 253.208 212.596 251.139V251.086ZM269.99 239.839C256.888 239.892 246.385 250.396 246.332 263.447C246.332 276.709 256.888 287.319 270.15 287.266C283.252 287.266 293.755 276.709 293.808 263.659C293.808 250.396 283.199 239.786 269.99 239.839Z" fill="white"/>
<path d="M290.042 263.818C290.042 274.693 281.077 283.553 270.15 283.553C259.063 283.553 250.205 274.587 250.258 263.5C250.311 252.625 259.276 243.765 270.15 243.765C281.236 243.765 290.095 252.731 290.042 263.818ZM270.256 248.593C261.981 248.54 255.138 255.383 255.138 263.659C255.138 271.988 261.981 278.778 270.256 278.672C278.372 278.619 285.055 271.935 285.162 263.818C285.268 255.595 278.478 248.646 270.203 248.593H270.256Z" fill="white"/>
</svg>
