<svg width="564" height="540" viewBox="0 0 564 540" fill="none" xmlns="http://www.w3.org/2000/svg">
<path d="M371.791 273.863C389.933 275.296 407.278 279.54 423.828 286.967C438.31 293.492 449.873 303.253 458.891 316.462C468.068 329.884 473.054 344.897 475.971 360.441C478.677 374.87 474.274 387.974 460.694 395.454C451.518 400.547 441.492 404.313 431.52 407.549C426.162 409.3 423.033 411.316 421.017 416.939C416.349 429.937 411.044 442.828 400.011 452.164C391.524 459.326 381.552 462.562 370.89 459.591C349.566 453.65 329.727 444.366 315.352 426.86C309.623 419.91 304.849 411.634 301.613 403.252C294.664 385.056 291.163 366.064 291.694 346.383C291.853 341.343 294.081 338.637 298.589 337.842C312.169 335.56 323.998 329.513 333.175 319.645C339.646 312.643 344.739 304.155 349.353 295.72C352.218 290.521 352.748 284.102 354.87 278.425C355.507 276.781 357.841 275.03 359.697 274.659C363.676 273.916 367.76 274.022 371.844 273.81L371.791 273.863Z" fill="white"/>
<path d="M277 354.764C274.189 369.3 273.022 384.366 268.248 398.159C261.617 417.417 250.69 434.552 231.488 444.366C222.046 449.194 212.551 453.968 202.684 457.788C185.763 464.366 167.197 457.682 158.286 441.926C153.83 433.968 150.064 425.533 146.934 416.992C145.025 411.74 142.266 409.618 137.015 407.868C126.671 404.419 116.327 400.335 106.938 394.87C94.3668 387.549 88.8502 376.197 91.7146 361.184C97.4965 331.051 110.811 305.64 138.076 289.831C154.838 280.07 173.563 275.508 192.977 274.394C193.189 274.394 193.402 274.394 193.614 274.394C211.172 273.863 210.482 274.075 215.574 290.415C218.014 298.266 222.841 305.799 228.04 312.377C237.694 324.526 249.735 333.491 265.649 336.886C275.091 338.902 275.833 341.502 277.053 354.817L277 354.764Z" fill="white"/>
<path d="M276.788 182.988C275.886 196.94 275.992 197.312 262.837 201.821C245.81 207.656 231.859 217.524 222.576 232.855C218.651 239.327 216.794 247.073 214.619 254.447C212.551 261.396 210.058 264.791 203.533 264.473C172.183 262.829 142.054 256.993 118.714 233.916C102.058 217.418 94.685 195.932 90.9188 173.28C89.911 167.285 91.9797 162.14 95.7459 156.888C106.249 142.193 121.685 136.357 138.023 132.113C142.744 130.893 144.865 128.612 146.828 124.209C151.655 113.493 156.217 102.299 163.272 93.1214C173.032 80.3363 187.142 77.4716 202.419 82.8297C219.287 88.7182 235.519 96.0922 248.091 109.196C254.986 116.41 261.564 124.209 264.163 134.554C265.701 140.76 269.149 146.49 270.741 152.697C273.234 162.67 274.878 172.909 276.841 182.988H276.788Z" fill="white"/>
<path d="M290.102 186.383C293.073 173.598 296.255 160.813 298.854 147.975C301.825 133.546 308.827 121.238 318.799 110.946C325.324 104.209 333.281 98.5325 341.343 93.5458C348.557 89.0896 356.567 85.6414 364.577 82.7767C381.021 76.8881 398.897 82.2992 408.233 96.994C413.856 105.8 416.879 116.198 421.494 125.694C422.661 128.081 425.101 130.469 427.541 131.477C436.93 135.349 446.637 138.32 455.973 142.352C464.513 146.065 470.348 153.174 474.698 161.079C476.502 164.368 476.82 169.036 476.236 172.909C473.902 188.293 468.704 202.564 461.278 216.41C445.205 246.542 417.516 256.675 386.75 262.086C378.369 263.571 369.775 263.996 361.235 264.685C357.098 265.004 355.241 262.67 354.445 258.532C350.096 235.508 337.789 218.32 316.571 207.869C311.638 205.429 306.493 203.519 301.348 201.45C291.481 197.524 291.428 197.471 291.693 186.755C291.163 186.649 290.632 186.49 290.102 186.383Z" fill="white"/>
<path d="M0 271.635C0.583493 270.839 0.848717 270.203 1.32612 269.884C22.7032 256.516 45.0881 248.24 69.9661 259.752C80.1507 264.473 83.0682 270.256 77.9759 277.63C76.0663 280.441 72.6184 282.563 69.4357 284.155C48.1647 294.712 17.6109 289.248 0 271.635ZM57.3415 273.067C49.2787 268.293 41.0567 269.566 32.7817 272.537C40.7384 277.842 49.0135 276.038 57.3415 273.067Z" fill="white"/>
<path d="M563.495 271.476C561.374 273.226 559.729 275.03 557.66 276.197C538.617 286.966 518.513 291.051 497.03 285.057C494.166 284.261 491.248 282.829 488.967 280.972C479.897 273.545 480.427 267.338 490.187 260.813C497.561 255.879 505.57 254.181 514.429 253.598C531.987 252.431 546.892 258.16 560.366 268.664C561.321 269.407 562.116 270.256 563.495 271.529V271.476ZM532.729 271.476C524.083 265.64 510.397 265.587 504.085 271.211C513.633 274.447 522.545 273.916 532.729 271.476Z" fill="white"/>
<path d="M267.876 493.915C269.362 487.973 271.218 479.061 273.87 470.36C275.356 465.533 278.645 461.713 284.479 461.713C290.367 461.713 294.717 465.003 295.99 470.148C298.324 479.644 305.22 487.92 303.47 498.583C301.189 512.854 295.937 525.904 287.821 537.787C285.01 541.872 282.676 538.954 280.819 536.249C272.757 524.419 269.574 511.103 267.876 493.915ZM284.851 507.283C290.314 500.599 290.367 492.217 285.328 485.533C283.578 492.854 281.88 499.379 284.851 507.283Z" fill="white"/>
<path d="M299.65 44.1562C298.589 50.9466 298.006 57.8961 296.309 64.5274C295.407 68.0817 293.232 71.7423 290.633 74.3948C284.586 80.6016 278.645 79.8059 273.977 72.5911C261.617 53.2278 263.474 33.5992 273.234 13.9707C275.144 10.1511 277.318 6.49057 279.599 2.83011C282.146 -1.3078 285.116 -0.671156 286.813 3.2015C292.595 16.3049 301.401 28.5064 299.597 44.2093L299.65 44.1562ZM279.652 55.7741C282.411 54.607 283.419 54.3949 283.419 54.1296C283.843 47.0739 284.267 39.9652 284.479 32.9096C284.479 32.4321 282.517 31.265 282.252 31.4242C281.191 32.1669 279.812 33.334 279.758 34.395C279.546 41.1323 279.652 47.8697 279.652 55.7741Z" fill="white"/>
<path d="M64.98 324.367C63.9722 324.367 62.8582 324.632 61.9564 324.367C58.2433 323.041 54.5832 321.502 50.9231 320.07C52.4614 316.94 53.7345 313.651 55.5911 310.786C61.426 301.661 70.3906 297.099 80.6282 294.977C83.4927 294.393 86.7814 294.447 89.5928 295.189C96.1173 296.94 98.1861 302.669 94.8973 308.505C89.752 317.576 76.8621 324.42 64.98 324.42V324.367Z" fill="white"/>
<path d="M65.5105 218.107C76.756 217.577 86.0389 221.609 92.8817 230.256C95.1095 233.068 97.1783 238.266 96.0113 240.813C94.5791 243.837 89.752 246.489 86.0919 246.914C73.3612 248.452 55.0076 235.985 51.0823 223.731C50.764 222.67 52.3554 219.858 53.4693 219.593C57.3946 218.638 61.4791 218.479 65.5105 218.054V218.107Z" fill="white"/>
<path d="M336.994 478.583C336.994 478.583 337.047 480.122 336.994 481.554C336.516 491.209 333.44 492.96 325.483 487.602C314.45 480.175 309.092 469.353 307.872 456.355C307.448 451.793 308.721 447.018 313.23 445.851C316.306 445.056 321.239 446.223 323.52 448.398C331.636 456.143 338.373 465.002 336.994 478.583Z" fill="white"/>
<path d="M306.493 83.3603C309.039 68.0819 315.458 57.2597 328.613 50.8937C333.599 48.5064 335.403 49.5143 336.676 55.1376C338.32 62.5116 338.267 69.5673 333.546 76.0924C330.416 80.4426 328.295 85.5883 324.953 89.7262C322.141 93.1744 317.792 96.7289 313.336 93.5989C310.206 91.4239 308.721 86.8615 306.546 83.3072L306.493 83.3603Z" fill="white"/>
<path d="M498.622 325.852C486.368 325.003 476.926 320.494 470.455 311.476C468.439 308.664 468.174 303.624 469.129 300.176C469.606 298.319 474.327 296.834 477.298 296.621C490.559 295.614 506.366 305.322 512.201 317.258C513.951 320.812 512.891 322.828 509.549 323.73C505.677 324.791 501.645 325.322 498.622 325.905V325.852Z" fill="white"/>
<path d="M293.497 269.301C305.22 264.367 315.086 260.388 324.847 256.144C331.424 253.226 337.365 255.773 340.336 260.653C342.829 264.791 343.2 271.264 342.033 276.144C340.76 281.449 335.19 284.95 329.568 283.889C317.208 281.555 305.91 276.25 293.497 269.301Z" fill="white"/>
<path d="M230.215 62.0871C231.647 57.6839 233.132 53.2808 234.564 48.8777C238.543 51.0527 242.892 52.7502 246.34 55.5619C255.464 62.9358 259.761 72.9093 259.124 84.5803C258.965 87.6041 257.321 92.3257 255.199 93.1214C252.175 94.2355 247.242 93.4927 244.59 91.5829C236.633 85.7474 231.063 78.0021 231.435 67.3921C231.488 65.7476 231.435 64.156 231.435 62.5114C231.01 62.4053 230.586 62.2463 230.215 62.1402V62.0871Z" fill="white"/>
<path d="M513.898 222.829C508.965 236.357 492.309 248.293 478.677 247.603C475.229 247.444 470.402 245.906 468.757 243.359C466.317 239.54 468.068 234.977 471.516 231.264C482.761 219.168 500.743 215.349 513.845 222.882L513.898 222.829Z" fill="white"/>
<path d="M238.277 284.738C232.549 282.563 227.244 282.086 225.228 276.197C222.788 269.036 223.743 263.678 228.835 259.062C233.344 254.977 238.171 253.81 243.953 256.675C251.592 260.494 259.389 263.89 267.187 267.444C270.051 268.77 271.536 271.104 268.195 272.59C258.222 277.046 247.878 280.866 238.33 284.685L238.277 284.738Z" fill="white"/>
<path d="M231.488 476.727C231.382 464.101 235.996 454.021 246.711 447.072C252.812 443.093 257.214 445.109 258.753 452.217C261.67 465.851 251.273 484.737 238.171 489.936C235.042 491.209 232.973 490.732 232.549 487.018C232.177 483.57 231.859 480.122 231.488 476.673V476.727Z" fill="white"/>
<path d="M282.941 282.033C284.904 285.057 286.548 286.966 287.556 289.141C290.314 295.189 293.55 301.184 295.141 307.55C296.467 312.749 296.998 318.796 295.566 323.783C294.08 328.823 288.511 330.627 282.941 330.361C275.833 330.043 270.051 325.428 270.9 318.584C271.961 310.096 274.984 301.873 277.53 293.651C278.591 290.255 280.501 287.126 282.941 282.033Z" fill="white"/>
<path d="M282.941 255.614C277.955 244.633 270.21 234.659 270.582 221.609C270.794 214.659 275.833 209.248 282.039 208.93C289.943 208.505 297.316 213.439 297.051 220.707C296.892 226.701 294.505 232.749 292.436 238.479C290.367 244.261 287.45 249.778 284.904 255.455C284.267 255.455 283.578 255.561 282.941 255.614Z" fill="white"/>
<path d="M282.093 448.026C273.764 447.814 269.68 443.358 269.839 434.764C269.998 427.178 275.356 422.615 283.737 422.881C290.898 423.093 296.149 429.3 295.778 436.992C295.46 443.199 289.254 448.186 282.04 447.973L282.093 448.026Z" fill="white"/>
<path d="M297.635 103.148C297.635 110.15 291.482 116.516 284.745 116.623C278.326 116.676 273.34 110.893 273.287 103.413C273.287 95.2965 276.841 91.3707 284.374 91.3707C293.922 91.3707 297.688 94.6598 297.635 103.201V103.148Z" fill="white"/>
<path d="M457.883 261.025C465.362 261.025 470.083 265.959 470.189 273.969C470.242 280.972 465.044 286.224 457.936 286.33C450.828 286.436 444.834 280.6 444.993 273.757C445.152 266.595 450.722 261.078 457.883 261.025Z" fill="white"/>
<path d="M117.494 268.134C117.335 278.054 113.463 282.298 104.71 282.139C97.4433 281.98 93.1467 277.152 93.1997 269.248C93.1997 262.351 99.0347 255.773 105.347 256.569C112.667 257.471 118.237 260.601 117.441 268.134H117.494Z" fill="white"/>
<path d="M316.678 298.796C307.978 299.592 300.764 295.401 299.491 288.876C299.12 286.913 299.332 283.518 300.446 282.935C302.249 281.98 305.326 282.139 307.236 283.094C313.442 286.171 315.298 292.112 316.678 298.796Z" fill="white"/>
<path d="M300.181 247.497C300.287 241.343 307.766 234.712 314.025 235.561C315.192 235.72 316.837 237.736 316.943 238.956C317.155 243.147 310.79 250.892 306.599 252.272C301.984 253.757 300.128 252.378 300.234 247.444L300.181 247.497Z" fill="white"/>
<path d="M268.354 249.407C268.566 253.439 266.657 254.977 262.731 254.341C258.01 253.545 251.645 246.808 251.857 241.927C251.91 240.495 254.085 238.16 255.57 237.948C260.928 237.152 268.195 243.996 268.354 249.407Z" fill="white"/>
<path d="M251.273 299.168C251.061 291.37 255.57 283.996 261.352 283.359C263.315 283.147 265.914 283.783 267.24 285.057C267.983 285.799 267.24 288.876 266.285 290.415C261.352 298.903 258.116 300.706 251.22 299.168H251.273Z" fill="white"/>
<path d="M290.261 270.096C290.261 274.606 288.086 276.993 283.525 276.675C279.175 276.409 275.886 274.34 275.78 269.778C275.674 264.579 279.971 263.094 284.108 262.829C288.776 262.563 290.155 265.959 290.261 270.043V270.096Z" fill="white"/>
</svg>
