<svg width="541" height="1072" viewBox="0 0 541 1072" fill="none" xmlns="http://www.w3.org/2000/svg">
<path d="M529.334 911.347C537.397 912.727 536.814 916.865 534.957 921.745C529.122 937.024 521.696 951.188 509.283 962.859C511.883 962.222 514.482 961.321 517.081 960.949C521.696 960.313 523.765 962.169 521.537 966.732C507.162 996.599 488.225 1022.17 456.132 1035.11C455.549 1035.33 455.231 1036.07 453.692 1037.71C457.565 1038.24 460.482 1038.4 463.347 1039.04C465.044 1039.41 466.529 1040.47 468.121 1041.21C467.06 1042.65 466.158 1044.34 464.832 1045.51C451.04 1057.24 434.543 1063.28 417.304 1067.47C394.706 1072.94 371.738 1071.45 348.823 1070.71C347.178 1070.66 345.481 1070.23 343.837 1069.81C343.253 1069.65 342.829 1069.01 341.025 1067.47C349.778 1066.04 357.204 1064.4 364.736 1063.65C379.217 1062.27 392.266 1057.39 404.573 1049.6C422.184 1038.4 429.928 1007.53 421.176 989.968C418.842 985.193 413.378 981.904 409.135 978.19C406.96 976.334 404.202 975.22 399.746 972.62C405.369 970.71 408.657 969.649 412.689 968.323C412.317 966.626 412.158 964.822 411.522 963.177C403.088 941.745 409.453 923.231 424.73 913.098C434.702 906.52 444.516 899.729 455.125 892.568C456.822 896.812 458.732 901.639 461.066 907.475C463.665 904.504 466.052 902.01 468.174 899.305C478.305 886.255 490.612 876.44 506.154 870.18C517.717 865.512 521.961 854.265 524.666 843.072C526.788 834.213 527.372 825.035 528.698 815.963C529.122 813.046 529.706 810.128 531.615 807.157C538.564 823.762 540.049 841.162 540.315 858.775C540.58 876.706 540.898 894.637 529.281 911.294L529.334 911.347Z" fill="white"/>
<path d="M353.915 921.215C347.868 907.156 342.139 892.939 335.615 879.093C325.43 857.608 308.562 844.504 284.586 842.807C276.523 842.223 268.195 845.088 260.026 846.573C258.275 846.891 256.631 848.006 253.554 847.687C254.456 845.777 254.934 843.549 256.26 842.064C272.491 824.133 299.757 819.252 319.383 837.661C328.666 846.361 335.88 856.494 340.601 868.324C341.768 871.188 343.2 873.947 345.852 876.44C345.163 873.682 344.739 870.87 343.731 868.218C334.448 843.178 315.033 827.634 293.073 814.69C276.258 804.823 257.957 798.404 238.649 796.494C231.17 795.751 222.895 798.085 215.68 800.897C208.413 803.762 204.859 813.523 206.981 821.268C207.565 823.443 210.323 825.937 212.551 826.573C223.637 829.862 227.297 842.064 219.022 850.128C211.914 857.024 202.684 859.305 193.189 859.889C191.492 859.995 189.476 856.122 188.628 855.167C180.565 853.788 173.032 852.674 165.606 851.029C163.909 850.658 162.636 848.271 161.15 846.838C162.423 845.565 163.484 843.868 165.023 843.072C171.494 839.624 172.131 833.788 171.653 827.528C169.903 803.337 180.83 789.067 204.17 783.125C226.502 777.502 247.507 782.595 267.717 790.605C296.998 802.223 323.043 818.775 341.821 845.088C352.059 859.464 354.658 876.069 356.302 892.833C357.204 902.01 356.461 911.4 356.461 920.684C355.613 920.79 354.711 920.843 353.862 920.949L353.915 921.215Z" fill="white"/>
<path d="M463.824 747.104C470.242 738.722 475.706 732.516 479.95 725.619C483.398 719.996 485.095 713.258 488.225 707.37C491.46 701.269 495.545 695.54 499.258 689.651C500.107 690.022 500.955 690.341 501.857 690.712C502.122 692.463 502.653 694.213 502.706 695.911C502.706 699.518 502.016 703.232 502.494 706.733C504.456 721.269 502.175 734.372 492.468 746.043C489.975 749.014 490.187 754.16 489.126 758.351C489.763 758.616 490.4 758.828 491.036 759.094C494.855 756.123 498.728 753.205 503.979 749.173V792.78C508.594 791.454 510.503 793.152 508.594 798.032C508.17 799.146 507.533 800.313 507.48 801.481C506.313 831.136 488.649 851.135 467.962 869.385C463.877 872.992 459.687 876.44 454.223 878.881C457.034 870.34 459.952 861.799 462.604 853.204C469.129 831.825 466.529 812.25 450.722 795.486C443.614 787.9 441.386 778.987 441.917 768.855C442.712 753.736 447.433 740.049 455.708 727.529C457.14 725.354 458.466 723.073 459.846 720.844C460.641 721.375 461.437 721.906 462.18 722.436C462.71 730.394 463.241 738.351 463.824 747.051V747.104Z" fill="white"/>
<path d="M62.2747 429.122C62.8582 425.356 64.4495 421.483 63.8661 417.929C61.6382 403.234 63.3356 389.759 72.7246 377.504C75.642 373.738 76.4907 368.38 79.143 361.695C81.2117 365.568 83.6518 368.115 83.864 370.82C84.5005 378.247 84.0231 385.727 84.2883 393.154C84.4475 398.406 85.031 403.658 85.6144 408.857C86.4101 415.807 87.3649 422.703 88.2667 429.759C96.2234 426.629 97.1782 416.655 101.369 409.069C102.217 409.175 103.066 409.334 103.915 409.441C104.604 418.353 106.673 427.478 105.559 436.178C104.286 446.31 100.785 456.284 97.0721 465.886C93.7303 474.533 85.5614 479.095 77.4455 482.066C55.5911 490.024 48.1117 507.742 44.4516 528.326C43.2847 534.957 42.7012 541.747 41.6933 548.379C41.4811 549.599 40.5794 550.713 38.935 554.002C34.5323 542.702 30.5009 533.312 27.2651 523.657C24.5598 515.647 21.2711 507.424 21.0058 499.201C20.6876 488.803 23.1276 478.3 24.6129 467.902C25.0372 464.825 25.7268 461.642 27.0529 458.83C28.0608 456.761 30.2356 455.17 31.9331 453.472C32.8879 452.517 34.4792 451.987 35.1158 450.873C39.1472 443.817 43.1786 436.708 46.8387 429.44C48.8544 425.462 50.0744 421.112 52.5145 414.799C55.485 420.528 57.7129 424.719 59.8877 428.91C60.7364 428.91 61.5321 429.016 62.3808 429.069L62.2747 429.122Z" fill="white"/>
<path d="M388.394 142.333C392.532 152.89 383.249 162.333 368.662 162.227C367.813 165.039 366.752 170.026 366.328 169.972C361.819 169.442 356.461 169.283 353.279 166.63C348.24 162.492 343.89 158.673 337.365 162.28C333.599 164.349 330.363 167.373 326.969 170.026C325.218 171.405 323.574 172.943 321.929 174.376C321.187 173.792 320.391 173.262 319.648 172.678C322.937 166.896 326.279 161.06 329.303 155.808C322.831 157.983 317.208 164.508 317.208 172.041C317.208 186.1 309.941 195.012 297.953 200.954C295.778 202.015 293.656 203.182 291.535 204.243C275.727 212.306 272.332 222.121 278.751 240.37C279.599 242.757 279.812 245.41 280.342 247.956C279.493 248.487 278.592 248.964 277.743 249.495C275.621 246.789 273.499 244.083 270.635 240.476C270.158 247.319 267.452 247.373 262.466 245.41C256.684 243.129 249.894 243.288 244.378 240.635C237.217 237.187 230.586 232.306 224.327 227.32C223.001 226.259 224.062 222.121 224.168 219.415C224.274 216.497 225.176 213.42 224.645 210.662C222.258 199.097 221.94 187.691 225.971 176.445C226.608 174.641 227.775 172.996 229.101 170.45C232.973 182.121 234.989 193.261 240.187 202.598C245.439 211.988 253.873 219.574 260.928 228.009C261.617 227.744 262.307 227.426 262.996 227.16C262.731 224.72 262.625 222.28 262.254 219.84C259.495 201.749 264.694 185.888 276.205 172.094C282.994 163.978 289.89 155.861 297.741 148.859C306.122 141.378 315.829 135.384 324.688 128.434C329.833 124.402 334.448 119.681 339.699 114.96C346.224 118.196 345.853 132.625 338.479 146.365C349.778 146.365 361.819 146.737 373.754 146.206C378.74 145.994 383.567 143.766 388.607 142.386L388.394 142.333Z" fill="white"/>
<path d="M306.175 919.782C317.951 910.18 332.538 910.923 341.556 920.79C351.687 931.931 354.658 945.83 356.09 960.1C356.833 967.209 356.196 974.424 357.734 981.639C359.432 971.4 360.068 960.896 363.039 951.082C366.009 941.268 371.632 932.408 381.445 926.732C379.96 930.392 378.475 934.053 376.937 937.713C371.049 951.612 374.019 965.246 378.422 978.668C381.923 989.437 387.227 999.782 382.4 1011.51C382.241 1011.93 382.135 1012.46 382.241 1012.89C389.296 1038.03 369.51 1062.38 348.982 1061.74C337.206 1061.37 325.43 1061.16 313.654 1060.79C312.381 1060.79 311.108 1059.83 307.766 1058.46C322.672 1049.97 336.092 1041.85 342.51 1025.19C313.336 1055.27 290.473 1063.55 278.114 1048.64C283.418 1048.38 288.723 1049.01 293.603 1047.79C317.049 1041.9 330.575 1025.3 338.797 1003.81C346.064 984.875 345.693 965.511 338.638 946.52C334.023 934.212 325.96 924.981 312.381 921.851C310.577 921.427 308.88 920.737 306.175 919.835V919.782Z" fill="white"/>
<path d="M123.86 841.587C123.435 845.035 123.435 848.589 122.586 851.878C118.025 869.597 126.565 889.756 142.425 898.35C156.27 905.83 174.252 897.979 177.382 883.019C179.185 874.584 175.419 870.605 167.144 872.143C165.288 872.462 163.06 872.939 161.468 872.249C159.294 871.295 157.543 869.332 155.58 867.74C157.013 866.096 158.18 863.921 159.93 862.86C165.871 859.305 172.449 857.979 178.39 862.17C184.755 866.679 187.142 873.682 186.506 881.321C185.498 894.265 174.677 908.536 163.484 911.294C148.791 914.902 135.954 911.772 125.451 900.048C117.176 890.764 114.046 879.676 112.985 867.687C108.158 893.841 111.394 913.416 134.15 931.878C144.547 940.313 157.013 946.148 167.993 954C177.912 961.055 188.415 968.058 196.319 977.129C211.224 994.265 205.124 1018.19 183.8 1026.25C171.016 1031.08 159.24 1035.96 152.663 1048.64C151.231 1047.9 150.329 1047.74 150.064 1047.21C142.372 1033.73 147.305 1011.82 159.93 1002.96C160.726 1002.43 161.521 1001.9 162.317 1001.37C176.639 991.93 177.541 982.647 164.439 971.347C151.867 960.472 138.606 950.392 125.769 939.835C108.901 925.883 102.376 907.316 102.323 885.989C102.323 882.17 102.323 878.35 102.323 874.212C98.5041 874 95.3214 873.788 91.29 873.576C98.7694 864.875 105.612 856.971 112.985 848.43C113.463 851.242 114.046 854.425 114.63 857.873C116.858 852.196 119.032 846.573 121.26 841.003C122.109 841.215 123.011 841.427 123.86 841.64V841.587Z" fill="white"/>
<path d="M186.559 371.351C187.036 371.987 187.195 372.199 187.354 372.305C190.378 374.374 193.455 376.496 196.531 378.565C192.659 382.544 189.105 387 184.702 390.289C182.739 391.775 179.079 391.085 176.215 391.191C165.129 391.563 158.869 397.027 157.755 408.433C157.066 415.594 157.543 422.862 157.384 430.077C157.384 431.403 156.748 432.783 156.376 434.268C151.814 430.731 148.172 416.001 145.449 390.077C141.948 404.295 142.107 419.096 131.657 429.547C130.809 429.334 129.907 429.122 129.058 428.91C129.217 426.204 129.323 423.499 129.482 420.793C130.119 410.395 127.891 401.43 118.714 394.799C108.424 387.319 106.302 376.868 112.137 365.409C114.312 361.165 117.282 357.292 120.147 353.42C122.587 350.078 125.345 347.425 129.536 351.51C130.331 352.306 132.294 352.465 133.567 352.146C140.569 350.502 148.473 337.027 145.343 330.449C140.357 319.945 143.752 311.457 149.109 302.598C153.3 295.701 156.694 288.274 160.567 281.219C161.15 280.158 162.901 278.672 163.537 278.937C164.916 279.468 166.826 280.953 166.879 282.12C167.038 287.319 168.099 293.208 166.189 297.664C160.461 310.927 159.559 323.393 166.189 336.656C170.857 345.94 168.47 354.693 160.514 362.014C153.936 368.061 149.427 375.064 148.101 384.136C154.095 371.085 165.182 362.756 175.207 353.314C181.626 347.266 186.506 340.104 186.347 330.608C186.347 329.335 187.195 328.115 187.726 326.682C202.95 337.292 202.419 356.072 186.612 371.351H186.559Z" fill="white"/>
<path d="M129.588 821.321C132.877 819.358 136.219 817.449 139.561 815.486C135.105 809.862 125.08 809.279 121.685 815.274C114.683 827.74 103.968 829.862 91.4493 828.536C84.5534 827.793 79.4081 830.499 75.6949 836.441C65.4573 818.351 81.9542 787.953 108.318 776.547C105.347 775.645 103.066 775.009 99.353 773.895C101.793 771.454 103.225 769.173 105.241 768.165C119.722 760.95 134.787 755.964 151.231 759.518C168.417 763.178 185.498 767.157 202.578 771.295C204.488 771.773 205.92 774.107 207.617 775.539C205.708 776.653 203.904 778.245 201.889 778.775C193.561 781.109 185.126 782.913 176.798 785.353C170.963 787.051 167.622 791.136 167.091 797.502C166.72 802.064 166.03 806.626 165.076 811.083C162.954 820.95 158.18 825.353 148.207 825.777C142.213 826.043 136.113 825.035 130.066 824.61C129.907 823.549 129.748 822.435 129.588 821.374V821.321Z" fill="white"/>
<path d="M280.926 657.503C274.825 653.789 268.725 650.129 261.352 645.62C261.352 651.879 261.14 656.972 261.458 662.012C261.617 664.611 262.837 667.105 263.421 669.704C264.871 676.212 262.501 679.819 256.313 680.526C254.934 697.237 262.148 706.15 279.281 708.059C297.794 710.128 307.766 722.648 316.094 737.343C316.519 738.086 316.413 739.2 316.36 740.102C316.36 740.473 315.829 740.844 315.193 741.64C309.252 738.457 303.204 735.221 297.104 732.038C289.413 728.006 281.35 728.325 273.128 730.234C256.843 734.001 244.272 728.696 235.572 714.585C232.39 709.439 228.889 704.452 226.502 698.988C225.282 696.176 226.183 692.463 226.077 689.174C226.024 687.423 226.396 685.407 225.653 684.028C220.985 675.009 220.614 665.619 222.417 655.911C223.372 650.818 225.653 650.076 230.003 652.516C232.071 653.683 234.617 654.107 239.179 655.54C231.382 641.8 231.063 629.917 238.012 617.291C241.301 619.413 244.325 621.376 248.197 623.869C250.107 601.323 262.413 585.355 276.47 570.395C277.159 570.713 277.849 571.084 278.592 571.402C275.568 578.723 272.014 585.885 269.627 593.418C267.93 598.829 267.134 604.718 267.081 610.394C267.081 613.153 269.786 615.911 271.271 618.617C272.014 619.996 273.765 621.535 273.552 622.702C271.643 633.842 276.735 642.861 281.986 651.932C282.517 652.887 282.57 654.108 282.782 655.222C282.199 655.964 281.615 656.654 281.032 657.397L280.926 657.503Z" fill="white"/>
<path d="M361.607 583.445C364.471 582.649 366.487 582.066 368.396 581.535C377.043 595.54 373.223 616.495 360.811 623.392C358.371 624.718 355.453 625.567 352.695 625.832C342.882 626.787 342.404 626.097 344.791 616.601C345.216 614.85 345.216 612.941 345.428 610.978C340.548 609.28 333.122 618.246 331.53 606.15C328.613 609.864 326.226 612.888 323.308 616.548C325.271 617.291 326.438 618.087 327.711 618.193C335.402 618.935 336.516 620.633 333.493 627.529C330.681 634.055 325.483 637.609 318.693 638.988C308.88 641.004 303.894 645.673 304.159 655.646C304.371 663.657 306.652 671.614 308.137 679.572C308.562 681.747 309.304 683.922 309.039 686.468C300.605 680.633 296.202 672.145 292.701 663.073C285.646 644.665 290.208 628.219 301.348 612.782C305.008 607.689 308.562 602.437 311.267 596.866C314.397 590.447 317.579 583.657 313.283 576.23C312.858 575.434 313.495 574.055 313.76 571.827C323.786 577.185 328.825 585.514 332.379 595.169C333.175 595.01 334.023 594.798 334.819 594.638C334.554 589.705 335.243 584.453 333.811 579.837C328.613 562.543 329.621 558.564 343.784 547.795C352.907 540.899 358.053 531.827 359.432 520.421C360.387 512.358 363.251 505.09 372.163 501.005C372.587 503.074 373.17 504.559 373.17 506.045C373.064 513.366 372.322 520.74 372.799 528.007C373.489 538.883 372.481 548.644 362.349 555.381C355.825 559.731 356.833 566.734 357.894 573.206C358.424 576.442 360.121 579.466 361.554 583.339L361.607 583.445Z" fill="white"/>
<path d="M237.429 465.833C246.606 458.141 255.57 450.077 265.012 442.756C285.222 427 296.149 405.992 298.749 381.059C301.613 353.738 299.863 326.576 288.935 300.794C285.116 291.829 280.395 283.553 270.688 279.309C263.315 276.126 256.843 278.195 250.955 282.226C249.417 283.287 248.568 287.372 249.258 289.335C251.327 295.065 250.425 299.627 246.34 303.924C242.256 308.221 237.429 309.494 231.859 307.744C222.311 304.72 216.052 297.717 211.119 289.6C210.376 288.327 213.187 284.879 214.832 281.431C208.254 277.081 205.337 269.229 204.965 260.264C204.806 255.914 206.928 254.057 210.694 256.656C216.529 260.688 221.25 258.672 226.714 255.648C233.503 251.882 240.718 246.948 248.038 246.365C267.293 244.826 280.183 256.603 289.678 271.563C302.886 292.359 308.827 315.701 309.782 340.21C310.525 359.786 309.623 379.202 304.371 398.3C299.597 415.594 291.269 430.183 277.212 441.536C265.012 451.35 252.918 461.164 237.376 465.727L237.429 465.833Z" fill="white"/>
<path d="M217.431 394.799C209.05 394.374 205.018 402.809 197.486 398.512C200.562 393.685 203.745 389.441 206.026 384.825C207.67 381.43 208.148 377.504 209.103 373.791C209.421 372.412 209.103 370.343 209.898 369.706C219.977 362.438 215.521 352.995 213.717 344.083C212.71 338.937 211.012 333.95 210.8 328.486C223 341.112 230.161 355.913 231.063 373.632C241.725 369.176 242.733 369.6 244.271 381.006C245.12 387.106 245.014 393.313 246.499 398.99C247.878 402.014 250.637 405.197 250.371 408.114C249.682 415.86 246.924 423.499 246.393 431.244C245.65 441.748 239.126 448.645 233.291 456.178C224.751 467.159 213.134 469.599 200.828 465.621C189.211 461.854 179.185 463.392 169.054 469.175C166.932 470.395 164.545 471.085 161.627 472.252C163.802 459.042 180.087 446.629 194.621 444.984C200.615 444.294 206.875 442.544 212.02 439.52C215.256 437.663 217.006 432.73 218.651 428.91C219.234 427.584 217.802 423.923 216.741 423.711C209.05 421.96 212.391 417.292 213.399 413.048C214.778 407.159 215.945 401.218 217.271 394.799H217.431Z" fill="white"/>
<path d="M83.4395 583.657C67.6852 569.864 55.6971 555.912 50.6578 537.45C47.6873 526.469 58.2963 499.785 68.1626 497.026C76.915 494.586 79.1429 485.62 87.2587 483.498C94.8972 481.483 102.323 478.459 109.644 475.435C121.791 470.448 132.029 463.127 138.076 450.979C138.977 449.175 140.569 447.69 142.956 444.613C143.327 448.008 144.07 449.971 143.592 451.509C140.198 462.597 136.325 473.419 127.467 481.748C112.667 495.753 99.8304 511.403 90.8658 529.811C83.6517 544.612 79.4081 559.997 83.8639 576.654C84.2352 578.087 83.7048 579.784 83.4395 583.604V583.657Z" fill="white"/>
<path d="M170.38 674.479C173.775 677.662 175.472 679.678 177.594 681.11C179.239 682.171 181.36 682.489 183.27 683.179C183.535 681.216 184.437 679.094 183.959 677.343C182.474 672.038 180.299 666.893 178.602 661.641C173.828 646.733 173.669 631.773 179.398 617.079C180.512 614.161 182.792 611.72 184.543 609.068C185.233 609.28 185.975 609.439 186.665 609.652C187.036 612.039 187.991 614.479 187.673 616.813C185.763 630.447 188.521 641.535 200.722 650.235C209.156 656.229 213.134 665.991 214.248 676.495C215.15 685.089 216.264 693.683 217.219 702.277C218.545 714.054 226.873 720.632 235.519 727.051C237.482 728.484 238.914 730.659 240.558 732.462C238.118 733.577 235.784 735.433 233.291 735.592C200.191 737.714 174.571 716.813 170.062 684.134C169.69 681.587 170.274 678.935 170.486 674.532L170.38 674.479Z" fill="white"/>
<path d="M359.591 934C359.803 931.294 359.856 928.589 360.28 925.883C363.887 903.92 364.63 881.905 355.825 861.109C348.08 842.86 334.766 828.324 319.701 815.592C293.656 793.576 263.58 779.2 230.904 770.181C218.173 766.68 204.965 764.717 191.969 762.224C182.156 760.367 176.109 753.523 167.622 746.574C171.335 745.619 172.873 744.664 174.305 744.876C214.142 751.401 253.872 758.722 289.943 777.82C320.285 793.894 345.852 815.751 361.925 846.945C373.117 868.589 372.799 891.613 368.555 914.796C367.335 921.48 364.524 927.899 362.455 934.477C361.5 934.318 360.546 934.106 359.591 933.947V934Z" fill="white"/>
<path d="M432.74 894.159C432.74 891.029 432.156 887.793 432.846 884.875C436.771 867.899 432.421 853.523 420.115 841.215C411.151 832.25 405.74 821.427 404.414 808.695C402.982 795.008 397.041 783.391 387.227 773.735C385.636 772.197 384.681 770.022 382.135 766.202C387.227 766.892 390.251 766.945 393.062 767.741C411.946 772.993 430.83 778.033 442.182 796.494C449.025 807.688 451.199 819.942 451.305 832.515C451.465 852.143 449.555 871.56 438.787 888.907C437.567 890.87 436.188 892.674 434.862 894.583C434.172 894.477 433.482 894.371 432.793 894.212L432.74 894.159Z" fill="white"/>
<path d="M163.484 588.219C165.606 583.498 167.463 579.466 169.266 575.381C178.602 554.479 196.531 543.339 218.651 544.718C220.932 544.877 223.213 545.514 225.441 545.885L225.812 547.742C221.833 549.493 217.961 551.509 213.877 552.994C197.062 559.095 190.325 568.273 190.908 585.938C191.174 593.471 189.105 599.678 183.8 604.93C181.944 606.787 180.246 608.909 178.337 610.766C167.887 621.11 165.341 632.728 169.531 647.158C171.388 653.524 170.274 661.747 167.887 668.113C163.855 678.935 159.4 689.227 164.121 700.898C164.545 701.959 163.855 703.444 163.59 705.725C155.315 702.012 153.724 694.85 153.3 688.325C152.769 680.261 153.618 671.932 155.262 663.975C157.702 652.463 154.785 643.126 146.987 634.744C140.728 628.007 137.598 620.155 140.091 610.819C141.205 606.575 143.327 603.763 148.26 606.097C149.162 600.686 149.48 595.328 150.966 590.341C153.512 581.906 155.262 581.588 163.378 588.113L163.484 588.219Z" fill="white"/>
<path d="M405.528 3.05176e-05C407.915 6.25994 409.188 13.3687 405.103 18.8859C395.661 31.6179 394.653 45.3579 397.412 60.1058C399.587 71.7237 397.2 76.8166 387.121 82.9704C373.754 91.1401 368.98 104.827 363.569 118.302C360.811 125.145 357.257 131.723 353.597 138.195C352.218 140.636 349.459 142.333 347.337 144.402C346.595 144.084 345.852 143.766 345.11 143.447C345.799 139.416 345.905 135.225 347.231 131.458C350.202 122.97 347.815 115.861 342.563 109.23C329.78 93.209 333.387 75.2781 351.687 64.8803C353.066 64.0845 356.567 64.3498 357.151 65.3047C360.121 70.2914 363.41 68.3285 366.964 66.4718C375.876 61.6442 378.899 54.2703 377.361 44.1907C376.777 40.265 377.785 35.5436 379.536 31.9362C381.604 27.7452 385.265 24.2439 388.341 20.5835C393.805 14.0053 399.427 7.48009 405.687 0.0530793L405.528 3.05176e-05Z" fill="white"/>
<path d="M341.397 203.182C339.063 204.879 336.835 206.895 334.342 208.328C320.55 215.967 315.405 227.797 319.065 242.916C323.733 262.12 329.674 281.272 327.021 301.324C326.067 308.486 322.778 315.383 320.073 322.226C319.595 323.499 316.731 324.826 315.458 324.454C314.238 324.083 312.912 321.537 312.912 319.945C313.336 299.68 303.841 283.5 292.648 267.638C288.829 262.174 286.973 255.065 285.381 248.381C284.32 243.871 285.063 239.309 290.58 236.179C293.391 234.587 294.187 229.176 295.513 225.357C301.931 206.948 316.625 197.505 335.774 199.681C337.365 199.84 338.904 200.582 340.442 201.06L341.344 203.182H341.397Z" fill="white"/>
<path d="M324.051 643.073C327.552 650.659 329.78 655.911 332.379 661.004C343.094 682.224 362.508 693.312 382.082 704.717C395.767 712.675 409.347 721.322 421.176 731.72C427.807 737.502 430.989 747.37 435.339 755.592C436.241 757.343 435.498 759.942 435.498 762.648C433.96 762.171 433.058 762.17 432.74 761.693C416.402 740.049 393.964 727.794 369.033 718.723C356.249 714.054 343.784 707.847 332.114 700.792C311.373 688.272 312.328 667.794 320.709 649.28C321.505 647.582 322.566 645.991 324.157 643.179L324.051 643.073Z" fill="white"/>
<path d="M0 589.599C0.318269 586.787 4.03119e-06 583.763 1.0609 581.27C7.85064 564.135 20.2101 562.066 38.3514 565.885C65.9878 571.721 86.6222 597.079 89.5397 625.673C89.5927 626.362 89.2745 627.052 89.1153 627.795C88.5849 627.795 87.8953 627.954 87.7362 627.795C81.3708 618.882 73.2549 617.079 62.4868 619.254C49.4908 621.853 41.7463 615.646 36.7601 602.649C34.9035 597.874 32.0391 592.994 28.379 589.599C18.5657 580.474 11.7229 580.898 0 589.652V589.599Z" fill="white"/>
<path d="M269.15 925.724C277 934.742 275.462 950.074 263.898 959.676C243.741 976.387 215.097 977.978 191.068 963.071C184.967 959.305 179.451 954.583 173.669 950.339C174.093 949.703 174.465 949.066 174.889 948.429C175.791 948.27 176.905 947.687 177.541 948.005C186.983 953.098 193.242 948.588 199.343 941.586C209.527 929.968 217.855 929.119 231.806 937.607C239.763 942.435 248.356 946.148 256.79 940.419C261.776 937.024 264.959 930.923 269.203 925.724H269.15Z" fill="white"/>
<path d="M390.092 949.915C390.092 945.936 389.349 941.268 390.251 937.023C392.001 928.801 394.601 920.737 396.935 912.674C404.838 885.512 397.677 866.785 373.436 851.666C372.64 851.135 371.738 850.764 369.669 849.65C380.225 842.966 390.092 843.284 399.428 845.777C426.958 853.151 437.355 886.891 419.638 910.021C417.887 912.302 415.765 914.318 414.068 916.652C406.164 927.528 398.314 938.509 390.092 949.915Z" fill="white"/>
<path d="M372.693 633.683C372.905 636.336 373.489 638.246 373.117 639.996C370.518 653.047 376.247 662.012 387.015 668.272C400.701 676.176 413.962 684.717 423.033 697.874C429.239 706.892 434.278 716.866 438.946 726.839C440.643 730.553 439.742 735.486 440.166 741.905C437.673 739.73 436.665 739.359 436.453 738.669C428.549 717.237 412.211 704.717 392.16 695.752C383.408 691.826 374.337 688.06 366.646 682.489C346.913 668.166 355.613 641.004 372.693 633.683Z" fill="white"/>
<path d="M109.909 635.434C106.832 628.537 102.854 621.853 100.945 614.638C96.0114 596.283 91.7678 578.034 96.0114 558.405C101.475 533.206 124.709 516.655 149.799 522.225C152.292 522.756 154.52 524.559 158.233 526.469C155.528 527.848 154.573 528.591 153.512 528.803C124.178 535.435 105.082 557.981 105.666 588.113C105.931 602.649 109.697 617.132 111.872 631.614C112.031 632.516 112.19 633.471 112.296 634.373C111.5 634.744 110.705 635.063 109.909 635.434Z" fill="white"/>
<path d="M248.25 449.387C254.721 439.891 262.041 430.82 267.399 420.74C272.226 411.722 275.727 401.748 278.273 391.775C282.411 375.435 269.786 346.258 255.623 336.815C253.554 335.436 251.751 333.685 248.727 331.298C251.326 330.608 252.44 330.025 253.448 330.078C276.045 331.775 293.497 350.608 294.187 373.26C294.876 396.602 283.472 414.799 269.574 431.775C263.739 438.883 256.525 444.825 249.947 451.35C249.364 450.714 248.78 450.077 248.25 449.44V449.387Z" fill="white"/>
<path d="M304.053 506.045C303.523 504.506 303.045 503.604 302.939 502.756C301.401 490.289 295.566 486.31 283.206 489.44C268.884 493.047 265.967 491.297 258.222 478.883C255.676 474.798 250.053 472.57 245.067 468.963C253.183 461.005 264.429 458.088 277.106 459.149C290.527 460.316 307.289 473.525 310.365 485.037C312.752 494.002 310.79 501.111 304.053 506.045Z" fill="white"/>
<path d="M408.923 72.9969C411.416 83.4478 406.854 91.4053 402.875 99.4159C401.443 102.334 396.987 104.668 401.655 108.328C398.791 111.511 396.351 116.657 392.903 117.453C384.151 119.469 378.475 123.66 374.284 131.617C370.995 137.93 365.267 141.803 356.461 140.848C357.257 138.567 357.734 137.081 358.318 135.702C361.819 127.532 365.585 119.522 368.768 111.246C373.17 99.7342 380.225 91.2462 391.895 86.1003C397.783 83.5009 402.451 78.1428 408.87 73.1031L408.923 72.9969Z" fill="white"/>
<path d="M209.421 892.09C204.064 899.729 198.653 906.732 194.038 914.212C188.946 922.488 182.05 927.634 172.767 930.392C148.844 937.501 118.927 919.729 116.009 894.849C118.29 897.289 120.73 899.57 122.799 902.17C133.991 916.387 148.526 923.284 166.455 920.366C171.547 919.57 176.746 915.697 180.512 911.878C185.021 907.316 187.567 901.003 191.757 896.069C197.274 889.597 203.745 888.695 209.368 892.143L209.421 892.09Z" fill="white"/>
<path d="M178.549 474.374C197.486 463.923 221.674 469.281 236.155 487.053C244.802 497.663 249.364 509.016 244.59 523.074C241.884 531.084 240.983 539.678 239.073 548.856C232.92 547.265 230.161 541.8 230.108 535.965C230.055 529.864 231.222 523.445 233.45 517.769C238.012 506.045 233.079 497.345 225.175 490.077C215.786 481.376 204.594 475.912 191.227 476.549C187.036 476.761 182.845 476.549 178.655 476.549V474.374H178.549Z" fill="white"/>
<path d="M204.435 538.14C198.918 540.633 193.508 538.671 189.689 533.949C186.135 529.546 183.164 524.4 181.095 519.148C175.419 504.718 166.349 501.005 152.186 501.429C139.508 501.801 128.21 506.204 119.245 515.753C117.07 518.087 114.418 519.997 111.341 521.535C113.834 510.766 121.314 503.923 129.642 498.034C142.691 488.856 170.752 488.857 183.111 501.323C185.127 503.339 187.195 505.461 188.575 507.901C193.879 517.663 198.918 527.583 204.435 538.14Z" fill="white"/>
</svg>
